<?xml version="1.0" encoding="UTF-8" standalone="no"?>
<!-- Created with Inkscape (http://www.inkscape.org/) -->

<svg
   xmlns:dc="http://purl.org/dc/elements/1.1/"
   xmlns:cc="http://creativecommons.org/ns#"
   xmlns:rdf="http://www.w3.org/1999/02/22-rdf-syntax-ns#"
   xmlns:svg="http://www.w3.org/2000/svg"
   xmlns="http://www.w3.org/2000/svg"
   xmlns:sodipodi="http://sodipodi.sourceforge.net/DTD/sodipodi-0.dtd"
   xmlns:inkscape="http://www.inkscape.org/namespaces/inkscape"
   version="1.1"
   id="svg2"
   width="721.06665"
   height="721.06665"
   viewBox="0 0 721.06665 721.06665"
   sodipodi:docname="jump.svg"
   inkscape:version="0.92.4 (unknown)">
  <metadata
     id="metadata8">
    <rdf:RDF>
      <cc:Work
         rdf:about="">
        <dc:format>image/svg+xml</dc:format>
        <dc:type
           rdf:resource="http://purl.org/dc/dcmitype/StillImage" />
        <dc:title></dc:title>
      </cc:Work>
    </rdf:RDF>
  </metadata>
  <defs
     id="defs6" />
  <sodipodi:namedview
     pagecolor="#ffffff"
     bordercolor="#666666"
     borderopacity="1"
     objecttolerance="10"
     gridtolerance="10"
     guidetolerance="10"
     inkscape:pageopacity="0"
     inkscape:pageshadow="2"
     inkscape:window-width="1015"
     inkscape:window-height="765"
     id="namedview4"
     showgrid="false"
     inkscape:zoom="0.46286207"
     inkscape:cx="272.06933"
     inkscape:cy="490.96952"
     inkscape:window-x="131"
     inkscape:window-y="27"
     inkscape:window-maximized="0"
     inkscape:current-layer="svg2" />
  <g
     id="g817"
     transform="translate(-0.19881202,3.672132)">
    <path
       style="fill:#aeaeae;stroke-width:1.0666666"
       d="m 268.1374,714.35556 c -3.74113,-3.42848 -4.06014,-4.17242 -4.04746,-9.4387 0.007,-3.14428 0.83024,-9.07688 1.82818,-13.18354 0.99794,-4.10667 3.05092,-13.70667 4.56217,-21.33334 3.71424,-18.74426 11.77518,-51.59246 20.17698,-82.22094 6.22144,-22.68008 7.85937,-30.31239 6.50517,-30.31239 -0.24067,0 -3.48067,1.43962 -7.2,3.19916 -13.51667,6.39443 -14.75337,5.70102 -44.94869,-25.20204 -13.68434,-14.00507 -29.41058,-30.50082 -34.94718,-36.65719 -5.53662,-6.15637 -14.80478,-16.23637 -20.59592,-22.4 -11.13717,-11.85352 -30.12927,-37.53119 -31.63019,-42.76465 -0.9982,-3.4805 -0.12443,-7.32807 2.80988,-12.37308 1.08695,-1.8688 1.62278,-3.7513 1.19072,-4.18334 -1.86969,-1.86971 -23.86156,3.77782 -64.348857,16.52482 -11.087379,3.49075 -30.71288,9.56908 -43.612223,13.50742 -12.899344,3.93834 -27.706718,8.80326 -32.905274,10.81094 -11.6120415,4.48458 -17.3854509,4.53397 -19.824446,0.16957 -1.46078554,-2.61395 -1.36841831,-3.32103 1.1843914,-9.06667 C 43.619029,356.5126 67.53023,309.77656 85.50885,286.86206 c 21.21387,-27.03795 51.08724,-48.54267 79.32523,-57.10326 8.48262,-2.57158 11.37783,-2.91087 25.56592,-2.99606 23.85569,-0.14325 40.11932,3.94501 67.27882,16.91212 8.05433,3.8455 15.44111,6.9918 16.41508,6.9918 1.03295,0 8.26494,-8.33394 17.3555,-20 29.85713,-38.31609 70.02272,-79.20347 114.90221,-116.96705 27.69157,-23.30091 48.48246,-37.944346 78.97797,-55.625751 22.44111,-13.011438 57.86179,-29.27386 63.7605,-29.27386 3.01941,0 11.00645,5.50639 15.72456,10.840769 7.44843,8.421315 64.07917,67.601222 92.06315,96.207282 29.55134,30.20822 35.38886,36.9281 35.38886,40.73788 0,7.81656 -36.94434,81.60153 -58.94407,117.72267 -18.49262,30.36284 -30.16511,45.08671 -59.98926,75.67147 -22.05567,22.61814 -49.22989,45.85835 -86.59361,74.05743 -5.97315,4.50806 -11.12766,8.62909 -11.45446,9.15787 -0.3268,0.52877 1.33582,5.07992 3.6947,10.11364 10.56096,22.53649 11.94643,47.43754 4.66152,83.78089 -6.10155,30.43971 -19.18677,52.9849 -46.82826,80.68278 -23.58568,23.6338 -39.01886,34.51942 -73.07989,51.54609 -23.75083,11.87273 -46.27664,21.84613 -71.99999,31.87831 -19.76182,7.70716 -18.7764,7.57526 -23.59593,3.15848 z M 537.55746,234.18457 c 1.61675,-1.94805 1.02799,-5.38458 -0.9225,-5.38458 -2.02385,0 -3.78351,3.07239 -2.97154,5.18836 0.82788,2.15744 2.20863,2.22702 3.89404,0.19622 z m 3.84999,-13.83355 c 0.99166,-3.95106 0.13358,-6.48436 -2.19638,-6.48436 -2.35408,0 -4.47218,4.56493 -3.40658,7.34186 1.04123,2.71337 4.85316,2.12999 5.60296,-0.8575 z m -1.8689,-14.28372 c 0.18621,-1.2644 -1.20738,-5.1994 -3.09687,-8.74442 -4.13316,-7.75463 -10.58928,-13.03511 -15.36629,-12.56816 -4.8281,0.47194 -4.7322,3.4966 0.19052,6.00903 4.82613,2.46314 6.50247,4.2723 10.53482,11.36958 4.25016,7.48062 7.00895,8.88321 7.73782,3.93397 z M 33.1872,705.86665 c -0.555296,-1.49184 -0.120917,-7.2435 1.147937,-15.2 2.498448,-15.66679 2.007205,-26.85599 -1.802967,-41.06667 -3.641047,-13.5799 -4.293492,-23.07855 -2.283849,-33.24952 3.194617,-16.16821 10.688922,-30.82782 23.376637,-45.72701 7.385258,-8.67251 6.542197,-9.69008 -1.778865,-2.14707 -7.889953,7.1522 -15.895154,12.98561 -22.160306,16.14825 -6.689928,3.37706 -9.360119,3.80769 -11.339121,1.82869 -2.279918,-2.27991 -1.368303,-5.28268 2.899434,-9.55041 5.57158,-5.57158 7.418774,-11.52656 8.682985,-27.99218 2.631993,-34.28016 15.078885,-50.41396 54.354978,-70.45555 17.206417,-8.78 28.416067,-13.20309 38.382597,-15.14497 25.19812,-4.90961 52.70437,7.43212 72.45848,32.51126 3.7633,4.77776 11.36847,15.29247 16.90037,23.36602 12.34019,18.00992 13.24058,19.11626 32.74234,40.23218 8.64526,9.36082 16.14919,18.15206 16.6754,19.5361 2.13337,5.61119 -0.0902,27.84114 -3.94082,39.39837 -6.13907,18.42562 -13.20386,26.06087 -31.38527,33.9195 -12.77814,5.52314 -22.30902,11.21164 -26.6505,15.9063 -1.46666,1.58599 -5.56713,7.53431 -9.11215,13.21849 -5.77663,9.26242 -6.80314,10.36977 -9.89206,10.67103 -3.06274,0.29871 -3.62194,-0.0835 -5.02118,-3.43241 -3.78216,-9.05197 -1.36589,-23.24585 7.05804,-41.46121 3.46538,-7.49329 6.30069,-13.8251 6.30069,-14.0707 0,-0.24561 -3.97247,2.52526 -8.82771,6.15748 -4.85523,3.63221 -15.01489,9.72403 -22.577,13.53736 -19.23265,9.6984 -23.18998,13.54633 -32.1542,31.26509 -8.18765,16.18381 -13.27,23.13491 -16.91523,23.13491 -1.35556,0 -2.94166,-0.6 -3.52467,-1.33333 -1.17309,-1.47555 -2.79823,-34.43029 -2.8715,-58.22833 -0.0259,-8.41225 -0.41688,-14.65225 -0.86884,-13.86667 -12.425087,21.59687 -21.60629,33.35583 -38.31149,49.06804 -7.648588,7.19394 -16.044217,15.85798 -18.656952,19.25342 -5.283048,6.86572 -9.244057,8.23635 -10.905208,3.77354 z M 681.6406,149.59954 C 677.80493,145.63928 662.21196,129.19928 646.98956,113.06621 631.76716,96.933124 608.12716,72.122219 594.45623,57.930859 568.68088,31.174297 567.78628,29.915368 570.6911,24.487655 c 0.60011,-1.12132 2.07789,-2.566873 3.28396,-3.21234 1.20607,-0.645468 32.75507,-4.672564 70.10888,-8.949104 67.96912,-7.7816035 71.79265,-8.0154308 74.01134,-4.526146 1.83475,2.885497 0.43392,15.079962 -8.96788,78.0666 -8.91961,59.756155 -10.10096,66.364765 -12.25098,68.533335 -4.20461,4.24088 -7.47773,3.20961 -15.23582,-4.80046 z"
       id="path831"
       inkscape:connector-curvature="0" />
    <path
       style="fill:#13aed3;stroke-width:1.0666666"
       d="m 270.18754,714.71131 c -5.28836,-3.22451 -6.2312,-8.40531 -3.64448,-20.0258 1.14499,-5.1437 3.35592,-15.59219 4.91318,-23.21886 4.69335,-22.98566 10.92664,-48.55197 19.28488,-79.09831 7.68627,-28.09051 9.1208,-35.56835 6.82342,-35.56835 -0.60618,0 -3.60618,1.28193 -6.66667,2.84873 -6.42432,3.28891 -13.48017,3.74295 -18.36454,1.18175 -3.94279,-2.06746 -39.29309,-37.73503 -61.454,-62.00555 -9.02697,-9.8863 -19.87084,-21.75724 -24.0975,-26.3799 -8.14557,-8.90872 -12.24424,-14.22043 -21.99793,-28.50837 -6.80724,-9.97176 -7.47987,-13.48665 -3.91724,-20.46999 3.58733,-7.03175 3.11449,-7.87393 -4,-7.12445 -6.90138,0.72705 -28.2127,6.55693 -55.2,15.10041 -9.973329,3.15731 -30.133328,9.41503 -44.799995,13.90607 -14.666666,4.49103 -30.914834,9.80482 -36.107041,11.80841 -9.794992,3.77973 -14.309712,4.42256 -17.8297483,2.5387 -3.08424347,-1.65065 -2.54443598,-5.45253 2.080467,-14.65282 2.2790218,-4.53365 10.7137543,-22.88299 18.7438483,-40.77632 23.446887,-52.24633 45.508031,-93.98053 60.368837,-114.20285 8.678026,-11.80889 25.761622,-28.53299 38.374112,-37.56657 12.59742,-9.02279 32.84425,-19.11968 44.76952,-22.3261 7.57243,-2.03604 11.61567,-2.42529 24.53334,-2.36182 22.47354,0.11041 39.70486,4.64715 67.18162,17.6879 7.32322,3.47567 14.28322,6.18066 15.46666,6.01109 1.33589,-0.19142 7.33186,-6.98133 15.81428,-17.90832 29.1458,-37.54536 66.67581,-76.26288 109.68629,-113.15696 23.12675,-19.83795 34.97557,-28.936204 54.78447,-42.066891 30.16552,-19.995746 56.30529,-34.181451 81.56513,-44.264296 10.4025,-4.152313 14.83047,-4.486231 18.96142,-1.429903 1.61707,1.196399 15.88181,15.812399 31.69944,32.479999 15.81764,16.667598 41.04992,42.784721 56.07176,58.038061 32.15929,32.65489 46.58016,48.47861 47.49211,52.11215 0.94107,3.74952 -6.53872,21.05166 -24.04529,55.62118 -23.35958,46.12726 -46.47509,84.64716 -61.76951,102.93333 -13.22917,15.81692 -38.15701,42.16088 -50.67836,53.55732 -14.29482,13.01061 -43.15191,36.66571 -64.0967,52.54218 -7.62666,5.78112 -14.53435,11.11857 -15.35041,11.86099 -1.25383,1.14069 -0.79636,2.9172 2.95221,11.46456 7.27605,16.59052 8.88203,24.33667 8.88222,42.84161 2.5e-4,23.77458 -4.24472,48.65413 -11.19272,65.6 -7.71138,18.8077 -18.92327,34.25971 -40.7033,56.09651 -16.41902,16.4618 -29.32911,26.90573 -45.388,36.71769 -11.14862,6.81179 -46.71785,24.32381 -66.13333,32.55985 -11.93865,5.06436 -48.6573,19.70236 -49.38789,19.68862 -0.11666,-0.002 -1.74771,-0.94029 -3.62456,-2.08468 z M 115.2,392.45525 c 36.57039,-1.26309 72.82617,-3.34807 110.39999,-6.34881 157.42959,-12.57271 264.98705,-34.27469 360.53333,-72.74519 23.69822,-9.54179 23.3184,-9.29567 29.75115,-19.27846 14.3064,-22.20167 44.93103,-79.75824 56.15226,-105.5337 l 4.52073,-10.38423 -8.40424,-9.3491 c -4.62233,-5.142 -21.14262,-22.3091 -36.71175,-38.1491 -15.56914,-15.84 -40.46607,-41.639995 -55.32652,-57.333328 -14.86046,-15.693333 -27.64302,-28.533333 -28.40571,-28.533333 -2.42351,0 -26.1868,10.547291 -38.90925,17.2698 -27.02629,14.280625 -56.63339,33.548378 -78.4,51.021291 -30.35514,24.36724 -63.81412,55.32654 -89.89129,83.17557 -16.85445,17.99966 -23.80393,26.24542 -48.75539,57.84968 -6.36123,8.05732 -12.33999,14.89537 -13.28613,15.19566 -0.94614,0.30029 -9.80987,-3.52792 -19.69719,-8.50714 -28.16912,-14.18589 -45.41078,-19.09163 -67.30333,-19.14969 -17.02101,-0.0451 -25.7202,2.15691 -41.92234,10.61192 -14.71919,7.68114 -26.15067,16.05999 -38.56432,28.26624 -11.775195,11.57844 -17.636263,18.9645 -26.328962,33.17947 -7.938024,12.98087 -39.851039,76.08491 -39.851039,78.8005 0,2.3376 1.064474,2.33673 70.400001,-0.058 z M 493.86666,268.18247 c -19.34878,-5.09157 -35.16832,-19.87838 -40.67997,-38.02428 -1.8688,-6.1526 -2.17325,-9.31789 -1.76948,-18.39651 0.4381,-9.85061 0.87921,-11.78976 4.33917,-19.07548 2.11833,-4.46059 6.05953,-10.47073 8.75823,-13.35585 5.81179,-6.21327 16.74895,-12.24799 26.26203,-14.49042 8.45471,-1.99295 22.14686,-2.08095 29.22335,-0.18783 18.25078,4.88251 31.52039,19.22332 36.21423,39.13764 6.827,28.96462 -10.09424,58.77361 -36.8668,64.94568 -6.60768,1.52332 -18.57776,1.26355 -25.48076,-0.55295 z m 45.70527,-34.97736 c 1.25062,-2.60932 1.23102,-3.25929 -0.1396,-4.62992 -3.60929,-3.60929 -9.33862,2.72131 -6.04955,6.6844 1.93048,2.32608 4.49811,1.47376 6.18915,-2.05448 z m 2.89102,-11.7429 c 1.1735,-4.67555 0.13429,-8.63411 -2.35997,-8.98957 -4.18123,-0.59589 -7.52327,7.14708 -4.42299,10.24735 2.24943,2.24943 6.08103,1.53893 6.78296,-1.25778 z m -1.7633,-12.80797 c 0.94195,-1.13499 0.72218,-2.82976 -0.9446,-7.28464 -4.14231,-11.0713 -15.30293,-20.61156 -21.0494,-17.99328 -3.99512,1.82029 -2.8229,5.41991 2.76738,8.49797 2.57018,1.41516 5.45018,3.98639 6.4,5.71384 6.73947,12.25713 9.7107,14.82055 12.82662,11.06611 z M 34.844444,706.48887 c -1.126839,-1.12684 -0.802518,-7.57253 0.903452,-17.95555 2.372468,-14.43951 2.018651,-21.80207 -1.769751,-36.82676 -5.573706,-22.10516 -4.541954,-36.85114 3.850822,-55.03659 4.825735,-10.45639 11.325453,-19.79473 20.139764,-28.93539 4.100809,-4.25263 7.157131,-8.03096 6.791825,-8.39626 -1.077391,-1.07738 -9.251225,4.31043 -17.626689,11.61873 -11.761833,10.26318 -23.42507,16.8494 -27.243239,15.38423 -2.768833,-1.0625 -2.076835,-3.86237 2.096222,-8.48144 6.139127,-6.79529 7.795299,-11.81274 8.962711,-27.15298 1.250479,-16.43179 3.051105,-23.8459 8.146068,-33.54163 8.869761,-16.87919 31.333486,-32.98655 65.971031,-47.30381 28.5437,-11.79839 54.3822,-7.03081 77.5309,14.30559 8.49824,7.8329 16.3577,17.7336 31.17981,39.27768 6.88656,10.0097 16.30718,21.58121 27.6658,33.98241 9.47292,10.3424 17.80648,19.83228 18.51902,21.08863 2.37815,4.19308 1.24553,20.79935 -2.41108,35.35092 -3.77037,15.00429 -12.54842,28.08294 -21.94964,32.70335 -1.98081,0.97351 -9.60148,4.65019 -16.93481,8.17039 -15.44588,7.41445 -20.65417,12.02937 -29.25639,25.92312 -6.03258,9.74346 -8.16669,11.67512 -10.95536,9.91607 -2.78176,-1.75469 -3.69886,-6.55068 -3.05722,-15.98786 0.67922,-9.99 2.59218,-15.94945 10.07664,-31.39173 2.98558,-6.16 5.43523,-11.8 5.44366,-12.53334 0.025,-2.17214 -1.52031,-1.54303 -4.85176,1.97523 -5.24147,5.53537 -15.21006,12.0186 -30.3329,19.72744 -18.69825,9.53141 -22.12498,12.91758 -31.28541,30.91512 -10.42589,20.4838 -15.09855,25.89471 -18.58006,21.51554 -1.9859,-2.49794 -3.64717,-61.95097 -2.01567,-72.1364 1.16604,-7.27963 -0.0164,-6.6494 -5.276844,2.81257 -11.040297,19.85805 -21.86296,33.52563 -37.391878,47.22094 -5.949091,5.24664 -13.384153,12.90615 -16.522361,17.02112 -5.211993,6.83423 -7.899496,8.68783 -9.816663,6.77066 z M 667.62908,133.09354 C 575.50733,36.790753 570.66665,31.567706 570.66665,28.47183 c 0,-1.374978 1.1005,-3.533827 2.44556,-4.797442 2.23679,-2.101357 8.01508,-2.936736 67.689,-9.785935 35.88391,-4.1186493 67.41233,-7.4884531 70.06319,-7.4884531 3.94698,0 5.132,0.476567 6.54416,2.6318081 1.62605,2.481654 1.13546,6.574308 -8.59884,71.733331 -10.90339,72.984741 -11.14884,74.080031 -16.75279,74.756701 -2.24092,0.27058 -6.1312,-3.30125 -24.42785,-22.4283 z"
       id="path829"
       inkscape:connector-curvature="0" />
    <path
       style="fill:#f85514;stroke-width:1.0666666"
       d="m 270.18754,714.71131 c -5.28836,-3.22451 -6.2312,-8.40531 -3.64448,-20.0258 1.14499,-5.1437 3.35592,-15.59219 4.91318,-23.21886 4.69335,-22.98566 10.92664,-48.55197 19.28488,-79.09831 7.68627,-28.09051 9.1208,-35.56835 6.82342,-35.56835 -0.60618,0 -3.60618,1.28193 -6.66667,2.84873 -6.42432,3.28891 -13.48017,3.74295 -18.36454,1.18175 -3.94279,-2.06746 -39.29309,-37.73503 -61.454,-62.00555 -9.02697,-9.8863 -19.87084,-21.75724 -24.0975,-26.3799 -8.14557,-8.90872 -12.24424,-14.22043 -21.99793,-28.50837 -6.80724,-9.97176 -7.47987,-13.48665 -3.91724,-20.46999 3.58733,-7.03175 3.11449,-7.87393 -4,-7.12445 -6.90138,0.72705 -28.2127,6.55693 -55.2,15.10041 -9.973329,3.15731 -30.133328,9.41503 -44.799995,13.90607 -14.666666,4.49103 -30.914834,9.80482 -36.107041,11.80841 -9.794992,3.77973 -14.309712,4.42256 -17.8297483,2.5387 -3.08424347,-1.65065 -2.54443598,-5.45253 2.080467,-14.65282 2.2790218,-4.53365 10.7137543,-22.88299 18.7438483,-40.77632 23.446887,-52.24633 45.508031,-93.98053 60.368837,-114.20285 8.678026,-11.80889 25.761622,-28.53299 38.374112,-37.56657 12.59742,-9.02279 32.84425,-19.11968 44.76952,-22.3261 7.57243,-2.03604 11.61567,-2.42529 24.53334,-2.36182 22.47354,0.11041 39.70486,4.64715 67.18162,17.6879 7.32322,3.47567 14.28322,6.18066 15.46666,6.01109 1.33589,-0.19142 7.33186,-6.98133 15.81428,-17.90832 29.1458,-37.54536 66.67581,-76.26288 109.68629,-113.15696 23.12675,-19.83795 34.97557,-28.936204 54.78447,-42.066891 30.16552,-19.995746 56.30529,-34.181451 81.56513,-44.264296 10.4025,-4.152313 14.83047,-4.486231 18.96142,-1.429903 1.61707,1.196399 15.88181,15.812399 31.69944,32.479999 15.81764,16.667598 41.04992,42.784721 56.07176,58.038061 32.15929,32.65489 46.58016,48.47861 47.49211,52.11215 0.94107,3.74952 -6.53872,21.05166 -24.04529,55.62118 -23.35958,46.12726 -46.47509,84.64716 -61.76951,102.93333 -13.22917,15.81692 -38.15701,42.16088 -50.67836,53.55732 -14.29482,13.01061 -43.15191,36.66571 -64.0967,52.54218 -7.62666,5.78112 -14.53435,11.11857 -15.35041,11.86099 -1.25383,1.14069 -0.79636,2.9172 2.95221,11.46456 7.27605,16.59052 8.88203,24.33667 8.88222,42.84161 2.5e-4,23.77458 -4.24472,48.65413 -11.19272,65.6 -7.71138,18.8077 -18.92327,34.25971 -40.7033,56.09651 -16.41902,16.4618 -29.32911,26.90573 -45.388,36.71769 -11.14862,6.81179 -46.71785,24.32381 -66.13333,32.55985 -11.93865,5.06436 -48.6573,19.70236 -49.38789,19.68862 -0.11666,-0.002 -1.74771,-0.94029 -3.62456,-2.08468 z M 115.2,392.45525 c 36.57039,-1.26309 72.82617,-3.34807 110.39999,-6.34881 157.42959,-12.57271 264.98705,-34.27469 360.53333,-72.74519 23.69822,-9.54179 23.3184,-9.29567 29.75115,-19.27846 14.3064,-22.20167 44.93103,-79.75824 56.15226,-105.5337 l 4.52073,-10.38423 -8.40424,-9.3491 c -4.62233,-5.142 -21.14262,-22.3091 -36.71175,-38.1491 -15.56914,-15.84 -40.46607,-41.639995 -55.32652,-57.333328 -14.86046,-15.693333 -27.64302,-28.533333 -28.40571,-28.533333 -2.42351,0 -26.1868,10.547291 -38.90925,17.2698 -27.02629,14.280625 -56.63339,33.548378 -78.4,51.021291 -30.35514,24.36724 -63.81412,55.32654 -89.89129,83.17557 -16.85445,17.99966 -23.80393,26.24542 -48.75539,57.84968 -6.36123,8.05732 -12.33999,14.89537 -13.28613,15.19566 -0.94614,0.30029 -9.80987,-3.52792 -19.69719,-8.50714 -28.16912,-14.18589 -45.41078,-19.09163 -67.30333,-19.14969 -17.02101,-0.0451 -25.7202,2.15691 -41.92234,10.61192 -14.71919,7.68114 -26.15067,16.05999 -38.56432,28.26624 -11.775195,11.57844 -17.636263,18.9645 -26.328962,33.17947 -7.938024,12.98087 -39.851039,76.08491 -39.851039,78.8005 0,2.3376 1.064474,2.33673 70.400001,-0.058 z M 493.86666,268.18247 c -19.34878,-5.09157 -35.16832,-19.87838 -40.67997,-38.02428 -1.8688,-6.1526 -2.17325,-9.31789 -1.76948,-18.39651 0.4381,-9.85061 0.87921,-11.78976 4.33917,-19.07548 2.11833,-4.46059 6.05953,-10.47073 8.75823,-13.35585 5.81179,-6.21327 16.74895,-12.24799 26.26203,-14.49042 8.45471,-1.99295 22.14686,-2.08095 29.22335,-0.18783 18.25078,4.88251 31.52039,19.22332 36.21423,39.13764 6.827,28.96462 -10.09424,58.77361 -36.8668,64.94568 -6.60768,1.52332 -18.57776,1.26355 -25.48076,-0.55295 z m 28.15859,-17.35811 c 17.57628,-7.77483 25.43776,-29.56109 17.81901,-49.38126 -3.38263,-8.79995 -9.14003,-14.76495 -18.42959,-19.09419 -6.95717,-3.24225 -8.80958,-3.64281 -16.88135,-3.65041 -7.94895,-0.007 -9.93762,0.4027 -16.1316,3.32723 -8.82134,4.16507 -15.19541,9.84925 -18.88377,16.83991 -2.53838,4.81106 -2.84965,6.56616 -2.84965,16.06769 0,9.47976 0.31446,11.26246 2.82606,16.02112 3.28242,6.21912 11.47834,14.26592 17.83156,17.50708 10.82904,5.52457 25.32085,6.51137 34.69933,2.36283 z M 34.844444,706.48887 c -1.126839,-1.12684 -0.802518,-7.57253 0.903452,-17.95555 2.372468,-14.43951 2.018651,-21.80207 -1.769751,-36.82676 -5.573706,-22.10516 -4.541954,-36.85114 3.850822,-55.03659 4.825735,-10.45639 11.325453,-19.79473 20.139764,-28.93539 4.100809,-4.25263 7.157131,-8.03096 6.791825,-8.39626 -1.077391,-1.07738 -9.251225,4.31043 -17.626689,11.61873 -11.761833,10.26318 -23.42507,16.8494 -27.243239,15.38423 -2.768833,-1.0625 -2.076835,-3.86237 2.096222,-8.48144 6.139127,-6.79529 7.795299,-11.81274 8.962711,-27.15298 1.250479,-16.43179 3.051105,-23.8459 8.146068,-33.54163 8.869761,-16.87919 31.333486,-32.98655 65.971031,-47.30381 28.5437,-11.79839 54.3822,-7.03081 77.5309,14.30559 8.49824,7.8329 16.3577,17.7336 31.17981,39.27768 6.88656,10.0097 16.30718,21.58121 27.6658,33.98241 9.47292,10.3424 17.80648,19.83228 18.51902,21.08863 2.37815,4.19308 1.24553,20.79935 -2.41108,35.35092 -3.77037,15.00429 -12.54842,28.08294 -21.94964,32.70335 -1.98081,0.97351 -9.60148,4.65019 -16.93481,8.17039 -15.44588,7.41445 -20.65417,12.02937 -29.25639,25.92312 -6.03258,9.74346 -8.16669,11.67512 -10.95536,9.91607 -2.78176,-1.75469 -3.69886,-6.55068 -3.05722,-15.98786 0.67922,-9.99 2.59218,-15.94945 10.07664,-31.39173 2.98558,-6.16 5.43523,-11.8 5.44366,-12.53334 0.025,-2.17214 -1.52031,-1.54303 -4.85176,1.97523 -5.24147,5.53537 -15.21006,12.0186 -30.3329,19.72744 -18.69825,9.53141 -22.12498,12.91758 -31.28541,30.91512 -10.42589,20.4838 -15.09855,25.89471 -18.58006,21.51554 -1.9859,-2.49794 -3.64717,-61.95097 -2.01567,-72.1364 1.16604,-7.27963 -0.0164,-6.6494 -5.276844,2.81257 -11.040297,19.85805 -21.86296,33.52563 -37.391878,47.22094 -5.949091,5.24664 -13.384153,12.90615 -16.522361,17.02112 -5.211993,6.83423 -7.899496,8.68783 -9.816663,6.77066 z M 667.62908,133.09354 C 575.50733,36.790753 570.66665,31.567706 570.66665,28.47183 c 0,-1.374978 1.1005,-3.533827 2.44556,-4.797442 2.23679,-2.101357 8.01508,-2.936736 67.689,-9.785935 35.88391,-4.1186493 67.41233,-7.4884531 70.06319,-7.4884531 3.94698,0 5.132,0.476567 6.54416,2.6318081 1.62605,2.481654 1.13546,6.574308 -8.59884,71.733331 -10.90339,72.984741 -11.14884,74.080031 -16.75279,74.756701 -2.24092,0.27058 -6.1312,-3.30125 -24.42785,-22.4283 z"
       id="path827"
       inkscape:connector-curvature="0" />
    <path
       style="fill:#757575;stroke-width:1.0666666"
       d="m 270.18754,714.71131 c -5.28836,-3.22451 -6.2312,-8.40531 -3.64448,-20.0258 1.14499,-5.1437 3.35592,-15.59219 4.91318,-23.21886 4.69335,-22.98566 10.92664,-48.55197 19.28488,-79.09831 7.68627,-28.09051 9.1208,-35.56835 6.82342,-35.56835 -0.60618,0 -3.60618,1.28193 -6.66667,2.84873 -6.42432,3.28891 -13.48017,3.74295 -18.36454,1.18175 -3.94279,-2.06746 -39.29309,-37.73503 -61.454,-62.00555 -9.02697,-9.8863 -19.87084,-21.75724 -24.0975,-26.3799 -8.14557,-8.90872 -12.24424,-14.22043 -21.99793,-28.50837 -6.80724,-9.97176 -7.47987,-13.48665 -3.91724,-20.46999 3.58733,-7.03175 3.11449,-7.87393 -4,-7.12445 -6.90138,0.72705 -28.2127,6.55693 -55.2,15.10041 -9.973329,3.15731 -30.133328,9.41503 -44.799995,13.90607 -14.666666,4.49103 -30.914834,9.80482 -36.107041,11.80841 -9.794992,3.77973 -14.309712,4.42256 -17.8297483,2.5387 -3.08424347,-1.65065 -2.54443598,-5.45253 2.080467,-14.65282 2.2790218,-4.53365 10.7137543,-22.88299 18.7438483,-40.77632 23.446887,-52.24633 45.508031,-93.98053 60.368837,-114.20285 8.678026,-11.80889 25.761622,-28.53299 38.374112,-37.56657 12.59742,-9.02279 32.84425,-19.11968 44.76952,-22.3261 7.57243,-2.03604 11.61567,-2.42529 24.53334,-2.36182 22.47354,0.11041 39.70486,4.64715 67.18162,17.6879 7.32322,3.47567 14.28322,6.18066 15.46666,6.01109 1.33589,-0.19142 7.33186,-6.98133 15.81428,-17.90832 29.1458,-37.54536 66.67581,-76.26288 109.68629,-113.15696 23.12675,-19.83795 34.97557,-28.936204 54.78447,-42.066891 30.16552,-19.995746 56.30529,-34.181451 81.56513,-44.264296 10.4025,-4.152313 14.83047,-4.486231 18.96142,-1.429903 1.61707,1.196399 15.88181,15.812399 31.69944,32.479999 15.81764,16.667598 41.04992,42.784721 56.07176,58.038061 32.15929,32.65489 46.58016,48.47861 47.49211,52.11215 0.94107,3.74952 -6.53872,21.05166 -24.04529,55.62118 -23.35958,46.12726 -46.47509,84.64716 -61.76951,102.93333 -13.22917,15.81692 -38.15701,42.16088 -50.67836,53.55732 -14.29482,13.01061 -43.15191,36.66571 -64.0967,52.54218 -7.62666,5.78112 -14.53435,11.11857 -15.35041,11.86099 -1.25383,1.14069 -0.79636,2.9172 2.95221,11.46456 7.27605,16.59052 8.88203,24.33667 8.88222,42.84161 2.5e-4,23.77458 -4.24472,48.65413 -11.19272,65.6 -7.71138,18.8077 -18.92327,34.25971 -40.7033,56.09651 -16.41902,16.4618 -29.32911,26.90573 -45.388,36.71769 -11.14862,6.81179 -46.71785,24.32381 -66.13333,32.55985 -11.93865,5.06436 -48.6573,19.70236 -49.38789,19.68862 -0.11666,-0.002 -1.74771,-0.94029 -3.62456,-2.08468 z M 115.2,392.45525 c 36.57039,-1.26309 72.82617,-3.34807 110.39999,-6.34881 157.42959,-12.57271 264.98705,-34.27469 360.53333,-72.74519 23.69822,-9.54179 23.3184,-9.29567 29.75115,-19.27846 14.3064,-22.20167 44.93103,-79.75824 56.15226,-105.5337 l 4.52073,-10.38423 -8.40424,-9.3491 c -4.62233,-5.142 -21.14262,-22.3091 -36.71175,-38.1491 -15.56914,-15.84 -40.46607,-41.639995 -55.32652,-57.333328 -14.86046,-15.693333 -27.64302,-28.533333 -28.40571,-28.533333 -2.42351,0 -26.1868,10.547291 -38.90925,17.2698 -27.02629,14.280625 -56.63339,33.548378 -78.4,51.021291 -30.35514,24.36724 -63.81412,55.32654 -89.89129,83.17557 -16.85445,17.99966 -23.80393,26.24542 -48.75539,57.84968 -6.36123,8.05732 -12.33999,14.89537 -13.28613,15.19566 -0.94614,0.30029 -9.80987,-3.52792 -19.69719,-8.50714 -28.16912,-14.18589 -45.41078,-19.09163 -67.30333,-19.14969 -17.02101,-0.0451 -25.7202,2.15691 -41.92234,10.61192 -14.71919,7.68114 -26.15067,16.05999 -38.56432,28.26624 -11.775195,11.57844 -17.636263,18.9645 -26.328962,33.17947 -7.938024,12.98087 -39.851039,76.08491 -39.851039,78.8005 0,2.3376 1.064474,2.33673 70.400001,-0.058 z M 493.86666,268.18247 c -19.34878,-5.09157 -35.16832,-19.87838 -40.67997,-38.02428 -1.8688,-6.1526 -2.17325,-9.31789 -1.76948,-18.39651 0.4381,-9.85061 0.87921,-11.78976 4.33917,-19.07548 2.11833,-4.46059 6.05953,-10.47073 8.75823,-13.35585 5.81179,-6.21327 16.74895,-12.24799 26.26203,-14.49042 8.45471,-1.99295 22.14686,-2.08095 29.22335,-0.18783 18.25078,4.88251 31.52039,19.22332 36.21423,39.13764 6.827,28.96462 -10.09424,58.77361 -36.8668,64.94568 -6.60768,1.52332 -18.57776,1.26355 -25.48076,-0.55295 z m 28.15859,-17.35811 c 17.57628,-7.77483 25.43776,-29.56109 17.81901,-49.38126 -3.38263,-8.79995 -9.14003,-14.76495 -18.42959,-19.09419 -6.95717,-3.24225 -8.80958,-3.64281 -16.88135,-3.65041 -7.94895,-0.007 -9.93762,0.4027 -16.1316,3.32723 -8.82134,4.16507 -15.19541,9.84925 -18.88377,16.83991 -2.53838,4.81106 -2.84965,6.56616 -2.84965,16.06769 0,9.47976 0.31446,11.26246 2.82606,16.02112 3.28242,6.21912 11.47834,14.26592 17.83156,17.50708 10.82904,5.52457 25.32085,6.51137 34.69933,2.36283 z M 34.844444,706.48887 c -1.126839,-1.12684 -0.802518,-7.57253 0.903452,-17.95555 2.372468,-14.43951 2.018651,-21.80207 -1.769751,-36.82676 -5.573706,-22.10516 -4.541954,-36.85114 3.850822,-55.03659 4.825735,-10.45639 11.325453,-19.79473 20.139764,-28.93539 4.100809,-4.25263 7.157131,-8.03096 6.791825,-8.39626 -1.077391,-1.07738 -9.251225,4.31043 -17.626689,11.61873 -11.761833,10.26318 -23.42507,16.8494 -27.243239,15.38423 -2.768833,-1.0625 -2.076835,-3.86237 2.096222,-8.48144 6.139127,-6.79529 7.795299,-11.81274 8.962711,-27.15298 1.250479,-16.43179 3.051105,-23.8459 8.146068,-33.54163 8.869761,-16.87919 31.333486,-32.98655 65.971031,-47.30381 28.5437,-11.79839 54.3822,-7.03081 77.5309,14.30559 8.49824,7.8329 16.3577,17.7336 31.17981,39.27768 6.88656,10.0097 16.30718,21.58121 27.6658,33.98241 9.47292,10.3424 17.80648,19.83228 18.51902,21.08863 2.37815,4.19308 1.24553,20.79935 -2.41108,35.35092 -3.77037,15.00429 -12.54842,28.08294 -21.94964,32.70335 -1.98081,0.97351 -9.60148,4.65019 -16.93481,8.17039 -15.44588,7.41445 -20.65417,12.02937 -29.25639,25.92312 -6.03258,9.74346 -8.16669,11.67512 -10.95536,9.91607 -2.78176,-1.75469 -3.69886,-6.55068 -3.05722,-15.98786 0.67922,-9.99 2.59218,-15.94945 10.07664,-31.39173 2.98558,-6.16 5.43523,-11.8 5.44366,-12.53334 0.025,-2.17214 -1.52031,-1.54303 -4.85176,1.97523 -5.24147,5.53537 -15.21006,12.0186 -30.3329,19.72744 -18.69825,9.53141 -22.12498,12.91758 -31.28541,30.91512 -10.42589,20.4838 -15.09855,25.89471 -18.58006,21.51554 -1.9859,-2.49794 -3.64717,-61.95097 -2.01567,-72.1364 1.16604,-7.27963 -0.0164,-6.6494 -5.276844,2.81257 -11.040297,19.85805 -21.86296,33.52563 -37.391878,47.22094 -5.949091,5.24664 -13.384153,12.90615 -16.522361,17.02112 -5.211993,6.83423 -7.899496,8.68783 -9.816663,6.77066 z m 30.723472,-55.53679 c 7.146717,-9.10565 10.493713,-16.11629 16.519936,-34.60272 6.075474,-18.63752 10.470305,-26.40083 22.830618,-40.32941 4.25964,-4.80009 7.08153,-8.93454 7.08153,-10.3754 0,-5.02171 -11.00762,-8.25137 -15.520224,-4.55365 -1.057659,0.86667 -4.838288,5.47605 -8.401397,10.24309 -3.563109,4.76704 -10.75359,13.40704 -15.978847,19.2 -10.673612,11.83327 -15.359773,20.37245 -16.327927,29.75296 -0.668532,6.47745 2.766847,36.7797 4.16973,36.7797 0.455108,0 2.98707,-2.75155 5.626581,-6.11457 z M 143.7492,625.71439 c 1.91539,-0.98208 7.67539,-3.25453 12.8,-5.04989 13.45812,-4.71492 21.43348,-11.47038 29.64938,-25.11422 5.97714,-9.92604 4.89343,-13.37566 -5.72995,-18.2392 -4.73375,-2.16719 -6.9462,-2.53877 -13.05926,-2.19335 -6.68397,0.37767 -7.71346,0.75569 -11.20879,4.11573 -2.11685,2.03492 -4.99349,5.63731 -6.39252,8.00531 -5.25154,8.88879 -18.60806,41.07636 -18.60806,44.84317 0,1.21733 1.12793,0.84891 4.53333,-1.48071 2.49333,-1.70568 6.10048,-3.90476 8.01587,-4.88684 z m 83.85237,-1.58582 c 6.9471,-6.32898 10.28583,-19.30785 6.05515,-23.53853 -2.68912,-2.68912 -8.12924,-5.49532 -8.98816,-4.6364 -0.36771,0.36771 -0.69623,4.06856 -0.73006,8.22413 -0.0531,6.53014 -1.41508,13.34297 -4.81151,24.06863 l -0.83802,2.64642 3.12218,-1.9845 c 1.7172,-1.09148 4.50289,-3.24236 6.19042,-4.77975 z M 61.941985,536.47396 c 2.681426,-1.05592 8.921426,-2.47203 13.866666,-3.1469 10.320431,-1.40841 14.95543,-3.79677 17.411121,-8.97175 2.861756,-6.03071 2.256507,-10.95904 -1.850233,-15.06579 -6.923141,-6.92313 -14.592006,-6.32116 -22.202026,1.74278 -4.504991,4.77369 -13.352951,20.07733 -15.299507,26.46238 -0.674189,2.21145 -0.509044,2.44781 1.2089,1.73025 1.094367,-0.4571 4.183653,-1.69504 6.865079,-2.75097 z M 667.62908,133.09354 C 575.50733,36.790753 570.66665,31.567706 570.66665,28.47183 c 0,-1.374978 1.1005,-3.533827 2.44556,-4.797442 2.23679,-2.101357 8.01508,-2.936736 67.689,-9.785935 35.88391,-4.1186493 67.41233,-7.4884531 70.06319,-7.4884531 3.94698,0 5.132,0.476567 6.54416,2.6318081 1.62605,2.481654 1.13546,6.574308 -8.59884,71.733331 -10.90339,72.984741 -11.14884,74.080031 -16.75279,74.756701 -2.24092,0.27058 -6.1312,-3.30125 -24.42785,-22.4283 z"
       id="path825"
       inkscape:connector-curvature="0" />
    <path
       style="fill:#e41b11;stroke-width:1.0666666"
       d="m 269.47718,712.4559 c -2.42908,-1.91071 -2.81052,-3.00891 -2.81052,-8.0916 0,-3.23445 0.71249,-8.83961 1.58332,-12.45591 0.87082,-3.61629 2.56997,-11.37507 3.77588,-17.24174 4.58465,-22.30399 11.04183,-49.09261 19.15483,-79.46666 10.28873,-38.51983 10.12316,-37.72062 8.15307,-39.35565 -1.25779,-1.04387 -2.81528,-0.66244 -8.017,1.96337 -6.97351,3.52022 -14.71904,4.29375 -18.90312,1.88781 -2.81752,-1.62013 -46.67416,-46.48702 -60.17602,-61.5622 -5.51711,-6.16 -14.78781,-16.2236 -20.60154,-22.36357 -5.81374,-6.13996 -15.3102,-17.83182 -21.10325,-25.9819 -11.84208,-16.66029 -12.37323,-18.48033 -7.86665,-26.95604 2.15258,-4.04845 2.41456,-5.31759 1.35998,-6.58828 -2.83777,-3.41929 -21.18266,0.81453 -67.905156,15.67186 -10.919887,3.47243 -30.414339,9.53072 -43.321005,13.46287 -12.906667,3.93216 -26.94368,8.5245 -31.193362,10.20522 -11.038879,4.36578 -15.1442875,4.85152 -18.2455269,2.15874 -1.3780561,-1.19656 -2.3380561,-2.55806 -2.1333333,-3.02556 0.2047227,-0.46751 2.1322681,-3.97 4.2834342,-7.78334 2.151166,-3.81333 9.999344,-20.61333 17.440397,-37.33333 22.126957,-49.71913 44.245188,-92.66596 58.505624,-113.6 C 89.106655,284.7708 110.05175,263.2468 121.6,254.74772 c 15.78651,-11.61829 33.01419,-20.11499 48.67967,-24.00883 4.96434,-1.23396 11.61156,-1.81455 20.65366,-1.80398 22.38633,0.0262 38.8569,4.28522 66.94196,17.3102 8.95141,4.15139 16.96694,7.28256 17.8123,6.95817 0.84535,-0.3244 7.16927,-7.86784 14.05315,-16.76321 34.80839,-44.97954 82.28275,-92.53028 133.72592,-133.94109 30.40444,-24.47502 76.63904,-52.136862 109.93814,-65.775243 13.04377,-5.342365 17.30138,-5.794532 21.88033,-2.323738 3.37305,2.55674 18.39276,18.002346 51.08475,52.533332 11.10846,11.733333 30.80513,32.133329 43.77037,45.333329 29.55217,30.08726 37.70966,38.93308 38.97665,42.26551 1.5068,3.96315 -3.16828,15.08066 -22.59613,53.73449 -26.61617,52.95579 -48.03757,88.03573 -67.72163,110.90174 -14.61051,16.97231 -41.414,44.29492 -54.79915,55.8605 -13.15694,11.36838 -56.41738,45.978 -65.30293,52.24427 -3.39005,2.39073 -6.16374,5.14585 -6.16374,6.12248 0,0.97664 1.91407,5.86021 4.25347,10.85238 7.22285,15.41315 8.02017,19.82163 7.96124,44.01862 -0.0584,23.95429 -2.04575,37.93828 -7.96688,56.05764 -6.65832,20.37528 -20.20896,40.43614 -42.09225,62.31495 -23.35543,23.35064 -38.26649,33.7822 -73.08891,51.13189 -30.44962,15.17102 -82.00358,36.89552 -87.55601,36.89552 -0.96596,0 -3.02102,-0.99484 -4.5668,-2.21075 z m 23.00875,-16.32985 c 48.09301,-18.65826 92.93548,-41.64296 112.31406,-57.5683 25.40343,-20.87658 45.79023,-44.34357 55.73665,-64.15776 8.33657,-16.60723 13.22281,-40.64509 13.44308,-66.13334 0.11538,-13.35006 -0.26322,-18.57653 -1.73856,-23.99999 -2.0816,-7.6521 -9.16155,-23.18817 -12.5029,-27.43599 -1.17604,-1.49511 -2.13827,-3.82654 -2.13827,-5.18096 0,-2.73198 1.73442,-4.28789 19.73333,-17.70232 35.21506,-26.24547 65.21709,-51.7962 86.4,-73.58114 32.87242,-33.80666 47.30229,-52.81349 68.98856,-90.87078 11.21182,-19.67566 33.3214,-62.90197 40.34048,-78.86944 l 5.52734,-12.57397 -5.14598,-6.09269 c -2.83028,-3.35099 -17.89485,-19.05271 -33.4768,-34.89271 -15.58196,-15.84 -40.85795,-41.999996 -56.16887,-58.133328 -15.31093,-16.133333 -29.56433,-30.98292 -31.67423,-32.999081 l -3.8362,-3.66575 -10.41048,4.157917 c -21.5794,8.618751 -54.94907,27.142983 -82.38607,45.734325 -26.52014,17.970067 -60.94162,47.620707 -96.65756,83.260727 -29.72641,29.66322 -39.15422,40.14331 -58.57409,65.11186 -7.75699,9.97333 -16.03522,20.29333 -18.39607,22.93333 l -4.29243,4.8 -12.65213,-6.57554 c -41.87423,-21.76282 -71.9155,-27.28553 -99.58546,-18.30753 -27.88282,9.04706 -58.3539,33.52638 -77.262225,62.06955 -10.340892,15.61016 -34.021376,60.27565 -42.491775,80.14685 -1.500452,3.52 -7.630006,17.57962 -13.621229,31.2436 -5.991225,13.66397 -10.599915,25.13681 -10.241534,25.49518 0.613661,0.61367 14.913633,-3.65667 70.550098,-21.06805 59.496235,-18.61929 71.174305,-20.78341 78.987515,-14.63753 1.57905,1.24208 3.55557,3.89671 4.39225,5.89918 1.33184,3.18755 1.314,4.35376 -0.14328,9.36662 -0.91548,3.14916 -2.13822,6.01851 -2.71717,6.37633 -0.57895,0.35781 -1.05265,1.32216 -1.05265,2.143 0,2.85489 18.13123,26.99999 28.52702,37.98905 5.75423,6.0826 15.21482,16.33929 21.02353,22.79262 15.36894,17.07449 56.86705,59.2 58.31831,59.2 0.68234,0 4.73348,-1.68 9.00254,-3.73334 10.15255,-4.88319 15.35302,-5.00633 19.88838,-0.47098 3.25609,3.25608 3.26119,3.28013 2.65688,12.53333 -0.4453,6.8184 -2.55676,16.32549 -7.9815,35.93765 -7.26572,26.26792 -15.51594,59.73308 -21.16885,85.86667 -3.68134,17.01897 -4.11355,20.26666 -2.69708,20.26666 0.62479,0 6.55731,-2.10326 13.18337,-4.67393 z M 493.86666,266.21146 c -27.31894,-7.5759 -44.67766,-32.80237 -40.51259,-58.87466 4.26173,-26.67738 23.38029,-41.95542 52.54624,-41.99081 20.95398,-0.0254 35.95019,9.12704 44.42513,27.11349 11.60836,24.63659 3.98461,54.57827 -17.54873,68.92116 -8.61186,5.73618 -27.28523,8.05454 -38.91005,4.83082 z m 26.97795,-14.48667 c 16.19688,-6.06003 25.28764,-22.84793 22.4066,-41.37822 -2.21978,-14.27716 -9.6925,-24.52726 -21.21725,-29.10304 -5.09936,-2.02464 -8.33862,-2.50878 -16.98974,-2.53924 -9.94691,-0.035 -11.17904,0.20357 -17.7454,3.43619 -14.56289,7.16929 -21.61624,17.85089 -21.66878,32.81528 -0.0265,7.53604 0.38435,9.39754 3.44694,15.61854 3.67409,7.46313 8.68459,12.73219 16.41595,17.26307 10.28647,6.02828 25.236,7.67219 35.35168,3.88742 z M 35.539267,704.41223 c -0.363243,-0.9466 0.137404,-7.0666 1.11255,-13.6 2.458865,-16.4742 2.236478,-24.81846 -1.013085,-38.01225 -3.946946,-16.02527 -4.7677,-23.75541 -3.500016,-32.96426 2.436964,-17.70288 12.078643,-35.96436 28.01962,-53.06959 7.479074,-8.0253 9.454193,-11.03281 7.245579,-11.03281 -2.069597,0 -13.235935,7.63019 -21.147951,14.45083 -8.899299,7.67173 -22.029866,15.72033 -24.776486,15.18715 -2.62283,-0.50915 -2.581304,-2.78952 0.09738,-5.34729 7.119224,-6.79788 9.783025,-14.60704 10.934695,-32.05602 1.323274,-20.04897 6.229322,-31.96524 18.155118,-44.09688 8.637777,-8.78685 17.474081,-14.73882 34.666665,-23.35082 27.477184,-13.76368 35.335554,-16.03756 52.537644,-15.2021 12.82992,0.62311 21.24443,3.4028 32.66493,10.79069 13.01012,8.4162 22.23924,18.85866 41.14812,46.55777 9.99552,14.64218 13.79064,19.2527 32.40734,39.37027 7.82358,8.45431 14.70931,16.61459 15.30162,18.13394 2.65293,6.80513 -2.17975,35.13179 -8.09006,47.41985 -5.28042,10.97845 -11.16513,16.02835 -26.30255,22.57126 -13.09212,5.65886 -22.20067,11.1709 -27.13372,16.41998 -1.76,1.87274 -5.87163,7.81793 -9.13698,13.21152 -9.08686,15.00938 -12.39844,13.88731 -11.98278,-4.06015 0.23677,-10.22347 1.35678,-13.89279 9.81998,-32.17152 3.57488,-7.721 6.49978,-15.09271 6.49978,-16.38156 0,-2.00468 -0.96355,-1.45089 -6.66666,3.83163 -8.31331,7.7002 -15.72179,12.51475 -32.12895,20.87961 -18.11404,9.2351 -21.81961,13.02681 -32.03696,32.78171 -8.5217,16.47642 -12.05047,21.15265 -15.08381,19.98865 -1.48448,-0.56965 -1.64227,-1.67402 -1.01338,-7.09259 0.44683,-3.84993 -0.0204,-15.18131 -1.16776,-28.31975 -1.67216,-19.14813 -1.73293,-23.06788 -0.48336,-31.17569 2.70325,-17.54001 2.66783,-16.8725 0.81391,-15.33389 -0.91255,0.75736 -4.16178,5.79069 -7.220499,11.1852 -11.338467,19.99703 -17.84969,28.36485 -36.267087,46.6082 -9.772351,9.68 -19.094823,19.4 -20.716607,21.6 -3.221641,4.37026 -4.545358,4.91318 -5.556226,2.27891 z m 30.028649,-53.46015 c 7.146717,-9.10565 10.493713,-16.11629 16.519936,-34.60272 6.075474,-18.63752 10.470305,-26.40083 22.830618,-40.32941 4.25964,-4.80009 7.08153,-8.93454 7.08153,-10.3754 0,-5.02171 -11.00762,-8.25137 -15.520224,-4.55365 -1.057659,0.86667 -4.838288,5.47605 -8.401397,10.24309 -3.563109,4.76704 -10.75359,13.40704 -15.978847,19.2 -10.673612,11.83327 -15.359773,20.37245 -16.327927,29.75296 -0.668532,6.47745 2.766847,36.7797 4.16973,36.7797 0.455108,0 2.98707,-2.75155 5.626581,-6.11457 z M 143.7492,625.71439 c 1.91539,-0.98208 7.67539,-3.25453 12.8,-5.04989 13.45812,-4.71492 21.43348,-11.47038 29.64938,-25.11422 5.97714,-9.92604 4.89343,-13.37566 -5.72995,-18.2392 -4.73375,-2.16719 -6.9462,-2.53877 -13.05926,-2.19335 -6.68397,0.37767 -7.71346,0.75569 -11.20879,4.11573 -2.11685,2.03492 -4.99349,5.63731 -6.39252,8.00531 -5.25154,8.88879 -18.60806,41.07636 -18.60806,44.84317 0,1.21733 1.12793,0.84891 4.53333,-1.48071 2.49333,-1.70568 6.10048,-3.90476 8.01587,-4.88684 z m 83.85237,-1.58582 c 6.9471,-6.32898 10.28583,-19.30785 6.05515,-23.53853 -2.68912,-2.68912 -8.12924,-5.49532 -8.98816,-4.6364 -0.36771,0.36771 -0.69623,4.06856 -0.73006,8.22413 -0.0531,6.53014 -1.41508,13.34297 -4.81151,24.06863 l -0.83802,2.64642 3.12218,-1.9845 c 1.7172,-1.09148 4.50289,-3.24236 6.19042,-4.77975 z M 61.941985,536.47396 c 2.681426,-1.05592 8.921426,-2.47203 13.866666,-3.1469 10.320431,-1.40841 14.95543,-3.79677 17.411121,-8.97175 2.861756,-6.03071 2.256507,-10.95904 -1.850233,-15.06579 -6.923141,-6.92313 -14.592006,-6.32116 -22.202026,1.74278 -4.504991,4.77369 -13.352951,20.07733 -15.299507,26.46238 -0.674189,2.21145 -0.509044,2.44781 1.2089,1.73025 1.094367,-0.4571 4.183653,-1.69504 6.865079,-2.75097 z M 685.40948,150.13333 C 681.45749,146.23832 666.05158,130.0006 631.51113,93.324876 627.08667,88.626891 612.15366,73.026891 598.32667,58.65821 584.49969,44.289528 572.87316,31.689164 572.48994,30.657403 c -0.97,-2.611534 0.85443,-6.88121 3.2676,-7.647121 2.57991,-0.818831 130.83679,-15.5383535 135.41786,-15.541358 2.39553,-0.00157 3.92085,0.7284591 5.01679,2.4010574 1.42739,2.1784736 0.59325,8.9320776 -8.91598,72.1887716 -10.93084,72.713337 -10.90788,72.607907 -15.80886,72.607907 -0.80201,0 -3.52806,-2.04 -6.05787,-4.53333 z"
       id="path823"
       inkscape:connector-curvature="0" />
    <path
       style="fill:#a00d06;stroke-width:1.0666666"
       d="m 269.47718,712.4559 c -2.42908,-1.91071 -2.81052,-3.00891 -2.81052,-8.0916 0,-3.23445 0.71249,-8.83961 1.58332,-12.45591 0.87082,-3.61629 2.56997,-11.37507 3.77588,-17.24174 4.58465,-22.30399 11.04183,-49.09261 19.15483,-79.46666 10.28873,-38.51983 10.12316,-37.72062 8.15307,-39.35565 -1.25779,-1.04387 -2.81528,-0.66244 -8.017,1.96337 -6.97351,3.52022 -14.71904,4.29375 -18.90312,1.88781 -2.81752,-1.62013 -46.67416,-46.48702 -60.17602,-61.5622 -5.51711,-6.16 -14.78781,-16.2236 -20.60154,-22.36357 -5.81374,-6.13996 -15.3102,-17.83182 -21.10325,-25.9819 -11.84208,-16.66029 -12.37323,-18.48033 -7.86665,-26.95604 2.15258,-4.04845 2.41456,-5.31759 1.35998,-6.58828 -2.83777,-3.41929 -21.18266,0.81453 -67.905156,15.67186 -10.919887,3.47243 -30.414339,9.53072 -43.321005,13.46287 -12.906667,3.93216 -26.94368,8.5245 -31.193362,10.20522 -11.038879,4.36578 -15.1442875,4.85152 -18.2455269,2.15874 -1.3780561,-1.19656 -2.3380561,-2.55806 -2.1333333,-3.02556 0.2047227,-0.46751 2.1322681,-3.97 4.2834342,-7.78334 2.151166,-3.81333 9.999344,-20.61333 17.440397,-37.33333 22.126957,-49.71913 44.245188,-92.66596 58.505624,-113.6 C 89.106655,284.7708 110.05175,263.2468 121.6,254.74772 c 15.78651,-11.61829 33.01419,-20.11499 48.67967,-24.00883 4.96434,-1.23396 11.61156,-1.81455 20.65366,-1.80398 22.38633,0.0262 38.8569,4.28522 66.94196,17.3102 8.95141,4.15139 16.96694,7.28256 17.8123,6.95817 0.84535,-0.3244 7.16927,-7.86784 14.05315,-16.76321 34.80839,-44.97954 82.28275,-92.53028 133.72592,-133.94109 30.40444,-24.47502 76.63904,-52.136862 109.93814,-65.775243 13.04377,-5.342365 17.30138,-5.794532 21.88033,-2.323738 3.37305,2.55674 18.39276,18.002346 51.08475,52.533332 11.10846,11.733333 30.80513,32.133329 43.77037,45.333329 29.55217,30.08726 37.70966,38.93308 38.97665,42.26551 1.5068,3.96315 -3.16828,15.08066 -22.59613,53.73449 -26.61617,52.95579 -48.03757,88.03573 -67.72163,110.90174 -14.61051,16.97231 -41.414,44.29492 -54.79915,55.8605 -13.15694,11.36838 -56.41738,45.978 -65.30293,52.24427 -3.39005,2.39073 -6.16374,5.14585 -6.16374,6.12248 0,0.97664 1.91407,5.86021 4.25347,10.85238 7.22285,15.41315 8.02017,19.82163 7.96124,44.01862 -0.0584,23.95429 -2.04575,37.93828 -7.96688,56.05764 -6.65832,20.37528 -20.20896,40.43614 -42.09225,62.31495 -23.35543,23.35064 -38.26649,33.7822 -73.08891,51.13189 -30.44962,15.17102 -82.00358,36.89552 -87.55601,36.89552 -0.96596,0 -3.02102,-0.99484 -4.5668,-2.21075 z m 23.00875,-16.32985 c 48.09301,-18.65826 92.93548,-41.64296 112.31406,-57.5683 25.40343,-20.87658 45.79023,-44.34357 55.73665,-64.15776 8.33657,-16.60723 13.22281,-40.64509 13.44308,-66.13334 0.11538,-13.35006 -0.26322,-18.57653 -1.73856,-23.99999 -2.0816,-7.6521 -9.16155,-23.18817 -12.5029,-27.43599 -1.17604,-1.49511 -2.13827,-3.82654 -2.13827,-5.18096 0,-2.73198 1.73442,-4.28789 19.73333,-17.70232 35.21506,-26.24547 65.21709,-51.7962 86.4,-73.58114 32.87242,-33.80666 47.30229,-52.81349 68.98856,-90.87078 11.21182,-19.67566 33.3214,-62.90197 40.34048,-78.86944 l 5.52734,-12.57397 -5.14598,-6.09269 c -2.83028,-3.35099 -17.89485,-19.05271 -33.4768,-34.89271 -15.58196,-15.84 -40.85795,-41.999996 -56.16887,-58.133328 -15.31093,-16.133333 -29.56433,-30.98292 -31.67423,-32.999081 l -3.8362,-3.66575 -10.41048,4.157917 c -21.5794,8.618751 -54.94907,27.142983 -82.38607,45.734325 -26.52014,17.970067 -60.94162,47.620707 -96.65756,83.260727 -29.72641,29.66322 -39.15422,40.14331 -58.57409,65.11186 -7.75699,9.97333 -16.03522,20.29333 -18.39607,22.93333 l -4.29243,4.8 -12.65213,-6.57554 c -41.87423,-21.76282 -71.9155,-27.28553 -99.58546,-18.30753 -27.88282,9.04706 -58.3539,33.52638 -77.262225,62.06955 -10.340892,15.61016 -34.021376,60.27565 -42.491775,80.14685 -1.500452,3.52 -7.630006,17.57962 -13.621229,31.2436 -5.991225,13.66397 -10.599915,25.13681 -10.241534,25.49518 0.613661,0.61367 14.913633,-3.65667 70.550098,-21.06805 59.496235,-18.61929 71.174305,-20.78341 78.987515,-14.63753 1.57905,1.24208 3.55557,3.89671 4.39225,5.89918 1.33184,3.18755 1.314,4.35376 -0.14328,9.36662 -0.91548,3.14916 -2.13822,6.01851 -2.71717,6.37633 -0.57895,0.35781 -1.05265,1.32216 -1.05265,2.143 0,2.85489 18.13123,26.99999 28.52702,37.98905 5.75423,6.0826 15.21482,16.33929 21.02353,22.79262 15.36894,17.07449 56.86705,59.2 58.31831,59.2 0.68234,0 4.73348,-1.68 9.00254,-3.73334 10.15255,-4.88319 15.35302,-5.00633 19.88838,-0.47098 3.25609,3.25608 3.26119,3.28013 2.65688,12.53333 -0.4453,6.8184 -2.55676,16.32549 -7.9815,35.93765 -7.26572,26.26792 -15.51594,59.73308 -21.16885,85.86667 -3.68134,17.01897 -4.11355,20.26666 -2.69708,20.26666 0.62479,0 6.55731,-2.10326 13.18337,-4.67393 z M 493.86666,266.21146 c -27.31894,-7.5759 -44.67766,-32.80237 -40.51259,-58.87466 4.26173,-26.67738 23.38029,-41.95542 52.54624,-41.99081 20.95398,-0.0254 35.95019,9.12704 44.42513,27.11349 11.60836,24.63659 3.98461,54.57827 -17.54873,68.92116 -8.61186,5.73618 -27.28523,8.05454 -38.91005,4.83082 z m 26.97795,-14.48667 c 16.19688,-6.06003 25.28764,-22.84793 22.4066,-41.37822 -2.21978,-14.27716 -9.6925,-24.52726 -21.21725,-29.10304 -5.09936,-2.02464 -8.33862,-2.50878 -16.98974,-2.53924 -9.94691,-0.035 -11.17904,0.20357 -17.7454,3.43619 -14.56289,7.16929 -21.61624,17.85089 -21.66878,32.81528 -0.0265,7.53604 0.38435,9.39754 3.44694,15.61854 3.67409,7.46313 8.68459,12.73219 16.41595,17.26307 10.28647,6.02828 25.236,7.67219 35.35168,3.88742 z M 35.539267,704.41223 c -0.363243,-0.9466 0.137404,-7.0666 1.11255,-13.6 2.458865,-16.4742 2.236478,-24.81846 -1.013085,-38.01225 -3.946946,-16.02527 -4.7677,-23.75541 -3.500016,-32.96426 2.436964,-17.70288 12.078643,-35.96436 28.01962,-53.06959 7.479074,-8.0253 9.454193,-11.03281 7.245579,-11.03281 -2.069597,0 -13.235935,7.63019 -21.147951,14.45083 -8.899299,7.67173 -22.029866,15.72033 -24.776486,15.18715 -2.62283,-0.50915 -2.581304,-2.78952 0.09738,-5.34729 7.119224,-6.79788 9.783025,-14.60704 10.934695,-32.05602 1.323274,-20.04897 6.229322,-31.96524 18.155118,-44.09688 8.637777,-8.78685 17.474081,-14.73882 34.666665,-23.35082 27.477184,-13.76368 35.335554,-16.03756 52.537644,-15.2021 12.82992,0.62311 21.24443,3.4028 32.66493,10.79069 13.01012,8.4162 22.23924,18.85866 41.14812,46.55777 9.99552,14.64218 13.79064,19.2527 32.40734,39.37027 7.82358,8.45431 14.70931,16.61459 15.30162,18.13394 2.65293,6.80513 -2.17975,35.13179 -8.09006,47.41985 -5.28042,10.97845 -11.16513,16.02835 -26.30255,22.57126 -13.09212,5.65886 -22.20067,11.1709 -27.13372,16.41998 -1.76,1.87274 -5.87163,7.81793 -9.13698,13.21152 -9.08686,15.00938 -12.39844,13.88731 -11.98278,-4.06015 0.23677,-10.22347 1.35678,-13.89279 9.81998,-32.17152 3.57488,-7.721 6.49978,-15.09271 6.49978,-16.38156 0,-2.00468 -0.96355,-1.45089 -6.66666,3.83163 -8.31331,7.7002 -15.72179,12.51475 -32.12895,20.87961 -18.11404,9.2351 -21.81961,13.02681 -32.03696,32.78171 -8.5217,16.47642 -12.05047,21.15265 -15.08381,19.98865 -1.48448,-0.56965 -1.64227,-1.67402 -1.01338,-7.09259 0.44683,-3.84993 -0.0204,-15.18131 -1.16776,-28.31975 -1.67216,-19.14813 -1.73293,-23.06788 -0.48336,-31.17569 2.70325,-17.54001 2.66783,-16.8725 0.81391,-15.33389 -0.91255,0.75736 -4.16178,5.79069 -7.220499,11.1852 -11.338467,19.99703 -17.84969,28.36485 -36.267087,46.6082 -9.772351,9.68 -19.094823,19.4 -20.716607,21.6 -3.221641,4.37026 -4.545358,4.91318 -5.556226,2.27891 z m 21.883196,-30.52569 c 0.195688,-0.45174 -0.422189,-0.5228 -1.373062,-0.15792 -0.973175,0.37344 -2.643973,-0.16473 -3.822464,-1.23126 -1.784905,-1.61532 -2.09635,-3.32513 -2.112228,-11.59603 -0.01024,-5.33573 -0.728416,-14.02134 -1.59594,-19.30134 -4.088208,-24.882 -0.545706,-36.81981 16.547896,-55.76443 4.986667,-5.52666 11.226667,-12.99174 13.866667,-16.58908 8.431619,-11.48914 14.901433,-17.43161 19.879868,-18.25952 6.44795,-1.07226 12.94752,1.05611 17.68146,5.79004 3.4854,3.48541 4.03867,4.70081 4.03867,8.87204 0,4.01887 -0.67407,5.64407 -4,9.64415 -20.109441,24.18553 -20.22495,24.38195 -27.355648,46.51877 -5.72736,17.78024 -9.417252,24.82874 -19.51401,37.276 -10.489888,12.93192 -11.202584,14.46871 -2.704886,5.83257 9.17333,-9.32279 17.268154,-21.24189 29.602125,-43.58721 5.181169,-9.38667 11.516479,-20.66969 14.078489,-25.07338 5.22627,-8.98316 16.00523,-22.52271 20.02998,-25.15983 3.48411,-2.28286 7.76064,-1.19476 9.09467,2.31402 1.38621,3.64598 -0.15527,6.98349 -9.81578,21.25252 -4.36906,6.45334 -9.50344,15.48882 -11.40971,20.07886 -4.15181,9.99696 -7.54838,24.64481 -7.58743,32.72114 -0.0318,6.57647 2.07167,32.72558 2.83153,35.2 0.28054,0.91353 2.3998,-2.29005 4.93944,-7.46667 6.87025,-14.00379 14.66133,-21.2244 32.74456,-30.34694 24.09871,-12.1572 30.23137,-17.36579 42.24605,-35.88037 7.32063,-11.28106 9.20692,-12.96257 12.95395,-11.54768 1.82218,0.68806 2.3967,1.74917 2.38627,4.40729 -0.0212,5.39798 -8.56034,29.58463 -16.29965,46.16771 -3.83317,8.21333 -7.28054,16.85333 -7.66083,19.19999 l -0.69144,4.26667 2.38145,-3.2 c 6.99265,-9.39618 14.10111,-14.60956 31.32662,-22.97507 10.7,-5.19642 18.36771,-9.63226 20.5054,-11.86254 6.98207,-7.28449 12.17169,-23.17738 13.74863,-42.10425 l 0.72279,-8.6752 -12.69593,-13.7248 c -21.63764,-23.39115 -23.50003,-25.65387 -35.71995,-43.39807 -19.47568,-28.28011 -27.03768,-36.57774 -40.99812,-44.98637 -9.07329,-5.46501 -18.17708,-8.01015 -28.58427,-7.99126 -11.42576,0.0207 -19.57842,2.05176 -33.91522,8.44913 -35.740751,15.94823 -52.853158,30.74641 -58.82284,50.86779 -1.822297,6.14223 -4.724862,33.04758 -3.678115,34.09432 0.372447,0.37245 3.301919,-1.63695 6.509939,-4.46532 8.984412,-7.92119 18.019481,-12.90505 27.028737,-14.90942 9.414635,-2.09456 13.1232,-1.17187 13.1232,3.26503 0,2.03828 -3.342718,6.014 -13.696009,16.28954 -7.532805,7.47623 -15.626356,16.47316 -17.985669,19.99316 -14.432711,21.53302 -17.717828,39.22407 -11.488248,61.86667 2.189141,7.95685 3.065233,13.99247 3.448564,23.75807 l 0.513881,13.09142 5.470407,-5.0708 c 3.008725,-2.78894 5.630517,-5.44039 5.826206,-5.89214 z m 56.355317,-11.131 c -1.35977,-1.35976 -0.67082,-4.11306 6.32737,-25.28655 7.44364,-22.52126 18.53748,-48.88234 23.77596,-56.4962 4.35529,-6.3302 10.82453,-11.93486 15.59212,-13.5083 7.03215,-2.32082 18.71652,-0.88449 26.94532,3.31231 15.33267,7.81986 15.89645,18.4554 1.95569,36.89278 -8.34569,11.03758 -16.72136,17.04476 -29.44091,21.11551 -15.25111,4.88096 -28.43862,14.83648 -33.78187,25.50261 -1.50039,2.99509 -3.46767,6.28562 -4.37172,7.31228 -1.63318,1.85471 -5.64133,2.51619 -7.00196,1.15556 z m 23.57236,-33.03035 c 3.21069,-2.13114 10.46037,-5.52192 16.1104,-7.53508 12.85354,-4.57985 17.7347,-7.41059 23.4271,-13.58613 11.30636,-12.26595 15.75734,-23.35901 11.07338,-27.59793 -3.75364,-3.39701 -11.96167,-6.20788 -18.67211,-6.39433 -8.43988,-0.23451 -12.51426,2.0245 -17.90836,9.92918 -6.28493,9.21012 -22.93646,49.05909 -20.50014,49.05909 0.34766,0 3.25904,-1.74366 6.46973,-3.8748 z m 62.32986,18.5948 c -1.96594,-1.96594 -1.69795,-2.66356 4.5842,-11.93347 7.80003,-11.50972 10.35783,-18.89492 10.93971,-31.58653 0.64683,-14.10807 4.55108,-19.69775 12.38504,-17.73156 5.38082,1.35051 12.90659,7.52202 15.46638,12.68324 2.29706,4.63145 2.40895,5.53402 1.25445,10.11898 -3.50051,13.90176 -11.00352,22.89582 -25.41982,30.47136 -4.19223,2.20296 -9.02676,5.18721 -10.7434,6.63167 -3.40078,2.86157 -6.46418,3.34869 -8.46656,1.34631 z m 27.45017,-24.05334 c 4.95994,-4.866 6.65086,-7.4189 8.1834,-12.35497 1.7325,-5.58008 1.76842,-6.51255 0.3483,-9.04267 -1.65896,-2.95564 -7.85061,-7.66902 -10.07428,-7.66902 -0.88581,0 -1.46765,3.12754 -1.83553,9.86666 -0.35132,6.43546 -1.44929,12.556 -3.1573,17.6 -3.29237,9.72286 -2.05342,10.02618 6.53541,1.6 z M 42.879999,554.45332 c -5.333371,-5.33338 10.313365,-41.34274 22.395828,-51.54172 4.959146,-4.18609 11.320035,-6.86076 16.381404,-6.88819 6.675009,-0.0362 15.022673,4.63862 18.808929,10.53319 2.82484,4.39781 3.11558,5.6404 2.78692,11.91066 -0.31415,5.99334 -0.90697,7.75241 -4.120167,12.22573 -4.831996,6.72699 -10.737142,9.68732 -22.332915,11.19582 -10.115547,1.31595 -17.749355,4.35801 -25.186853,10.03697 -5.380386,4.10822 -6.754706,4.50598 -8.733146,2.52754 z m 17.458964,-16.99521 c 2.828915,-1.25136 9.414552,-2.91324 14.634748,-3.69306 11.81522,-1.765 15.497243,-3.80227 18.773784,-10.38752 2.272353,-4.56701 2.412118,-5.57187 1.294038,-9.30369 -2.485884,-8.29714 -13.403018,-12.15761 -21.103239,-7.46244 -4.893812,2.98398 -11.512103,11.82524 -16.379253,21.88076 -5.964784,12.32322 -5.825474,12.77253 2.779922,8.96595 z m 5.444955,113.47521 c 8.099072,-10.79448 10.336285,-15.35787 15.718531,-32.06212 6.82739,-21.1894 9.84355,-26.70997 22.569971,-41.31054 10.24763,-11.75675 10.76551,-13.83758 4.2172,-16.94495 -7.53465,-3.57542 -11.547749,-1.60141 -19.65186,9.66661 -3.163883,4.3991 -10.259351,12.8852 -15.767708,18.85801 -12.515686,13.57098 -16.44898,20.94976 -17.171878,32.21407 -0.501835,7.81963 2.665563,36.77892 4.022664,36.77892 0.363514,0 3.0919,-3.24 6.06308,-7.2 z M 685.40948,150.13333 C 681.45749,146.23832 666.05158,130.0006 631.51113,93.324876 627.08667,88.626891 612.15366,73.026891 598.32667,58.65821 584.49969,44.289528 572.87316,31.689164 572.48994,30.657403 c -0.97,-2.611534 0.85443,-6.88121 3.2676,-7.647121 2.57991,-0.818831 130.83679,-15.5383535 135.41786,-15.541358 2.39553,-0.00157 3.92085,0.7284591 5.01679,2.4010574 1.42739,2.1784736 0.59325,8.9320776 -8.91598,72.1887716 -10.93084,72.713337 -10.90788,72.607907 -15.80886,72.607907 -0.80201,0 -3.52806,-2.04 -6.05787,-4.53333 z m 6.89844,-52.266666 c 0.0227,-0.733333 2.60492,-18.133333 5.73826,-38.666665 3.13335,-20.533333 5.39477,-37.615652 5.0254,-37.960708 -1.20468,-1.125365 -85.79606,9.065275 -86.23688,10.388873 -0.62518,1.877118 14.00584,18.839905 26.54182,30.771835 15.26597,14.530373 43.93304,36.696505 47.5568,36.772162 0.73333,0.01531 1.3519,-0.572163 1.3746,-1.305497 z"
       id="path821"
       inkscape:connector-curvature="0" />
    <path
       style="fill:#0b0808;stroke-width:1.0666666"
       d="m 269.47718,712.4559 c -2.42908,-1.91071 -2.81052,-3.00891 -2.81052,-8.0916 0,-3.23445 0.71249,-8.83961 1.58332,-12.45591 0.87082,-3.61629 2.56997,-11.37507 3.77588,-17.24174 4.58465,-22.30399 11.04183,-49.09261 19.15483,-79.46666 10.28873,-38.51983 10.12316,-37.72062 8.15307,-39.35565 -1.25779,-1.04387 -2.81528,-0.66244 -8.017,1.96337 -6.97351,3.52022 -14.71904,4.29375 -18.90312,1.88781 -2.81752,-1.62013 -46.67416,-46.48702 -60.17602,-61.5622 -5.51711,-6.16 -14.78781,-16.2236 -20.60154,-22.36357 -5.81374,-6.13996 -15.3102,-17.83182 -21.10325,-25.9819 -11.84208,-16.66029 -12.37323,-18.48033 -7.86665,-26.95604 2.15258,-4.04845 2.41456,-5.31759 1.35998,-6.58828 -2.83777,-3.41929 -21.18266,0.81453 -67.905156,15.67186 -10.919887,3.47243 -30.414339,9.53072 -43.321005,13.46287 -12.906667,3.93216 -26.94368,8.5245 -31.193362,10.20522 -11.038879,4.36578 -15.1442875,4.85152 -18.2455269,2.15874 -1.3780561,-1.19656 -2.3380561,-2.55806 -2.1333333,-3.02556 0.2047227,-0.46751 2.1322681,-3.97 4.2834342,-7.78334 2.151166,-3.81333 9.999344,-20.61333 17.440397,-37.33333 22.126957,-49.71913 44.245188,-92.66596 58.505624,-113.6 C 89.106655,284.7708 110.05175,263.2468 121.6,254.74772 c 15.78651,-11.61829 33.01419,-20.11499 48.67967,-24.00883 4.96434,-1.23396 11.61156,-1.81455 20.65366,-1.80398 22.38633,0.0262 38.8569,4.28522 66.94196,17.3102 8.95141,4.15139 16.96694,7.28256 17.8123,6.95817 0.84535,-0.3244 7.16927,-7.86784 14.05315,-16.76321 34.80839,-44.97954 82.28275,-92.53028 133.72592,-133.94109 30.40444,-24.47502 76.63904,-52.136862 109.93814,-65.775243 13.04377,-5.342365 17.30138,-5.794532 21.88033,-2.323738 3.37305,2.55674 18.39276,18.002346 51.08475,52.533332 11.10846,11.733333 30.80513,32.133329 43.77037,45.333329 29.55217,30.08726 37.70966,38.93308 38.97665,42.26551 1.5068,3.96315 -3.16828,15.08066 -22.59613,53.73449 -26.61617,52.95579 -48.03757,88.03573 -67.72163,110.90174 -14.61051,16.97231 -41.414,44.29492 -54.79915,55.8605 -13.15694,11.36838 -56.41738,45.978 -65.30293,52.24427 -3.39005,2.39073 -6.16374,5.14585 -6.16374,6.12248 0,0.97664 1.91407,5.86021 4.25347,10.85238 7.22285,15.41315 8.02017,19.82163 7.96124,44.01862 -0.0584,23.95429 -2.04575,37.93828 -7.96688,56.05764 -6.65832,20.37528 -20.20896,40.43614 -42.09225,62.31495 -23.35543,23.35064 -38.26649,33.7822 -73.08891,51.13189 -30.44962,15.17102 -82.00358,36.89552 -87.55601,36.89552 -0.96596,0 -3.02102,-0.99484 -4.5668,-2.21075 z m 23.00875,-16.32985 c 48.09301,-18.65826 92.93548,-41.64296 112.31406,-57.5683 25.40343,-20.87658 45.79023,-44.34357 55.73665,-64.15776 8.33657,-16.60723 13.22281,-40.64509 13.44308,-66.13334 0.11538,-13.35006 -0.26322,-18.57653 -1.73856,-23.99999 -2.0816,-7.6521 -9.16155,-23.18817 -12.5029,-27.43599 -1.17604,-1.49511 -2.13827,-3.82654 -2.13827,-5.18096 0,-2.73198 1.73442,-4.28789 19.73333,-17.70232 35.21506,-26.24547 65.21709,-51.7962 86.4,-73.58114 32.87242,-33.80666 47.30229,-52.81349 68.98856,-90.87078 11.21182,-19.67566 33.3214,-62.90197 40.34048,-78.86944 l 5.52734,-12.57397 -5.14598,-6.09269 c -2.83028,-3.35099 -17.89485,-19.05271 -33.4768,-34.89271 -15.58196,-15.84 -40.85795,-41.999996 -56.16887,-58.133328 -15.31093,-16.133333 -29.56433,-30.98292 -31.67423,-32.999081 l -3.8362,-3.66575 -10.41048,4.157917 c -21.5794,8.618751 -54.94907,27.142983 -82.38607,45.734325 -26.52014,17.970067 -60.94162,47.620707 -96.65756,83.260727 -29.72641,29.66322 -39.15422,40.14331 -58.57409,65.11186 -7.75699,9.97333 -16.03522,20.29333 -18.39607,22.93333 l -4.29243,4.8 -12.65213,-6.57554 c -41.87423,-21.76282 -71.9155,-27.28553 -99.58546,-18.30753 -27.88282,9.04706 -58.3539,33.52638 -77.262225,62.06955 -10.340892,15.61016 -34.021376,60.27565 -42.491775,80.14685 -1.500452,3.52 -7.630006,17.57962 -13.621229,31.2436 -5.991225,13.66397 -10.599915,25.13681 -10.241534,25.49518 0.613661,0.61367 14.913633,-3.65667 70.550098,-21.06805 59.496235,-18.61929 71.174305,-20.78341 78.987515,-14.63753 1.57905,1.24208 3.55557,3.89671 4.39225,5.89918 1.33184,3.18755 1.314,4.35376 -0.14328,9.36662 -0.91548,3.14916 -2.13822,6.01851 -2.71717,6.37633 -0.57895,0.35781 -1.05265,1.32216 -1.05265,2.143 0,2.85489 18.13123,26.99999 28.52702,37.98905 5.75423,6.0826 15.21482,16.33929 21.02353,22.79262 15.36894,17.07449 56.86705,59.2 58.31831,59.2 0.68234,0 4.73348,-1.68 9.00254,-3.73334 10.15255,-4.88319 15.35302,-5.00633 19.88838,-0.47098 3.25609,3.25608 3.26119,3.28013 2.65688,12.53333 -0.4453,6.8184 -2.55676,16.32549 -7.9815,35.93765 -7.26572,26.26792 -15.51594,59.73308 -21.16885,85.86667 -3.68134,17.01897 -4.11355,20.26666 -2.69708,20.26666 0.62479,0 6.55731,-2.10326 13.18337,-4.67393 z M 493.86666,266.21146 c -27.31894,-7.5759 -44.67766,-32.80237 -40.51259,-58.87466 4.26173,-26.67738 23.38029,-41.95542 52.54624,-41.99081 20.95398,-0.0254 35.95019,9.12704 44.42513,27.11349 11.60836,24.63659 3.98461,54.57827 -17.54873,68.92116 -8.61186,5.73618 -27.28523,8.05454 -38.91005,4.83082 z m 26.97795,-14.48667 c 16.19688,-6.06003 25.28764,-22.84793 22.4066,-41.37822 -2.21978,-14.27716 -9.6925,-24.52726 -21.21725,-29.10304 -5.09936,-2.02464 -8.33862,-2.50878 -16.98974,-2.53924 -9.94691,-0.035 -11.17904,0.20357 -17.7454,3.43619 -14.56289,7.16929 -21.61624,17.85089 -21.66878,32.81528 -0.0265,7.53604 0.38435,9.39754 3.44694,15.61854 3.67409,7.46313 8.68459,12.73219 16.41595,17.26307 10.28647,6.02828 25.236,7.67219 35.35168,3.88742 z M 35.539267,704.41223 c -0.363243,-0.9466 0.137404,-7.0666 1.11255,-13.6 2.458865,-16.4742 2.236478,-24.81846 -1.013085,-38.01225 -3.946946,-16.02527 -4.7677,-23.75541 -3.500016,-32.96426 2.436964,-17.70288 12.078643,-35.96436 28.01962,-53.06959 7.479074,-8.0253 9.454193,-11.03281 7.245579,-11.03281 -2.069597,0 -13.235935,7.63019 -21.147951,14.45083 -8.899299,7.67173 -22.029866,15.72033 -24.776486,15.18715 -2.62283,-0.50915 -2.581304,-2.78952 0.09738,-5.34729 7.119224,-6.79788 9.783025,-14.60704 10.934695,-32.05602 1.323274,-20.04897 6.229322,-31.96524 18.155118,-44.09688 8.637777,-8.78685 17.474081,-14.73882 34.666665,-23.35082 27.477184,-13.76368 35.335554,-16.03756 52.537644,-15.2021 12.82992,0.62311 21.24443,3.4028 32.66493,10.79069 13.01012,8.4162 22.23924,18.85866 41.14812,46.55777 9.99552,14.64218 13.79064,19.2527 32.40734,39.37027 7.82358,8.45431 14.70931,16.61459 15.30162,18.13394 2.65293,6.80513 -2.17975,35.13179 -8.09006,47.41985 -5.28042,10.97845 -11.16513,16.02835 -26.30255,22.57126 -13.09212,5.65886 -22.20067,11.1709 -27.13372,16.41998 -1.76,1.87274 -5.87163,7.81793 -9.13698,13.21152 -9.08686,15.00938 -12.39844,13.88731 -11.98278,-4.06015 0.23677,-10.22347 1.35678,-13.89279 9.81998,-32.17152 3.57488,-7.721 6.49978,-15.09271 6.49978,-16.38156 0,-2.00468 -0.96355,-1.45089 -6.66666,3.83163 -8.31331,7.7002 -15.72179,12.51475 -32.12895,20.87961 -18.11404,9.2351 -21.81961,13.02681 -32.03696,32.78171 -8.5217,16.47642 -12.05047,21.15265 -15.08381,19.98865 -1.48448,-0.56965 -1.64227,-1.67402 -1.01338,-7.09259 0.44683,-3.84993 -0.0204,-15.18131 -1.16776,-28.31975 -1.67216,-19.14813 -1.73293,-23.06788 -0.48336,-31.17569 2.70325,-17.54001 2.66783,-16.8725 0.81391,-15.33389 -0.91255,0.75736 -4.16178,5.79069 -7.220499,11.1852 -11.338467,19.99703 -17.84969,28.36485 -36.267087,46.6082 -9.772351,9.68 -19.094823,19.4 -20.716607,21.6 -3.221641,4.37026 -4.545358,4.91318 -5.556226,2.27891 z m 19.752411,-25.53004 c 19.041114,-16.84202 26.662719,-27.2743 47.750562,-65.35983 17.84024,-32.22023 29.1052,-45.5654 34.17948,-40.49112 2.54834,2.54833 1.39252,5.42162 -7.44252,18.50151 -9.55676,14.14837 -12.45222,19.7528 -15.94711,30.86724 -4.93266,15.68678 -5.47929,23.06356 -3.37925,45.60248 1.24439,13.35555 2.2618,19.94371 3.0418,19.69692 0.64462,-0.20397 3.55215,-5.10987 6.4612,-10.90201 7.53305,-14.99891 13.44729,-20.68554 30.44416,-29.27255 24.97882,-12.6196 33.67047,-19.96912 45.28774,-38.29461 6.42421,-10.1338 8.50666,-11.89298 11.05812,-9.34151 1.37838,1.37837 0.97606,3.36249 -3.34051,16.47417 -2.69919,8.19888 -8.00222,21.55131 -11.78452,29.67208 -7.12256,15.29249 -9.20472,21.21969 -9.21488,26.23169 -0.009,4.18845 1.53862,3.6401 5.34694,-1.8951 7.43213,-10.80223 15.9516,-16.94682 35.47025,-25.58262 17.01346,-7.52739 22.58853,-13.96802 27.40441,-31.659 2.61593,-9.60959 4.53521,-26.02295 3.48544,-29.80696 -0.42881,-1.54569 -8.53023,-11.27557 -18.00315,-21.62196 -11.34375,-12.38973 -20.78827,-23.99307 -27.6658,-33.98965 -14.68168,-21.33997 -22.73083,-31.51152 -30.67685,-38.76569 -16.68297,-15.2304 -33.61956,-20.7506 -53.73309,-17.51339 -14.90557,2.39899 -47.602679,18.12846 -62.444844,30.04008 -16.701695,13.40399 -22.038235,24.70242 -24.117424,51.06096 -0.578461,7.33333 -1.358989,14.12478 -1.734508,15.09211 -1.484855,3.82494 1.741933,2.80199 7.650802,-2.42544 12.628128,-11.1718 28.059655,-18.75365 36.253523,-17.81215 6.040912,0.69411 4.434051,3.62649 -10.043443,18.32846 -14.554824,14.78049 -20.917521,23.20157 -26.000572,34.41201 -7.209441,15.90008 -8.000425,29.10283 -2.957608,49.36708 2.955858,11.87793 3.26708,14.62548 2.933333,25.8962 -0.205348,6.93466 0.02789,12.60845 0.518319,12.60843 0.490423,-3e-5 5.530423,-4.10304 11.2,-9.11783 z m -2.622991,-9.28221 c -0.444623,-1.32 -0.683627,-5.28 -0.53112,-8.8 0.152506,-3.52 -0.528111,-11.43889 -1.512484,-17.59754 -1.108476,-6.93509 -1.627498,-14.90771 -1.363482,-20.94424 0.376173,-8.60086 0.883633,-10.67021 4.316598,-17.60245 2.587629,-5.22524 6.982044,-11.24895 13.123406,-17.9891 5.078201,-5.57333 12.476362,-14.47132 16.440356,-19.77332 3.963994,-5.30199 8.584913,-10.54267 10.268708,-11.64593 7.444491,-4.87782 19.938021,-1.98309 24.309811,5.63254 3.036,5.2887 1.21828,9.58781 -8.87347,20.98671 -11.467312,12.95264 -14.992172,19.31224 -20.893294,37.69594 -5.518317,17.19116 -7.293662,21.17958 -13.512187,30.35598 -5.796277,8.5533 -17.748951,22.08141 -19.509884,22.08141 -0.800005,0 -1.818335,-1.08 -2.262958,-2.4 z m 12.551342,-15.47064 c 8.271247,-10.23494 12.337689,-18.21454 17.528386,-34.39602 6.38462,-19.90341 10.128189,-26.93824 21.285925,-40 10.98377,-12.85811 11.67561,-14.70948 7.0434,-18.84836 -2.61093,-2.33287 -4.43163,-3.01831 -8.01739,-3.01831 -5.975669,0 -8.36089,1.91331 -17.72754,14.22009 -4.0939,5.37895 -11.257606,13.98881 -15.919347,19.133 -9.399053,10.3718 -13.352685,17.3934 -15.084381,26.7897 -1.113623,6.04259 -1.011323,8.2173 1.159896,24.65721 0.542367,4.10667 1.268636,9.74667 1.613929,12.53333 0.353711,2.85461 1.181396,5.06493 1.895783,5.06269 0.697386,-0.002 3.496989,-2.76219 6.221339,-6.13333 z m 50.367071,6.67421 c -0.94423,-2.46064 12.07315,-41.08332 19.59446,-58.1369 10.70815,-24.27934 16.68784,-31.83247 26.94232,-34.03166 10.23298,-2.19458 25.3378,2.39788 31.33717,9.52773 6.18258,7.34758 2.40801,18.82775 -10.9254,33.22906 -8.47053,9.14896 -12.04803,11.48167 -24.17048,15.76037 -5.17781,1.82754 -11.82899,4.62593 -14.78041,6.21865 -7.6532,4.13002 -16.87596,13.55509 -20.72461,21.17923 -3.35601,6.64822 -6.1874,9.0827 -7.27305,6.25352 z m 16.08132,-24.96522 c 1.6834,-2.72377 13.75645,-9.30817 23.65722,-12.90215 6.15858,-2.23558 13.17481,-5.43076 15.59164,-7.10044 C 179.59664,609.83957 192,592.21335 192,585.8754 c 0,-5.53235 -10.48878,-11.80803 -21.38683,-12.79622 -12.43155,-1.12726 -19.24106,5.37704 -29.60736,28.28037 -6.25119,13.81136 -13.18406,33.2224 -12.34859,34.57423 0.71101,1.15044 2.27178,1.10097 3.0112,-0.0955 z m 68.86491,9.62559 c 0,-1.10149 0.72525,-2.60462 1.61166,-3.34028 0.88641,-0.73565 3.76514,-4.79268 6.39717,-9.0156 5.56714,-8.93211 9.05783,-20.9515 9.05783,-31.18854 0,-7.9055 2.85209,-13.11951 7.17643,-13.11951 6.00072,0 16.47658,8.38775 17.98574,14.40072 0.93935,3.74267 -1.28208,11.99387 -4.96528,18.44291 -3.50716,6.1408 -11.15459,12.70767 -20.14151,17.29555 -3.25712,1.66279 -7.5753,4.2617 -9.59594,5.77536 -4.37241,3.27538 -7.5261,3.5894 -7.5261,0.74939 z m 21.43203,-14.89725 c 11.83099,-7.50298 19.17312,-22.75417 14.3021,-29.70852 -2.1142,-3.01844 -8.20994,-6.72483 -11.06003,-6.72483 -2.00073,0 -2.27507,0.60909 -2.28216,5.06667 -0.0115,7.20592 -1.8851,17.82582 -4.36441,24.73772 -3.28782,9.1659 -3.4091,9.66228 -2.36077,9.66228 0.54024,0 3.1346,-1.365 5.76527,-3.03332 z M 44.050481,551.82126 c -1.964204,-5.11864 6.97588,-27.46117 16.110293,-40.2619 6.207373,-8.69885 12.14633,-12.63811 19.923014,-13.21475 4.542378,-0.33682 6.971618,0.0797 10.265823,1.7603 12.657949,6.45761 15.316119,20.84614 5.797583,31.38203 -5.01778,5.55408 -7.798848,6.81123 -18.225987,8.23891 -11.258131,1.54145 -18.809171,4.36564 -25.882328,9.6803 -6.267706,4.70946 -7.020621,4.93709 -7.988398,2.41511 z m 14.763092,-12.05447 c 4.322623,-2.01693 10.558102,-3.73032 17.175328,-4.71946 11.810322,-1.76541 15.692024,-3.8721 18.968578,-10.29468 4.200542,-8.23374 1.493654,-16.1282 -6.928001,-20.20506 -7.989791,-3.86779 -15.223996,-1.14411 -22.961999,8.6452 -6.772823,8.56826 -16.350651,29.74053 -13.453906,29.74053 0.227466,0 3.467466,-1.42494 7.2,-3.16653 z M 685.40948,150.13333 C 681.45749,146.23832 666.05158,130.0006 631.51113,93.324876 627.08667,88.626891 612.15366,73.026891 598.32667,58.65821 584.49969,44.289528 572.87316,31.689164 572.48994,30.657403 c -0.97,-2.611534 0.85443,-6.88121 3.2676,-7.647121 2.57991,-0.818831 130.83679,-15.5383535 135.41786,-15.541358 2.39553,-0.00157 3.92085,0.7284591 5.01679,2.4010574 1.42739,2.1784736 0.59325,8.9320776 -8.91598,72.1887716 -10.93084,72.713337 -10.90788,72.607907 -15.80886,72.607907 -0.80201,0 -3.52806,-2.04 -6.05787,-4.53333 z m 2.64976,-17.06667 c 0.0325,-0.73333 1.22846,-8.29333 2.65749,-16.8 4.68404,-27.882928 14.31469,-91.135348 14.3325,-94.133327 C 705.06363,19.707166 704.60337,19.2 702.38709,19.2 c -3.70402,0 -83.95482,9.304458 -91.1871,10.572438 -3.22667,0.565706 -8.86753,1.345562 -12.53525,1.733014 -3.66772,0.387451 -6.9615,1.178416 -7.31952,1.757699 -0.35802,0.579282 4.81012,6.652052 11.48473,13.495044 6.67462,6.842992 28.14655,29.361803 47.7154,50.041803 C 670.11419,117.48 686.54692,134.4 687.06252,134.4 c 0.51561,0 0.96413,-0.6 0.99672,-1.33334 z"
       id="path819"
       inkscape:connector-curvature="0" />
  </g>
</svg>
