<?xml version="1.0" encoding="UTF-8" standalone="no"?>
<!-- Created with Inkscape (http://www.inkscape.org/) -->

<svg
   xmlns:dc="http://purl.org/dc/elements/1.1/"
   xmlns:cc="http://creativecommons.org/ns#"
   xmlns:rdf="http://www.w3.org/1999/02/22-rdf-syntax-ns#"
   xmlns:svg="http://www.w3.org/2000/svg"
   xmlns="http://www.w3.org/2000/svg"
   xmlns:sodipodi="http://sodipodi.sourceforge.net/DTD/sodipodi-0.dtd"
   xmlns:inkscape="http://www.inkscape.org/namespaces/inkscape"
   version="1.1"
   id="svg2"
   width="1314.1333"
   height="1310.9333"
   viewBox="0 0 1314.1333 1310.9333"
   sodipodi:docname="maxHealth.svg"
   inkscape:version="0.92.4 (unknown)">
  <metadata
     id="metadata8">
    <rdf:RDF>
      <cc:Work
         rdf:about="">
        <dc:format>image/svg+xml</dc:format>
        <dc:type
           rdf:resource="http://purl.org/dc/dcmitype/StillImage" />
        <dc:title></dc:title>
      </cc:Work>
    </rdf:RDF>
  </metadata>
  <defs
     id="defs6" />
  <sodipodi:namedview
     pagecolor="#ffffff"
     bordercolor="#666666"
     borderopacity="1"
     objecttolerance="10"
     gridtolerance="10"
     guidetolerance="10"
     inkscape:pageopacity="0"
     inkscape:pageshadow="2"
     inkscape:window-width="1199"
     inkscape:window-height="886"
     id="namedview4"
     showgrid="false"
     inkscape:zoom="0.12729648"
     inkscape:cx="-233.42424"
     inkscape:cy="1019.9471"
     inkscape:window-x="191"
     inkscape:window-y="27"
     inkscape:window-maximized="0"
     inkscape:current-layer="svg2" />
  <g
     id="g817"
     transform="translate(-1.9008132,38.343875)">
    <path
       style="fill:#a2a2a2;stroke-width:1.0666666"
       d="m 910.66664,1160.9898 c -1.61333,-0.8752 -3.04417,-1.696 -3.17964,-1.8239 -0.13548,-0.128 -0.49548,-42.4726 -0.8,-94.0993 l -0.55369,-93.86662 -93.68618,-0.53334 c -91.18451,-0.51909 -93.72661,-0.58862 -95.2,-2.60387 -2.24585,-3.07179 -2.24585,-88.78713 0,-91.85892 1.47339,-2.01525 4.01549,-2.08478 95.2,-2.60387 l 93.68618,-0.53334 0.53333,-92.79999 c 0.29334,-51.04 0.91975,-93.57499 1.39201,-94.52219 1.91967,-3.85013 5.30555,-4.14448 47.67466,-4.14448 42.36911,0 45.75499,0.29435 47.67469,4.14448 0.4722,0.9472 1.0986,43.48219 1.392,94.52219 l 0.5333,92.79999 93.6862,0.53334 c 91.1845,0.51909 93.7266,0.58862 95.2,2.60387 1.2488,1.70813 1.5138,9.70194 1.5138,45.67012 0,27.3646 -0.4018,44.35047 -1.0793,45.61613 -0.5934,1.10909 -2.8734,2.51486 -5.0666,3.12392 -2.6109,0.72511 -35.1945,1.10944 -94.3874,1.11334 l -90.4,0.006 v 91.78624 c 0,99.1802 0.1264,96.9411 -5.55731,98.4635 -1.34349,0.3599 -21.16271,0.6417 -44.04271,0.6263 -34.81718,-0.024 -42.07828,-0.2876 -44.53334,-1.6196 z m -236.12732,-42.0284 c -3.96766,-2.6168 -36.3524,-16.5564 -91.07267,-39.201 -75.86219,-31.3937 -108.43873,-46.7189 -153.06666,-72.008 C 332.6517,952.3617 231.08711,876.48596 165.97802,810.21097 85.563932,728.35691 33.97984,637.30881 16.664696,546.66665 11.079771,517.43042 9.1625832,494.43646 9.9116539,465.67348 10.625252,438.27259 12.566142,420.35237 17.569512,394.96857 39.424312,284.09169 99.584546,198.04328 184.86537,155.68186 c 9.27596,-4.60762 19.59596,-9.42562 22.93333,-10.70665 32.44582,-12.45409 53.77446,-17.97072 90.86796,-23.50287 22.19392,-3.31003 24.08545,-3.42218 58.66666,-3.4785 28.34183,-0.0462 38.82233,0.33698 50.66667,1.85228 32.85319,4.20304 60.72598,10.40029 86.93333,19.32878 22.15827,7.54903 25.35737,8.88708 44.68907,18.69155 19.63917,9.96042 31.92905,17.76991 46.51093,29.55493 30.77478,24.87209 50.30136,49.72341 69.12551,87.97553 5.39431,10.96163 10.18979,19.96163 10.65665,20 0.46686,0.0384 2.67135,-3.89382 4.89887,-8.73819 10.55691,-22.95898 28.03425,-47.82471 46.90701,-66.73649 40.71859,-40.80277 101.97139,-70.01219 174.01195,-82.98051 73.58853,-13.24697 154.28859,-6.33329 214.93329,18.41366 31.7423,12.95287 57.713,29.41365 84.3559,53.46644 43.2891,39.08088 78.5011,100.42033 97.4423,169.74543 3.5276,12.91088 8.5943,39.96084 9.6697,51.62357 2.1829,23.6763 3.1887,58.13308 2.1475,73.58073 -7.8427,116.36622 -70.7619,232.63464 -184.3503,340.66087 l -20.6016,19.59277 -40.7317,-0.27927 -40.7318,-0.27928 -0.5333,-86.39999 c -0.5953,-96.43853 -0.085,-90.38756 -8.246,-97.75163 -6.37433,-5.75176 -10.37043,-6.24837 -50.27956,-6.24837 -39.8531,0 -42.89373,0.44092 -49.42953,7.16766 -2.15484,2.21779 -4.54647,5.47234 -5.31472,7.23234 -1.09832,2.51611 -1.51083,21.66507 -1.93018,89.6 l -0.53333,86.39999 -86.93333,0.53334 c -82.33115,0.5051 -87.14696,0.63948 -90.96856,2.53825 -5.88603,2.9245 -11.09839,9.53303 -12.43511,15.76598 -1.4635,6.82407 -1.50256,75.77715 -0.0459,81.02124 1.64271,5.91385 5.44573,10.80196 10.69085,13.74119 l 4.75872,2.66667 87.46666,0.53333 87.46667,0.53334 0.29538,14.45375 c 0.28313,13.85397 0.1946,14.54797 -2.13333,16.72357 -6.60131,6.1694 -78.17954,43.8178 -120.82871,63.5528 -27.89016,12.9057 -75.70737,36.5778 -81.93362,40.5617 -7.83018,5.0103 -13.80621,5.9391 -18.46038,2.8696 z"
       id="path831"
       inkscape:connector-curvature="0" />
    <path
       style="fill:#606060;stroke-width:1.0666666"
       d="m 913.41077,1160.8749 c -5.30705,-1.0732 -5.10878,2.325 -5.67746,-97.3051 l -0.53333,-93.43649 -93.68619,-0.53333 c -91.18451,-0.5191 -93.72661,-0.58862 -95.19999,-2.60388 -1.24787,-1.70677 -1.51382,-9.6035 -1.51382,-44.9485 0,-39.26312 0.15737,-43.06869 1.86667,-45.14046 l 1.86667,-2.26251 93.33333,-0.25566 93.33333,-0.25566 0.53333,-93.5623 c 0.50154,-87.98368 0.64689,-93.67584 2.43781,-95.46666 1.7661,-1.766 5.07641,-1.90437 45.56157,-1.90437 40.48494,0 43.79552,0.13837 45.56221,1.90437 1.7917,1.79106 1.9368,7.47122 2.4384,95.46666 l 0.5333,93.5623 93.6862,0.53333 c 91.1846,0.5191 93.7266,0.58862 95.2,2.60388 1.2479,1.70677 1.5138,9.60349 1.5138,44.9485 0,39.26312 -0.1573,43.06869 -1.8666,45.14046 l -1.8667,2.26251 -93.3333,0.25566 -93.3334,0.25566 -0.5333,93.56229 c -0.5014,87.9701 -0.6471,93.6761 -2.4371,95.4667 -1.75778,1.7583 -5.111,1.915 -43.73332,2.0433 -23.00626,0.077 -42.87471,-0.072 -44.15211,-0.3307 z m -238.74412,-43.5144 c -5.08043,-3.0763 -35.32044,-16.0956 -94.93333,-40.872 -68.35656,-28.4105 -91.14125,-38.8588 -128,-58.6964 C 358.80081,967.77532 259.47914,896.86305 188.14472,829.59889 123.43,768.57673 76.16739,704.03339 45.909492,635.3579 19.548905,575.52803 7.4428247,507.28292 12.295417,445.86666 21.011766,335.5492 68.642996,239.09458 141.33333,184.56113 c 35.02622,-26.27723 70.79326,-42.72856 117.24089,-53.92585 67.17138,-16.19323 137.75413,-15.63893 207.5591,1.63001 35.39251,8.7557 72.97831,24.59224 99.6157,41.97243 25.19762,16.4408 52.72066,43.24855 68.61212,66.82894 8.73165,12.95639 23.41034,40.5294 28.25044,53.06667 0.96257,2.49333 2.26573,4.53333 2.89592,4.53333 0.63019,0 4.80256,-7.30136 9.27195,-16.22523 19.94492,-39.82338 46.96811,-69.72131 86.00031,-95.14907 10.33673,-6.73393 38.45786,-21.08432 51.17814,-26.11651 54.33427,-21.4949 116.11462,-31.78411 173.51466,-28.898 26.12594,1.31363 49.96214,4.30634 68.92744,8.65403 52.9273,12.13335 94.0877,32.43589 130.2827,64.26273 21.3075,18.73584 34.8324,34.41444 52.5683,60.93872 9.0942,13.60066 10.9399,16.84365 20.6401,36.26666 23.3785,46.81186 36.9937,96.25579 40.2119,146.03222 3.0206,46.71823 -0.1821,84.24977 -10.6583,124.90111 -23.9678,93.00332 -81.0887,182.47455 -172.2058,269.7345 l -20.7437,19.86549 h -38.7676 c -28.7304,0 -39.099,-0.3314 -40.0476,-1.28 -0.9739,-0.97392 -1.2825,-21.57027 -1.2904,-86.13333 l -0.011,-84.85333 -2.5415,-5.45817 c -2.6962,-5.7905 -7.3753,-10.00074 -13.33017,-11.99452 -2.45323,-0.82137 -16.42429,-1.21061 -43.2,-1.20356 -39.44377,0.0107 -39.59215,0.0188 -45.03233,2.55189 -5.79051,2.6962 -10.00075,7.37528 -11.99453,13.33019 -0.86679,2.58892 -1.21397,27.79434 -1.21397,88.13607 0,69.06412 -0.25957,84.72564 -1.42021,85.68889 -1.00464,0.83377 -26.70115,1.26214 -87.81752,1.46394 l -86.39731,0.28526 -5.24914,3.2052 c -3.9419,2.40696 -5.97967,4.64615 -8.18248,8.99126 l -2.93334,5.78608 0.0235,41.14206 c 0.0258,45.43201 0.10878,46.05072 7.04207,52.55215 6.86369,6.43617 3.01726,6.18992 96.68691,6.18992 65.22368,0 85.99328,0.30568 86.96759,1.28 0.85666,0.85666 1.28,5.6148 1.28,14.38662 v 13.10657 l -4,2.5042 c -21.28292,13.3239 -61.99715,34.0818 -155.41279,79.2361 -20.50372,9.9109 -40.66372,20.0118 -44.8,22.4466 -9.93457,5.8477 -12.79756,6.3305 -18.1872,3.0671 z"
       id="path829"
       inkscape:connector-curvature="0" />
    <path
       style="fill:#e50000;stroke-width:1.0666666"
       d="m 911.14664,1158.1866 c -0.97579,-0.9757 -1.28,-23.174 -1.28,-93.4034 0,-61.4632 -0.3675,-92.81015 -1.10419,-94.18668 -1.07875,-2.01565 -3.25098,-2.06321 -94.23468,-2.06321 -88.86864,0 -93.21127,-0.0893 -94.8958,-1.95066 -1.58075,-1.7467 -1.76532,-6.41362 -1.76532,-44.63467 0,-39.99693 0.12279,-42.79516 1.95065,-44.44935 1.78368,-1.61421 9.90448,-1.76532 94.87038,-1.76532 51.10586,0 93.15406,-0.37916 93.44047,-0.84257 0.28641,-0.46342 0.85573,-42.82342 1.26517,-94.13333 0.47198,-59.14751 1.13301,-93.77874 1.80616,-94.62409 1.58531,-1.99088 87.50953,-1.93149 89.16362,0.0616 0.8016,0.96576 1.3608,29.9283 1.8176,94.13333 0.3629,51.0061 0.8457,93.33837 1.0728,94.0717 0.3262,1.05335 20.0054,1.33333 93.7192,1.33333 h 93.3063 l 1.6605,2.37068 c 1.435,2.0488 1.6605,8.10881 1.6605,44.63468 0,39.59002 -0.1234,42.37569 -1.9506,44.02932 -1.7838,1.61422 -9.9063,1.76532 -94.8959,1.76532 -90.8004,0 -92.9706,0.0476 -94.0493,2.06321 -0.7367,1.37653 -1.1042,32.72351 -1.1042,94.18671 0,70.2294 -0.3042,92.4277 -1.28,93.4034 -1.83932,1.8392 -87.33406,1.8392 -89.17336,0 z m -236.73599,-42.5692 c -4.13768,-2.65 -21.85476,-10.2663 -87.90096,-37.787 -27.36633,-11.4033 -59.04633,-24.8543 -70.4,-29.8912 C 408.30438,1000.1128 278.27174,912.73475 187.88341,827.38091 97.008897,741.56795 40.242061,647.35426 20.223751,549.12273 c -5.530494,-27.13859 -6.832849,-41.36015 -6.818402,-74.45608 0.0152,-34.80746 1.376948,-50.17144 6.948817,-78.39999 16.134979,-81.74405 55.306285,-154.63412 106.579164,-198.32279 19.53746,-16.64751 38.50742,-29.43363 58.67479,-39.54795 47.70868,-23.9268 101.68244,-36.25397 164.45953,-37.5612 43.30006,-0.90167 78.80282,3.2567 121.11706,14.18618 31.52077,8.14161 69.07345,24.39155 94.14861,40.74035 27.90207,18.19193 52.43422,42.66493 70.365,70.19537 7.21953,11.08466 21.49293,38.31266 26.37341,50.31004 1.25294,3.08 2.77782,5.6 3.38865,5.6 0.61082,0 5.68032,-9 11.26554,-20 24.4409,-48.1359 60.16816,-82.78853 111.54073,-108.18572 18.74029,-9.26468 26.48807,-12.45276 46.93333,-19.3123 45.71955,-15.33926 93.4793,-22.10444 145.30632,-20.58267 68.9959,2.02588 125.9938,18.43301 174.1603,50.13292 14.5543,9.57858 22.2368,15.73275 37.7976,30.27802 24.7028,23.09076 45.719,52.04176 63.3902,87.32357 29.888,59.67357 43.7491,121.6885 41.9188,187.54617 -1.5082,54.2661 -13.8161,105.08152 -38.2368,157.86667 -31.8992,68.94984 -77.0035,129.50875 -145.3853,195.19999 l -21.0966,20.26667 -37.7503,0.37818 c -28.7212,0.28775 -38.1274,0.0652 -39.3272,-0.9306 -1.3673,-1.13471 -1.5784,-12.60659 -1.5874,-86.24485 l -0.011,-84.93606 -2.5415,-5.45817 c -2.6962,-5.7905 -7.3753,-10.00074 -13.33017,-11.99452 -2.45323,-0.82137 -16.42429,-1.21061 -43.2,-1.20356 -39.44377,0.0107 -39.59215,0.0188 -45.03233,2.55189 -5.79051,2.6962 -10.00075,7.37528 -11.99453,13.33019 -0.86679,2.58892 -1.21397,27.79434 -1.21397,88.13607 0,69.06412 -0.25957,84.72564 -1.42021,85.68889 -1.00464,0.83377 -26.70115,1.26214 -87.81752,1.46394 l -86.39731,0.28526 -5.24914,3.2052 c -3.9419,2.40696 -5.97967,4.64615 -8.18248,8.99126 l -2.93334,5.78608 0.0235,41.14206 c 0.0258,45.43201 0.10878,46.05072 7.04207,52.55215 6.86405,6.4365 3.00912,6.18992 96.76964,6.18992 75.4863,0 85.93185,0.19463 87.11753,1.62331 1.8679,2.25067 0.83599,24.65348 -1.2294,26.69078 -0.80114,0.7902 -11.5366,7.059 -23.8566,13.9306 -21.90073,12.2154 -59.71655,31.1341 -133.93042,67.0036 -20.27506,9.7995 -40.43506,19.9421 -44.8,22.5391 -8.8947,5.2921 -12.61268,5.8139 -17.79224,2.4967 z"
       id="path827"
       inkscape:connector-curvature="0" />
    <path
       style="fill:#11cb05;stroke-width:1.0666666"
       d="m 911.14664,1158.1866 c -0.97579,-0.9757 -1.28,-23.174 -1.28,-93.4034 0,-61.4632 -0.3675,-92.81015 -1.10419,-94.18668 -1.07875,-2.01565 -3.25098,-2.06321 -94.23468,-2.06321 -88.86864,0 -93.21127,-0.0893 -94.8958,-1.95066 -1.58075,-1.7467 -1.76532,-6.41362 -1.76532,-44.63467 0,-39.99693 0.12279,-42.79516 1.95065,-44.44935 1.78368,-1.61421 9.90448,-1.76532 94.87038,-1.76532 51.10586,0 93.15406,-0.37916 93.44047,-0.84257 0.28641,-0.46342 0.85573,-42.82342 1.26517,-94.13333 0.47198,-59.14751 1.13301,-93.77874 1.80616,-94.62409 1.58531,-1.99088 87.50953,-1.93149 89.16362,0.0616 0.8016,0.96576 1.3608,29.9283 1.8176,94.13333 0.3629,51.0061 0.8457,93.33837 1.0728,94.0717 0.3262,1.05335 20.0054,1.33333 93.7192,1.33333 h 93.3063 l 1.6605,2.37068 c 1.435,2.0488 1.6605,8.10881 1.6605,44.63468 0,39.59002 -0.1234,42.37569 -1.9506,44.02932 -1.7838,1.61422 -9.9063,1.76532 -94.8959,1.76532 -90.8004,0 -92.9706,0.0476 -94.0493,2.06321 -0.7367,1.37653 -1.1042,32.72351 -1.1042,94.18671 0,70.2294 -0.3042,92.4277 -1.28,93.4034 -1.83932,1.8392 -87.33406,1.8392 -89.17336,0 z m -236.73599,-42.5692 c -4.13768,-2.65 -21.85476,-10.2663 -87.90096,-37.787 -27.36633,-11.4033 -59.04633,-24.8543 -70.4,-29.8912 C 408.30438,1000.1128 278.27174,912.73475 187.88341,827.38091 97.008897,741.56795 40.242061,647.35426 20.223751,549.12273 c -5.530494,-27.13859 -6.832849,-41.36015 -6.818402,-74.45608 0.0152,-34.80746 1.376948,-50.17144 6.948817,-78.39999 16.134979,-81.74405 55.306285,-154.63412 106.579164,-198.32279 19.53746,-16.64751 38.50742,-29.43363 58.67479,-39.54795 47.70868,-23.9268 101.68244,-36.25397 164.45953,-37.5612 43.30006,-0.90167 78.80282,3.2567 121.11706,14.18618 31.52077,8.14161 69.07345,24.39155 94.14861,40.74035 27.90207,18.19193 52.43422,42.66493 70.365,70.19537 7.21953,11.08466 21.49293,38.31266 26.37341,50.31004 1.25294,3.08 2.77782,5.6 3.38865,5.6 0.61082,0 5.68032,-9 11.26554,-20 24.4409,-48.1359 60.16816,-82.78853 111.54073,-108.18572 18.74029,-9.26468 26.48807,-12.45276 46.93333,-19.3123 45.71955,-15.33926 93.4793,-22.10444 145.30632,-20.58267 68.9959,2.02588 125.9938,18.43301 174.1603,50.13292 14.5543,9.57858 22.2368,15.73275 37.7976,30.27802 24.7028,23.09076 45.719,52.04176 63.3902,87.32357 29.888,59.67357 43.7491,121.6885 41.9188,187.54617 -1.5082,54.2661 -13.8161,105.08152 -38.2368,157.86667 -31.8498,68.84318 -77.0252,129.53022 -145.1079,194.93333 l -20.8196,19.99999 h -5.1685 -5.1685 l 14.8974,-14.03766 c 78.9339,-74.37873 126.9959,-138.85051 159.8527,-214.43171 22.083,-50.7977 32.6584,-100.1629 32.862,-153.39728 0.1035,-26.97776 -1.104,-42.75882 -5.0038,-65.41759 -13.8632,-80.54654 -52.1295,-154.51491 -103.7666,-200.57946 -35.9098,-32.03448 -72.31,-50.7814 -122.3803,-63.02851 -85.5824,-20.93332 -186.26412,-10.76041 -263.7619,26.65059 -20.39287,9.84438 -31.44436,16.49917 -47.70475,28.72599 -32.34984,24.32512 -57.17692,56.46546 -72.54592,93.91565 -6.64069,16.1816 -7.90363,18.66667 -9.48655,18.66667 -2.15035,0 -5.10357,-5.20611 -10.14159,-17.87813 -8.48958,-21.35367 -22.52689,-47.07018 -34.29628,-62.83118 -8.9502,-11.9857 -23.75537,-27.5961 -36.88418,-38.89028 -43.92742,-37.78898 -115.28185,-64.26746 -189.17881,-70.20121 -26.78941,-2.15114 -32.94786,-2.28537 -54.93333,-1.19741 -48.39059,2.39463 -93.74352,11.8523 -131.73333,27.47103 C 154.23261,177.95004 106.22231,219.43156 75.464844,270.83981 39.271176,331.33419 20.280751,401.13672 20.30207,473.59999 20.31543,518.98395 26.268627,554.43227 41.599154,600.41333 63.383169,665.75043 108.6995,736.49038 168,797.72831 c 76.90178,79.41427 193.97353,164.35451 305.59999,221.72499 28.70239,14.7517 52.62672,25.6116 97.16851,44.1075 17.25065,7.1632 38.56482,16.014 47.36482,19.6683 30.18513,12.5346 54.40386,23.0495 59.08849,25.6541 l 4.68849,2.6067 4.91151,-3.1071 c 8.80458,-5.5698 26.48961,-14.4233 76.9115,-38.5029 55.24149,-26.3815 81.84217,-39.8925 110.65038,-56.2018 10.69772,-6.0563 19.93772,-11.0115 20.53333,-11.0115 0.59563,0 1.08296,1.4074 1.08296,3.1274 0,3.92 -0.11925,4.0025 -28.31959,19.5934 -21.79238,12.0482 -54.38739,28.3086 -130.6775,65.1902 -20.27506,9.8017 -40.43506,19.9461 -44.8,22.5431 -8.89469,5.2921 -12.61268,5.8139 -17.79224,2.4967 z"
       id="path825"
       inkscape:connector-curvature="0" />
    <path
       style="fill:#a10000;stroke-width:1.0666666"
       d="m 911.14664,1158.1866 c -0.97579,-0.9757 -1.28,-23.174 -1.28,-93.4034 0,-61.4632 -0.3675,-92.81015 -1.10419,-94.18668 -1.07875,-2.01565 -3.25098,-2.06321 -94.23468,-2.06321 -88.86864,0 -93.21127,-0.0893 -94.8958,-1.95066 -1.58075,-1.7467 -1.76532,-6.41362 -1.76532,-44.63467 0,-39.99693 0.12279,-42.79516 1.95065,-44.44935 1.78368,-1.61421 9.90448,-1.76532 94.87038,-1.76532 51.10586,0 93.15406,-0.37916 93.44047,-0.84257 0.28641,-0.46342 0.85573,-42.82342 1.26517,-94.13333 0.47198,-59.14751 1.13301,-93.77874 1.80616,-94.62409 1.58531,-1.99088 87.50953,-1.93149 89.16362,0.0616 0.8016,0.96576 1.3608,29.9283 1.8176,94.13333 0.3629,51.0061 0.8457,93.33837 1.0728,94.0717 0.3262,1.05335 20.0054,1.33333 93.7192,1.33333 h 93.3063 l 1.6605,2.37068 c 1.435,2.0488 1.6605,8.10881 1.6605,44.63468 0,39.59002 -0.1234,42.37569 -1.9506,44.02932 -1.7838,1.61422 -9.9063,1.76532 -94.8959,1.76532 -90.8004,0 -92.9706,0.0476 -94.0493,2.06321 -0.7367,1.37653 -1.1042,32.72351 -1.1042,94.18671 0,70.2294 -0.3042,92.4277 -1.28,93.4034 -1.83932,1.8392 -87.33406,1.8392 -89.17336,0 z m 81.92,-101.223 c 0.43888,-76.88954 0.79173,-93.74769 1.99246,-95.19421 1.3317,-1.60431 9.6222,-1.78161 94.9333,-2.03028 l 93.4742,-0.27247 0.2806,-37.06666 c 0.2213,-29.2504 0,-37.0884 -1.0667,-37.1697 -0.741,-0.0566 -42.7293,-0.17667 -93.3073,-0.26667 -86.7289,-0.15432 -92.06855,-0.27197 -93.86667,-2.06813 -1.79368,-1.79175 -1.93813,-7.44346 -2.43989,-95.46667 l -0.53333,-93.56216 h -36.8 -36.8 l -0.53333,93.43638 c -0.43976,77.04124 -0.79021,93.74584 -1.99727,95.2 -1.34095,1.61544 -9.19758,1.76361 -93.51277,1.76361 -50.62684,0 -92.80807,0.29135 -93.73605,0.64746 -1.49315,0.57297 -1.68724,4.85454 -1.68724,37.21921 0,32.36467 0.19409,36.64624 1.68724,37.21921 0.92798,0.35611 43.14076,0.64746 93.80617,0.64746 h 92.11895 l 1.66049,2.37067 c 1.47184,2.10135 1.66048,12.86639 1.66048,94.75555 0,50.8117 0.32619,92.7111 0.72488,93.1097 0.39869,0.3987 17.07869,0.5987 37.06667,0.4445 l 36.34178,-0.2804 z m -318.65599,58.6538 c -4.13768,-2.65 -21.85476,-10.2663 -87.90096,-37.787 -27.36633,-11.4033 -59.04633,-24.8543 -70.4,-29.8912 C 408.30438,1000.1128 278.27174,912.73475 187.88341,827.38091 97.008897,741.56795 40.242061,647.35426 20.223751,549.12273 c -5.530494,-27.13859 -6.832849,-41.36015 -6.818402,-74.45608 0.0152,-34.80746 1.376948,-50.17144 6.948817,-78.39999 16.134979,-81.74405 55.306285,-154.63412 106.579164,-198.32279 19.53746,-16.64751 38.50742,-29.43363 58.67479,-39.54795 47.70868,-23.9268 101.68244,-36.25397 164.45953,-37.5612 43.30006,-0.90167 78.80282,3.2567 121.11706,14.18618 31.52077,8.14161 69.07345,24.39155 94.14861,40.74035 27.90207,18.19193 52.43422,42.66493 70.365,70.19537 7.21953,11.08466 21.49293,38.31266 26.37341,50.31004 1.25294,3.08 2.77782,5.6 3.38865,5.6 0.61082,0 5.68032,-9 11.26554,-20 24.4409,-48.1359 60.16816,-82.78853 111.54073,-108.18572 18.74029,-9.26468 26.48807,-12.45276 46.93333,-19.3123 45.71955,-15.33926 93.4793,-22.10444 145.30632,-20.58267 68.9959,2.02588 125.9938,18.43301 174.1603,50.13292 14.5543,9.57858 22.2368,15.73275 37.7976,30.27802 24.7028,23.09076 45.719,52.04176 63.3902,87.32357 29.888,59.67357 43.7491,121.6885 41.9188,187.54617 -1.5082,54.2661 -13.8161,105.08152 -38.2368,157.86667 -31.8498,68.84318 -77.0252,129.53022 -145.1079,194.93333 l -20.8196,19.99999 h -5.1685 -5.1685 l 14.8974,-14.03766 c 78.9339,-74.37873 126.9959,-138.85051 159.8527,-214.43171 22.083,-50.7977 32.6584,-100.1629 32.862,-153.39728 0.1035,-26.97776 -1.104,-42.75882 -5.0038,-65.41759 -13.8632,-80.54654 -52.1295,-154.51491 -103.7666,-200.57946 -35.9098,-32.03448 -72.31,-50.7814 -122.3803,-63.02851 -85.5824,-20.93332 -186.26412,-10.76041 -263.7619,26.65059 -20.39287,9.84438 -31.44436,16.49917 -47.70475,28.72599 -32.34984,24.32512 -57.17692,56.46546 -72.54592,93.91565 -6.64069,16.1816 -7.90363,18.66667 -9.48655,18.66667 -2.15035,0 -5.10357,-5.20611 -10.14159,-17.87813 -8.48958,-21.35367 -22.52689,-47.07018 -34.29628,-62.83118 -8.9502,-11.9857 -23.75537,-27.5961 -36.88418,-38.89028 -43.92742,-37.78898 -115.28185,-64.26746 -189.17881,-70.20121 -26.78941,-2.15114 -32.94786,-2.28537 -54.93333,-1.19741 -48.39059,2.39463 -93.74352,11.8523 -131.73333,27.47103 C 154.23261,177.95004 106.22231,219.43156 75.464844,270.83981 39.271176,331.33419 20.280751,401.13672 20.30207,473.59999 20.31543,518.98395 26.268627,554.43227 41.599154,600.41333 63.383169,665.75043 108.6995,736.49038 168,797.72831 c 76.90178,79.41427 193.97353,164.35451 305.59999,221.72499 28.70239,14.7517 52.62672,25.6116 97.16851,44.1075 17.25065,7.1632 38.56482,16.014 47.36482,19.6683 30.18513,12.5346 54.40386,23.0495 59.08849,25.6541 l 4.68849,2.6067 4.91151,-3.1071 c 8.80458,-5.5698 26.48961,-14.4233 76.9115,-38.5029 55.24149,-26.3815 81.84217,-39.8925 110.65038,-56.2018 10.69772,-6.0563 19.93772,-11.0115 20.53333,-11.0115 0.59563,0 1.08296,1.4074 1.08296,3.1274 0,3.92 -0.11925,4.0025 -28.31959,19.5934 -21.79238,12.0482 -54.38739,28.3086 -130.6775,65.1902 -20.27506,9.8017 -40.43506,19.9461 -44.8,22.5431 -8.89469,5.2921 -12.61268,5.8139 -17.79224,2.4967 z"
       id="path823"
       inkscape:connector-curvature="0" />
    <path
       style="fill:#5e0000;stroke-width:1.0666666"
       d="m 911.14664,1158.1866 c -0.97579,-0.9757 -1.28,-23.174 -1.28,-93.4034 0,-61.4632 -0.3675,-92.81015 -1.10419,-94.18668 -1.07875,-2.01565 -3.25098,-2.06321 -94.23468,-2.06321 -88.86864,0 -93.21127,-0.0893 -94.8958,-1.95066 -1.58075,-1.7467 -1.76532,-6.41362 -1.76532,-44.63467 0,-39.99693 0.12279,-42.79516 1.95065,-44.44935 1.78368,-1.61421 9.90448,-1.76532 94.87038,-1.76532 51.10586,0 93.15406,-0.37916 93.44047,-0.84257 0.28641,-0.46342 0.85573,-42.82342 1.26517,-94.13333 0.47198,-59.14751 1.13301,-93.77874 1.80616,-94.62409 1.58531,-1.99088 87.50953,-1.93149 89.16362,0.0616 0.8016,0.96576 1.3608,29.9283 1.8176,94.13333 0.3629,51.0061 0.8457,93.33837 1.0728,94.0717 0.3262,1.05335 20.0054,1.33333 93.7192,1.33333 h 93.3063 l 1.6605,2.37068 c 1.435,2.0488 1.6605,8.10881 1.6605,44.63468 0,39.59002 -0.1234,42.37569 -1.9506,44.02932 -1.7838,1.61422 -9.9063,1.76532 -94.8959,1.76532 -90.8004,0 -92.9706,0.0476 -94.0493,2.06321 -0.7367,1.37653 -1.1042,32.72351 -1.1042,94.18671 0,70.2294 -0.3042,92.4277 -1.28,93.4034 -1.83932,1.8392 -87.33406,1.8392 -89.17336,0 z m 81.92,-101.223 c 0.43888,-76.88954 0.79173,-93.74769 1.99246,-95.19421 1.3317,-1.60431 9.6222,-1.78161 94.9333,-2.03028 l 93.4742,-0.27247 0.2806,-37.06666 c 0.2213,-29.2504 0,-37.0884 -1.0667,-37.1697 -0.741,-0.0566 -42.7293,-0.17667 -93.3073,-0.26667 -86.7289,-0.15432 -92.06855,-0.27197 -93.86667,-2.06813 -1.79368,-1.79175 -1.93813,-7.44346 -2.43989,-95.46667 l -0.53333,-93.56216 h -36.8 -36.8 l -0.53333,93.43638 c -0.43976,77.04124 -0.79021,93.74584 -1.99727,95.2 -1.34095,1.61544 -9.19758,1.76361 -93.51277,1.76361 -50.62684,0 -92.80807,0.29135 -93.73605,0.64746 -1.49315,0.57297 -1.68724,4.85454 -1.68724,37.21921 0,32.36467 0.19409,36.64624 1.68724,37.21921 0.92798,0.35611 43.14076,0.64746 93.80617,0.64746 h 92.11895 l 1.66049,2.37067 c 1.47184,2.10135 1.66048,12.86639 1.66048,94.75555 0,50.8117 0.32619,92.7111 0.72488,93.1097 0.39869,0.3987 17.07869,0.5987 37.06667,0.4445 l 36.34178,-0.2804 z m -318.65599,58.6538 c -4.13768,-2.65 -21.85476,-10.2663 -87.90096,-37.787 -27.36633,-11.4033 -59.04633,-24.8543 -70.4,-29.8912 C 408.30438,1000.1128 278.27174,912.73475 187.88341,827.38091 97.008897,741.56795 40.242061,647.35426 20.223751,549.12273 c -5.530494,-27.13859 -6.832849,-41.36015 -6.818402,-74.45608 0.0152,-34.80746 1.376948,-50.17144 6.948817,-78.39999 16.134979,-81.74405 55.306285,-154.63412 106.579164,-198.32279 19.53746,-16.64751 38.50742,-29.43363 58.67479,-39.54795 47.70868,-23.9268 101.68244,-36.25397 164.45953,-37.5612 43.30006,-0.90167 78.80282,3.2567 121.11706,14.18618 31.52077,8.14161 69.07345,24.39155 94.14861,40.74035 27.90207,18.19193 52.43422,42.66493 70.365,70.19537 7.21953,11.08466 21.49293,38.31266 26.37341,50.31004 1.25294,3.08 2.77782,5.6 3.38865,5.6 0.61082,0 5.68032,-9 11.26554,-20 24.4409,-48.1359 60.16816,-82.78853 111.54073,-108.18572 18.74029,-9.26468 26.48807,-12.45276 46.93333,-19.3123 45.71955,-15.33926 93.4793,-22.10444 145.30632,-20.58267 68.9959,2.02588 125.9938,18.43301 174.1603,50.13292 14.5543,9.57858 22.2368,15.73275 37.7976,30.27802 24.7028,23.09076 45.719,52.04176 63.3902,87.32357 29.888,59.67357 43.7491,121.6885 41.9188,187.54617 -1.5082,54.2661 -13.8161,105.08152 -38.2368,157.86667 -31.8625,68.87066 -77.0201,129.52527 -145.1791,195.00169 -19.8829,19.1003 -21.0727,20.0522 -24.6648,19.73333 l -3.7743,-0.33503 22.5583,-21.33333 c 20.9168,-19.78096 49.5691,-50.11198 66.5038,-70.4 30.2549,-36.2459 59.4132,-81.44512 77.1914,-119.65681 26.4795,-56.91405 38.4753,-104.68858 40.2608,-160.34318 2.11,-65.76977 -12.6781,-130.29804 -43.5052,-189.83681 -22.2743,-43.02009 -50.7757,-77.38371 -85.9305,-103.60501 -52.7417,-39.33895 -126.0967,-59.45524 -208.33016,-57.1308 -59.67289,1.68673 -115.92916,15.29166 -164.43819,39.76748 -35.65667,17.99101 -61.72437,38.49959 -83.21883,65.47181 -15.53603,19.49532 -23.40291,33.12996 -34.02545,58.97191 -2.94455,7.16336 -5.75157,13.42214 -6.23781,13.90838 -1.3847,1.3847 -4.66664,-4.27897 -8.54544,-14.74696 -7.56877,-20.42639 -24.73288,-51.67559 -37.14407,-67.62496 -14.61294,-18.7788 -36.56835,-39.39737 -55.72353,-52.33061 -49.20423,-33.22181 -120.40264,-54.00233 -192.53333,-56.19427 -51.11975,-1.55345 -101.91122,5.7213 -145.93641,20.90214 -52.8154,18.21191 -94.17402,46.89617 -129.259176,89.6477 -50.747323,61.836 -81.850211,158.47317 -79.132727,245.86666 2.703701,86.95017 31.719292,165.98972 91.237123,248.53333 33.90496,47.02183 86.87374,100.49544 147.89119,149.30068 82.01803,65.6027 176.16279,124.28284 259.51735,161.75634 9.21213,4.1415 38.10931,16.4187 64.21598,27.2827 63.9117,26.5961 91.40096,38.3791 96.65053,41.4285 l 4.38389,2.5465 3.61611,-2.7621 c 3.73283,-2.8513 62.42033,-32.0902 99.0828,-49.3645 28.67553,-13.511 68.30557,-33.9258 90.93707,-46.8448 10.41538,-5.9455 19.17538,-10.81 19.46667,-10.81 0.29127,0 0.52959,1.1673 0.52959,2.594 0,3.2988 -0.86881,3.8836 -28.31959,19.0601 -21.79238,12.0482 -54.38739,28.3086 -130.6775,65.1902 -20.27506,9.8017 -40.43506,19.9461 -44.8,22.5431 -8.89469,5.2921 -12.61268,5.8139 -17.79224,2.4967 z"
       id="path821"
       inkscape:connector-curvature="0" />
    <path
       style="fill:#110e0a;stroke-width:1.0666666"
       d="m 911.14664,1158.1866 c -0.97579,-0.9757 -1.28,-23.174 -1.28,-93.4034 0,-61.4632 -0.3675,-92.81015 -1.10419,-94.18668 -1.07875,-2.01565 -3.25098,-2.06321 -94.23468,-2.06321 -88.86864,0 -93.21127,-0.0893 -94.8958,-1.95066 -1.58075,-1.7467 -1.76532,-6.41362 -1.76532,-44.63467 0,-39.99693 0.12279,-42.79516 1.95065,-44.44935 1.78368,-1.61421 9.90448,-1.76532 94.87038,-1.76532 51.10586,0 93.15406,-0.37916 93.44047,-0.84257 0.28641,-0.46342 0.85573,-42.82342 1.26517,-94.13333 0.47198,-59.14751 1.13301,-93.77874 1.80616,-94.62409 1.58531,-1.99088 87.50953,-1.93149 89.16362,0.0616 0.8016,0.96576 1.3608,29.9283 1.8176,94.13333 0.3629,51.0061 0.8457,93.33837 1.0728,94.0717 0.3262,1.05335 20.0054,1.33333 93.7192,1.33333 h 93.3063 l 1.6605,2.37068 c 1.435,2.0488 1.6605,8.10881 1.6605,44.63468 0,39.59002 -0.1234,42.37569 -1.9506,44.02932 -1.7838,1.61422 -9.9063,1.76532 -94.8959,1.76532 -90.8004,0 -92.9706,0.0476 -94.0493,2.06321 -0.7367,1.37653 -1.1042,32.72351 -1.1042,94.18671 0,70.2294 -0.3042,92.4277 -1.28,93.4034 -1.83932,1.8392 -87.33406,1.8392 -89.17336,0 z m 81.92,-101.223 c 0.43888,-76.88954 0.79173,-93.74769 1.99246,-95.19421 1.3317,-1.60431 9.6222,-1.78161 94.9333,-2.03028 l 93.4742,-0.27247 0.2806,-37.06666 c 0.2213,-29.2504 0,-37.0884 -1.0667,-37.1697 -0.741,-0.0566 -42.7293,-0.17667 -93.3073,-0.26667 -86.7289,-0.15432 -92.06855,-0.27197 -93.86667,-2.06813 -1.79368,-1.79175 -1.93813,-7.44346 -2.43989,-95.46667 l -0.53333,-93.56216 h -36.8 -36.8 l -0.53333,93.43638 c -0.43976,77.04124 -0.79021,93.74584 -1.99727,95.2 -1.34095,1.61544 -9.19758,1.76361 -93.51277,1.76361 -50.62684,0 -92.80807,0.29135 -93.73605,0.64746 -1.49315,0.57297 -1.68724,4.85454 -1.68724,37.21921 0,32.36467 0.19409,36.64624 1.68724,37.21921 0.92798,0.35611 43.14076,0.64746 93.80617,0.64746 h 92.11895 l 1.66049,2.37067 c 1.47184,2.10135 1.66048,12.86639 1.66048,94.75555 0,50.8117 0.32619,92.7111 0.72488,93.1097 0.39869,0.3987 17.07869,0.5987 37.06667,0.4445 l 36.34178,-0.2804 z m -318.65599,58.6815 c -4.11317,-2.6673 -21.4304,-10.1171 -87.90096,-37.8147 -27.36633,-11.4033 -59.04633,-24.8543 -70.4,-29.8912 C 408.30438,1000.1128 278.27174,912.73475 187.88341,827.38091 97.008897,741.56795 40.242061,647.35426 20.223751,549.12273 c -5.530494,-27.13859 -6.832849,-41.36015 -6.818402,-74.45608 0.0152,-34.80746 1.376948,-50.17144 6.948817,-78.39999 16.134979,-81.74405 55.306285,-154.63412 106.579164,-198.32279 19.53746,-16.64751 38.50742,-29.43363 58.67479,-39.54795 47.70868,-23.9268 101.68244,-36.25397 164.45953,-37.5612 43.30006,-0.90167 78.80282,3.2567 121.11706,14.18618 31.52077,8.14161 69.07345,24.39155 94.14861,40.74035 27.90207,18.19193 52.43422,42.66493 70.365,70.19537 7.21953,11.08466 21.49293,38.31266 26.37341,50.31004 1.25294,3.08 2.77782,5.6 3.38865,5.6 0.61082,0 5.68032,-9 11.26554,-20 24.4409,-48.1359 60.16816,-82.78853 111.54073,-108.18572 18.74029,-9.26468 26.48807,-12.45276 46.93333,-19.3123 45.71955,-15.33926 93.4793,-22.10444 145.30632,-20.58267 68.9959,2.02588 125.9938,18.43301 174.1603,50.13292 14.5543,9.57858 22.2368,15.73275 37.7976,30.27802 24.7028,23.09076 45.719,52.04176 63.3902,87.32357 29.888,59.67357 43.7491,121.6885 41.9188,187.54617 -1.5082,54.2661 -13.8161,105.08152 -38.2368,157.86667 -31.8498,68.84318 -77.0252,129.53022 -145.1079,194.93333 -16.2448,15.60534 -21.4358,19.99999 -23.624,19.99999 -3.8518,0 -3.4882,-1.03285 1.7618,-5.00482 8.23,-6.22656 52.4359,-50.73829 68.1238,-68.59517 59.2337,-67.42305 96.9362,-132.2499 117.8684,-202.66666 16.9387,-56.98254 20.389,-117.03171 9.9901,-173.86667 -3.6042,-19.6979 -6.1261,-29.98055 -11.9037,-48.53333 -20.9808,-67.37272 -57.3746,-123.67674 -104.406,-161.52391 -52.4605,-42.21617 -120.2138,-63.87919 -200.81649,-64.20778 -31.13603,-0.12694 -54.48394,1.58857 -74.8891,5.50253 -52.95909,10.15823 -90.3658,23.52217 -127.84864,45.67526 -22.50722,13.30219 -48.15857,35.7807 -63.60666,55.73908 -17.80597,23.00465 -24.59662,35.51756 -37.48045,69.06409 -1.50678,3.92333 -3.39137,1.41995 -7.32446,-9.7294 -7.25481,-20.56565 -24.94191,-53.05515 -37.99828,-69.79925 -37.13282,-47.6208 -90.23654,-79.82679 -159.85876,-96.95005 -35.92978,-8.83677 -67.17778,-12.5095 -104.74154,-12.31081 -65.67928,0.34743 -120.36296,12.52194 -171.54119,38.19114 -44.22896,22.18368 -85.33798,60.53794 -112.204097,104.68518 -14.398257,23.65967 -26.421979,49.6782 -35.582068,76.99725 -7.563637,22.5578 -9.539587,29.90041 -13.634761,50.66667 -5.862092,29.72614 -7.645738,48.19688 -7.645738,79.17625 0,96.35613 36.630671,190.70598 108.820784,280.29041 75.94704,94.24659 218.4539,203.5736 353.36352,271.08995 30.12968,15.0786 44.22012,21.3579 99.41568,44.3041 65.71025,27.3173 95.55242,40.1798 100.06193,43.1287 l 4.06194,2.6561 3.93806,-3.4647 c 3.61472,-3.1804 58.64279,-30.8506 93.00473,-46.7664 24.69001,-11.436 74.31471,-36.8277 94.86484,-48.54 10.81566,-6.1643 20.05566,-11.2078 20.53334,-11.2078 1.9657,0 0.66805,3.1932 -2.06485,5.0811 -1.61333,1.1145 -13.03714,7.6123 -25.38625,14.4397 -21.92036,12.1189 -57.83618,30.0337 -128.96886,64.3296 -19.3353,9.3223 -39.03917,19.1712 -43.78637,21.8865 -10.76153,6.1552 -15.74207,7.1364 -20.51451,4.0416 z"
       id="path819"
       inkscape:connector-curvature="0" />
  </g>
</svg>
