<?xml version="1.0" encoding="UTF-8" standalone="no"?>
<!-- Created with Inkscape (http://www.inkscape.org/) -->

<svg
   xmlns:dc="http://purl.org/dc/elements/1.1/"
   xmlns:cc="http://creativecommons.org/ns#"
   xmlns:rdf="http://www.w3.org/1999/02/22-rdf-syntax-ns#"
   xmlns:svg="http://www.w3.org/2000/svg"
   xmlns="http://www.w3.org/2000/svg"
   xmlns:sodipodi="http://sodipodi.sourceforge.net/DTD/sodipodi-0.dtd"
   xmlns:inkscape="http://www.inkscape.org/namespaces/inkscape"
   version="1.1"
   id="svg2"
   width="410.66666"
   height="441.60001"
   viewBox="0 0 410.66666 441.60001"
   sodipodi:docname="radar.svg"
   inkscape:version="0.92.4 (unknown)">
  <metadata
     id="metadata8">
    <rdf:RDF>
      <cc:Work
         rdf:about="">
        <dc:format>image/svg+xml</dc:format>
        <dc:type
           rdf:resource="http://purl.org/dc/dcmitype/StillImage" />
        <dc:title></dc:title>
      </cc:Work>
    </rdf:RDF>
  </metadata>
  <defs
     id="defs6" />
  <sodipodi:namedview
     pagecolor="#ffffff"
     bordercolor="#666666"
     borderopacity="1"
     objecttolerance="10"
     gridtolerance="10"
     guidetolerance="10"
     inkscape:pageopacity="0"
     inkscape:pageshadow="2"
     inkscape:window-width="1236"
     inkscape:window-height="742"
     id="namedview4"
     showgrid="false"
     inkscape:zoom="0.53442028"
     inkscape:cx="205.33333"
     inkscape:cy="220.8"
     inkscape:window-x="106"
     inkscape:window-y="78"
     inkscape:window-maximized="0"
     inkscape:current-layer="svg2" />
  <g
     id="g817"
     transform="translate(15.131939,-7.4847498)">
    <path
       style="fill:#ebebeb;stroke-width:1.06666672"
       d="M 0.31826139,433.33334 C 1.0117499,421.40754 1.8348093,418.76979 12.050642,395.73334 71.280047,262.17248 88.65984,223.49486 90.221368,221.76939 c 2.463006,-2.72159 5.99706,-2.57214 8.606083,0.36395 1.172959,1.32 4.347899,6 7.055419,10.4 12.28331,19.96164 35.96957,44.06882 64.34056,65.48398 17.74276,13.39269 21.3544,17.07661 20.28828,20.6943 -0.29528,1.00194 2.20301,28.51623 5.55173,61.14285 4.76543,46.42954 5.80658,59.58457 4.79092,60.53334 -0.94983,0.88728 -28.06389,1.2122 -101.157232,1.2122 H -0.1624474 Z M 286.4,320.40789 C 253.68031,315.52175 227.51807,305.43009 199.92999,287.0535 183.11753,275.85463 174.6437,268.97507 160.67113,255.18086 126.136,221.08653 102.4799,180.04571 95.31546,141.79566 92.698626,127.82472 92.684003,92.220051 95.289204,77.866668 100.84308,47.267537 108.16083,32.093977 116.14231,34.627199 c 1.08606,0.3447 12.47833,11.215822 25.31616,24.158047 12.83785,12.942225 35.64092,35.488598 50.67352,50.103044 l 27.33199,26.57173 64.64597,-47.196673 64.64597,-47.196679 0.0237,-5.333334 c 0.0332,-7.468231 2.72666,-12.273543 8.55373,-15.260388 5.56566,-2.852852 11.23678,-2.531329 16.0713,0.911159 3.98426,2.837048 6.80971,10.384107 5.83423,15.583847 -1.03297,5.506207 -7.35769,11.700972 -12.89157,12.626683 -2.31767,0.387703 -4.73116,0.860676 -5.36329,1.051051 -1.2569,0.378539 -96.45067,128.050454 -96.45067,129.357654 0,0.4424 24.96,25.7609 55.46666,56.26333 49.12899,49.12217 55.46667,55.83272 55.46667,58.72992 0,7.63793 -17.84245,17.77716 -40.53333,23.03363 -8.84806,2.04969 -40.38388,3.59465 -48.53333,2.37767 z"
       id="path831"
       inkscape:connector-curvature="0" />
    <path
       style="fill:#d0d0d0;stroke-width:1.06666672"
       d="M 0.00464859,434.40001 C 0.00776006,429.58077 0.82790151,424.90743 2.4849634,420.26668 6.3011616,409.57906 88.562553,224.7878 90.470752,222.61619 c 3.189289,-3.62956 6.724022,-1.90957 11.612228,5.65048 11.2661,17.42403 15.81449,22.98802 32.30644,39.51996 12.82829,12.8594 22.38999,21.24614 35.21058,30.88381 9.68,7.27679 18.18473,13.97281 18.89941,14.88004 0.71467,0.90724 1.32653,4.28953 1.35968,7.51619 0.0332,3.22667 2.64234,31.0275 5.79819,61.77963 3.15585,30.75213 5.49264,56.55213 5.19286,57.33334 -0.4485,1.16876 -18.28622,1.42037 -100.6976,1.42037 H 0 Z M 157.33333,431.38859 c -35.8623,-4.01057 -49.07592,-6.7607 -77.866665,-16.20621 -12.218581,-4.00862 -23.509156,-8.66075 -34.614425,-14.26242 -9.064601,-4.57232 -16.579477,-8.20982 -16.699724,-8.0833 -0.415436,0.43707 -17.48585,39.21513 -17.48585,39.72177 0,0.27954 35.88,0.45276 79.733333,0.38493 72.752081,-0.11251 78.612591,-0.24865 66.933331,-1.55477 z m 29.6203,0.97842 c -0.72217,-0.29218 -2.16217,-0.30997 -3.2,-0.0396 -1.03784,0.27045 -0.44697,0.50951 1.31303,0.53125 1.76,0.0218 2.60913,-0.19953 1.88697,-0.49173 z m -0.28697,-14.767 c 0,-1.34258 -2.29855,-1.6 -14.28698,-1.6 -43.49528,0 -82.758246,-9.56885 -122.702591,-29.90408 -13.67271,-6.96061 -18.194691,-8.47603 -14.413597,-4.83029 2.699034,2.60241 21.437273,12.08063 32.683372,16.53197 13.399227,5.30357 35.870326,12.15128 49.386466,15.04974 25.43992,5.45542 69.33333,8.46423 69.33333,4.75266 z m -2.13163,-16.8 c 0.002,-3.23619 -7.39799,-76.47042 -8.01572,-79.32469 -0.29037,-1.34169 -5.581,-6.06769 -13.03733,-11.64593 -25.74474,-19.26021 -48.09424,-40.66894 -61.00058,-58.43285 -3.742764,-5.15144 -7.153892,-8.98306 -7.580284,-8.51472 -0.602944,0.66225 -43.959218,97.70661 -53.401521,119.52864 l -1.966079,4.54379 16.766575,8.38662 c 9.221616,4.61264 21.381817,10.11153 27.02267,12.21976 18.096369,6.76338 44.440319,12.81365 64.943899,14.91529 2.05334,0.21048 11.05334,0.45949 20,0.55338 16.20814,0.17009 16.26668,0.16207 16.26837,-2.22929 z M 291.55655,319.7885 C 248.54807,317.0988 202.14199,294.20855 163.33642,256.54266 128.94423,223.16054 104.94089,183.28839 96.996935,146.3456 94.131589,133.02052 93.01935,101.81726 94.872057,86.733338 98.534043,56.919076 106.72079,35.200001 114.29694,35.200001 c 1.60355,0 17.70776,15.311479 53.34712,50.721095 33.56994,33.353544 51.50202,50.447984 52.36973,49.923494 1.27152,-0.76859 127.76282,-93.017932 128.72636,-93.87937 0.26043,-0.232825 0.36062,-2.336263 0.22267,-4.674307 -0.31598,-5.355109 3.01558,-13.062011 6.68612,-15.467042 1.53001,-1.002499 4.90305,-2.061818 7.49566,-2.354042 13.36688,-1.506641 20.9033,15.807129 10.87927,24.993465 -2.08248,1.908448 -5.12977,3.742623 -6.77177,4.075945 -1.64199,0.333323 -4.14723,0.948355 -5.5672,1.366735 -1.80357,0.531406 -16.84518,19.89078 -49.90259,64.227366 -26.02645,34.90666 -47.61458,64.11504 -47.97361,64.9075 -0.42378,0.93537 18.86,20.95626 54.96926,57.07044 50.0818,50.08862 55.62203,55.9668 55.62203,59.01484 0,4.36911 -4.86098,8.5392 -16.67008,14.30078 -17.2275,8.40518 -40.12544,11.9906 -66.17336,10.3616 z m 24.30655,-13.66467 c 17.80423,-1.68839 40.40356,-8.57188 40.40356,-12.30646 0,-1.23646 -208.08672,-208.623454 -210.02169,-209.31546 -1.28016,-0.457822 -7.15777,13.099531 -10.08553,23.26335 -6.847,23.76971 -8.51313,54.66427 -3.9387,73.03474 6.36416,25.55792 13.56901,38.03596 34.65645,60.0214 35.57407,37.08898 81.05148,61.18243 123.25614,65.29976 11.96932,1.16769 13.44273,1.16784 25.72977,0.002 z M 292.46693,117.33334 c 27.53733,-37.058362 27.47292,-36.967396 25.21037,-35.601556 -6.99876,4.22497 -36.3868,26.739406 -38.47198,29.473736 -3.83494,5.02875 -8.912,15.49018 -10.76599,22.18358 -2.1485,7.75666 -3.32786,18.42961 -1.9813,17.93035 0.57277,-0.21236 12.27678,-15.50611 26.0089,-33.98611 z"
       id="path829"
       inkscape:connector-curvature="0" />
    <path
       style="fill:#f0a59d;stroke-width:1.06666672"
       d="m 0.01552349,434.93334 c 0.0085379,-3.66666 0.69622723,-8.61974 1.52819851,-11.00683 2.2112203,-6.34443 86.815305,-196.8149 88.714471,-199.72424 2.682073,-4.10869 6.710986,-2.77804 10.691307,3.53107 10.66028,16.89732 16.95643,24.63316 33.42386,41.06667 13.07075,13.0438 22.26905,21.05166 35.5319,30.93333 10.8081,8.05274 18.05193,14.17823 18.29044,15.46667 0.49539,2.67617 12.42569,123.2495 12.3749,125.06667 -0.0296,1.05695 -20.82159,1.33333 -100.30393,1.33333 H 0 Z M 188.56602,432.16876 c 0.3825,-1.14762 -0.88673,-1.2852 -6.40475,-0.69426 -12.44672,1.33292 -54.42501,-3.5155 -74.96127,-8.65791 -21.760428,-5.44895 -46.446606,-14.40863 -63.18149,-22.93131 -8.936486,-4.55114 -16.449388,-7.94715 -16.695339,-7.5467 -1.318222,2.1463 -17.7231712,39.87396 -17.7231712,40.75928 0,0.6796 31.3530362,0.95185 89.2445012,0.77491 73.521869,-0.22471 89.328539,-0.52491 89.721519,-1.70401 z M 186.53,419.30704 c 0.80484,-0.50984 1.25262,-1.55916 0.99506,-2.33184 -0.3569,-1.07072 -4.60193,-1.46692 -17.84711,-1.66573 -42.71356,-0.64113 -77.61839,-9.09025 -116.325419,-28.1579 -17.322229,-8.53318 -22.889115,-10.24021 -19.302829,-5.919 1.869405,2.25249 25.402248,14.05581 36.39994,18.25704 12.063472,4.60836 38.745138,12.41917 50.619788,14.81847 21.18851,4.2812 61.70879,7.37557 65.46057,4.99896 z m -2.12484,-16.00524 c 1.23603,-0.78287 0.84333,-7.23108 -2.45133,-40.25034 -2.15774,-21.62497 -4.14105,-40.36563 -4.40737,-41.64593 -0.29919,-1.43834 -5.67998,-6.29383 -14.082,-12.70724 -27.61493,-21.07894 -47.6419,-40.59647 -61.93643,-60.36087 -3.299123,-4.56154 -6.331314,-7.94355 -6.738206,-7.51556 -0.575259,0.60507 -45.070801,100.13372 -54.330388,121.52746 l -1.940168,4.48265 10.222089,5.38139 c 34.836429,18.3396 65.514943,27.73895 100.771793,30.87468 13.72744,1.22092 33.11434,1.33968 34.89201,0.21376 z M 286.58665,318.87355 C 251.25364,314.76714 214.0118,298.1016 180.8,271.53451 161.95042,256.45619 139.85187,231.88127 125.5861,210.13334 101.33438,173.16199 91.599541,136.73624 94.90559,95.333263 c 1.154231,-14.454907 5.01254,-35.587268 8.08998,-44.309653 3.64406,-10.328381 8.89397,-16.178776 13.09646,-14.594423 0.54097,0.203948 23.7192,22.836035 51.50719,50.293526 34.51123,34.100767 51.08216,49.776647 52.28601,49.461837 1.65573,-0.43298 115.65012,-83.197291 125.4481,-91.080135 4.12993,-3.322689 4.53333,-4.0774 4.53333,-8.481289 0,-9.588693 5.86069,-16.344281 14.1863,-16.352472 8.52107,-0.0084 13.54703,5.318709 13.54703,14.358707 0,6.900261 -4.73427,11.996235 -12.83183,13.812192 l -5.83483,1.308521 -45.59778,61.258306 c -25.07879,33.69206 -46.88396,63.08701 -48.45596,65.3221 l -2.85816,4.0638 56.18928,56.22639 c 34.40323,34.42594 56.18928,57.00504 56.18928,58.23469 0,3.15671 -7.34683,9.29939 -16.47928,13.77829 -18.44269,9.04499 -46.7061,13.10217 -71.33406,10.2399 z m 31.97163,-12.1806 c 14.97927,-1.01931 38.77505,-8.70031 38.77505,-12.51615 0,-1.66363 -210.19293,-212.043465 -211.85507,-212.043465 -1.46772,0 -8.16565,14.459148 -10.9131,23.558645 -1.16664,3.86393 -3.17294,13.22393 -4.45843,20.8 -1.9788,11.66216 -2.26491,16.63747 -1.86558,32.44136 0.46983,18.59399 0.48937,18.71934 5.01758,32.19723 5.10576,15.19692 9.23016,22.79538 19.00359,35.01066 30.96631,38.7031 78.1097,69.30001 120.83475,78.42396 8.70632,1.85923 27.11003,3.55371 33.03626,3.04173 2.05333,-0.1774 7.64456,-0.58868 12.42495,-0.91397 z M 295.06069,115.55186 c 15.02978,-20.195911 27.06996,-36.976755 26.75596,-37.290757 -0.79309,-0.793096 -35.32908,24.458797 -41.64027,30.446377 -5.65834,5.3682 -11.62617,16.05219 -13.95009,24.97436 -1.22422,4.7001 -2.29492,16.68021 -1.81565,20.31543 0.26626,2.01961 4.32144,-3.06694 30.65005,-38.44541 z"
       id="path827"
       inkscape:connector-curvature="0" />
    <path
       style="fill:#a0a0a0;stroke-width:1.06666672"
       d="m 0.01552349,434.93334 c 0.0085379,-3.66666 0.69622723,-8.61974 1.52819851,-11.00683 2.2112203,-6.34443 86.815305,-196.8149 88.714471,-199.72424 2.682073,-4.10869 6.710986,-2.77804 10.691307,3.53107 10.66028,16.89732 16.95643,24.63316 33.42386,41.06667 13.07075,13.0438 22.26905,21.05166 35.5319,30.93333 10.8081,8.05274 18.05193,14.17823 18.29044,15.46667 0.49539,2.67617 12.42569,123.2495 12.3749,125.06667 -0.0296,1.05695 -20.82159,1.33333 -100.30393,1.33333 H 0 Z M 188.56693,431.88941 c 0.28821,-1.49679 -1.97648,-1.79152 -18.11877,-2.358 -47.29116,-1.65957 -96.134803,-14.235 -131.30441,-33.80601 -5.26342,-2.92896 -9.910282,-5.32539 -10.326361,-5.32539 -0.802091,0 -19.2173892,40.91715 -19.2173892,42.69933 0,0.67765 31.4637922,0.95011 89.3187782,0.77343 80.977272,-0.24729 89.349542,-0.43251 89.648152,-1.98336 z m -0.8336,-12.60216 c 0,-5.2451 -0.47827,-5.42052 -14.78079,-5.42147 -25.63842,-0.002 -49.01256,-3.24981 -73.640039,-10.23316 -17.19176,-4.87489 -29.050239,-9.59694 -48.493173,-19.31001 -8.716036,-4.35425 -15.971018,-7.76812 -16.122182,-7.58638 -0.151164,0.18175 -0.830076,1.39798 -1.508694,2.70273 -1.113946,2.14175 -0.833707,2.6249 2.883717,4.9716 9.053196,5.71504 28.160878,14.51841 41.794496,19.25574 33.486335,11.63565 63.899255,17.23565 95.199995,17.5294 13.79495,0.12946 14.66667,0.016 14.66667,-1.90845 z m -2.13321,-16.88724 c 1.6e-4,-3.55208 -7.37544,-77.70231 -8.05639,-80.99448 -0.2979,-1.44029 -5.66591,-6.28517 -14.07927,-12.70724 -27.61493,-21.07894 -47.6419,-40.59647 -61.93643,-60.36087 -3.299123,-4.56154 -6.33123,-7.94355 -6.738022,-7.51556 -1.068926,1.12461 -56.390009,125.9193 -56.390009,127.20601 0,1.64843 35.345921,18.51106 48,22.89957 20.356611,7.05979 36.672871,10.64347 62.400001,13.70541 1.76,0.20946 10.76,0.45277 20,0.54067 l 16.8,0.15982 z M 286.58665,318.87355 C 251.25364,314.76714 214.0118,298.1016 180.8,271.53451 161.95042,256.45619 139.85187,231.88127 125.5861,210.13334 101.33438,173.16199 91.599541,136.73624 94.90559,95.333263 c 1.154231,-14.454907 5.01254,-35.587268 8.08998,-44.309653 3.64406,-10.328381 8.89397,-16.178776 13.09646,-14.594423 0.54097,0.203948 23.7192,22.836035 51.50719,50.293526 34.51123,34.100767 51.08216,49.776647 52.28601,49.461837 1.65573,-0.43298 115.65012,-83.197291 125.4481,-91.080135 4.12993,-3.322689 4.53333,-4.0774 4.53333,-8.481289 0,-9.588693 5.86069,-16.344281 14.1863,-16.352472 8.52107,-0.0084 13.54703,5.318709 13.54703,14.358707 0,6.900261 -4.73427,11.996235 -12.83183,13.812192 l -5.83483,1.308521 -45.59778,61.258306 c -25.07879,33.69206 -46.88396,63.08701 -48.45596,65.3221 l -2.85816,4.0638 56.18928,56.22639 c 34.40323,34.42594 56.18928,57.00504 56.18928,58.23469 0,3.15671 -7.34683,9.29939 -16.47928,13.77829 -18.44269,9.04499 -46.7061,13.10217 -71.33406,10.2399 z m 31.97163,-12.1806 c 14.97927,-1.01931 38.77505,-8.70031 38.77505,-12.51615 0,-1.66363 -210.19293,-212.043465 -211.85507,-212.043465 -1.46772,0 -8.16565,14.459148 -10.9131,23.558645 -1.16664,3.86393 -3.17294,13.22393 -4.45843,20.8 -1.9788,11.66216 -2.26491,16.63747 -1.86558,32.44136 0.46983,18.59399 0.48937,18.71934 5.01758,32.19723 5.10576,15.19692 9.23016,22.79538 19.00359,35.01066 30.96631,38.7031 78.1097,69.30001 120.83475,78.42396 8.70632,1.85923 27.11003,3.55371 33.03626,3.04173 2.05333,-0.1774 7.64456,-0.58868 12.42495,-0.91397 z M 295.06069,115.55186 c 15.02978,-20.195911 27.06996,-36.976755 26.75596,-37.290757 -0.79309,-0.793096 -35.32908,24.458797 -41.64027,30.446377 -5.65834,5.3682 -11.62617,16.05219 -13.95009,24.97436 -1.22422,4.7001 -2.29492,16.68021 -1.81565,20.31543 0.26626,2.01961 4.32144,-3.06694 30.65005,-38.44541 z"
       id="path825"
       inkscape:connector-curvature="0" />
    <path
       style="fill:#f92f1a;stroke-width:1.06666672"
       d="m 0,435.08415 c 0,-6.2659 1.6625427,-10.26566 43.339599,-104.26667 23.83678,-53.76295 44.484866,-100.03081 45.884635,-102.81747 3.504738,-6.97725 6.740607,-7.02082 10.802026,-0.14541 13.15963,22.27736 39.66461,50.15497 67.99174,71.51287 9.39658,7.08476 17.59097,13.54539 18.20976,14.35696 0.6188,0.81157 3.91805,29.31558 7.33167,63.34225 3.41363,34.02666 6.4306,62.46666 6.70437,63.2 0.396,1.06074 -20.02402,1.33333 -99.88301,1.33333 H 0 Z m 188.68876,-0.85949 c 0.81882,-0.51847 1.22107,-1.64028 0.89389,-2.49288 -0.47477,-1.23725 -4.32856,-1.6812 -19.08876,-2.19899 -47.33724,-1.6606 -96.166131,-14.22836 -131.35014,-33.80739 -5.26342,-2.92896 -10.150282,-5.32539 -10.859694,-5.32539 -1.312987,0 -19.7507228,40.35295 -19.7507228,43.22656 0,1.37441 11.2999648,1.57137 89.3333318,1.55711 49.855975,-0.01 89.991235,-0.43292 90.822095,-0.95902 z m -0.51203,-14.64159 c 0.3694,-0.96264 0.38841,-2.64264 0.0422,-3.73333 -0.57155,-1.80079 -1.92182,-1.98315 -14.69086,-1.98396 -26.23202,-0.002 -49.39794,-3.19587 -74.215609,-10.23316 -17.193322,-4.87534 -29.050341,-9.597 -48.500635,-19.31374 -8.72014,-4.35631 -16.52014,-7.66524 -17.333333,-7.3532 -2.872421,1.10226 -1.569543,4.81678 2.616336,7.45921 9.031914,5.70159 28.151688,14.50877 41.771796,19.24141 33.437365,11.61863 63.899495,17.23442 95.085875,17.5294 12.58756,0.11906 14.64323,-0.0987 15.22419,-1.61263 z m -1.92283,-15.77926 c 0.73758,-1.92216 -6.7352,-77.67367 -8.16192,-82.73714 -0.85382,-3.03021 -3.10548,-5.24001 -11.95558,-11.73333 -25.55112,-18.74685 -47.30393,-39.44997 -61.92136,-58.93333 -4.731589,-6.30667 -8.925984,-11.46667 -9.32088,-11.46667 -0.394896,0 -13.530383,28.9098 -29.18997,64.24401 -26.678271,60.1967 -28.351193,64.33786 -26.554751,65.73376 1.054475,0.81937 9.597227,5.22738 18.983893,9.79559 30.858414,15.01782 53.563038,21.51022 90.666668,25.92615 1.76,0.20946 10.77506,0.45277 20.03347,0.54067 13.74047,0.13046 16.94132,-0.12122 17.42043,-1.36971 z M 288.53333,318.22059 C 259.764,314.68641 234.07659,305.5793 208.00562,289.67063 168.30873,265.44736 132.56445,226.30446 112.48394,185.06667 101.66115,162.84072 97.882302,149.11481 95.795975,124.45094 94.296307,106.72236 95.710574,86.2004 99.69509,67.872174 c 4.60991,-21.204976 9.09584,-30.53884 14.6772,-30.53884 1.50153,0 18.58546,16.257971 52.79219,50.239859 37.01795,36.774627 51.08275,50.106377 52.47688,49.741797 2.11038,-0.55188 129.22703,-93.16342 130.47564,-95.05875 0.43102,-0.654265 0.79102,-3.493409 0.8,-6.30921 0.0295,-9.249696 4.92835,-14.75171 13.24647,-14.877459 5.90378,-0.08925 9.71423,2.558168 11.8929,8.262929 1.45591,3.812266 1.54692,5.292135 0.51731,8.411902 -1.59187,4.823427 -6.45325,8.925907 -11.53842,9.737198 -2.18273,0.348235 -4.6886,1.016227 -5.5686,1.484428 -1.25997,0.670365 -90.02114,118.928722 -96.80808,128.979442 -1.6544,2.44997 -1.02071,3.13237 54.50044,58.69018 30.89588,30.91627 56.17431,56.93401 56.17431,57.8172 0,7.82295 -24.19179,19.2873 -48.1369,22.81181 -10.23369,1.5063 -28.33994,1.9784 -36.6631,0.95593 z m 47.75557,-13.49937 c 11.39339,-2.99854 21.37281,-7.75086 21.87994,-10.4195 0.30946,-1.62847 -206.53623,-209.201417 -212.19402,-212.940069 -1.37948,-0.911562 -8.57571,-7.651587 -15.9916,-14.977835 -7.4159,-7.326247 -13.9769,-13.015482 -14.58,-12.642744 -1.38107,0.853547 -5.07912,16.477509 -7.14655,30.193635 -0.86758,5.755913 -1.58026,17.363693 -1.58371,25.795063 -0.014,34.08847 6.58122,56.5798 26.20413,89.36265 10.44133,17.44374 17.15433,26.50348 30.22545,40.79166 26.78228,29.27602 67.28305,54.64302 101.63572,63.65787 14.61845,3.83618 22.46495,4.63656 41.9284,4.27696 16.47688,-0.30443 20.67818,-0.74377 29.62224,-3.09769 z M 257.15948,166.13334 c 1.90965,-2.49334 5.23696,-6.45334 7.39403,-8.8 4.37481,-4.75933 59.56021,-78.893632 60.44542,-81.200441 0.30945,-0.806427 0.21926,-1.466231 -0.20042,-1.466231 -1.15122,0 -42.03492,29.805662 -46.93185,34.214982 -2.34666,2.113 -13.38666,10.46378 -24.53333,18.55731 -11.14667,8.09351 -21.3615,15.70835 -22.69964,16.92184 l -2.43297,2.20636 12.01557,12.04975 c 6.60857,6.62737 12.34307,12.04976 12.74334,12.04976 0.40027,0 2.29021,-2.04 4.19985,-4.53333 z"
       id="path823"
       inkscape:connector-curvature="0" />
    <path
       style="fill:#5e5e5e;stroke-width:1.06666672"
       d="m 0,435.08415 c 0,-6.2659 1.6625427,-10.26566 43.339599,-104.26667 23.83678,-53.76295 44.484866,-100.03081 45.884635,-102.81747 3.504738,-6.97725 6.740607,-7.02082 10.802026,-0.14541 13.15963,22.27736 39.66461,50.15497 67.99174,71.51287 9.39658,7.08476 17.59097,13.54539 18.20976,14.35696 0.6188,0.81157 3.91805,29.31558 7.33167,63.34225 3.41363,34.02666 6.4306,62.46666 6.70437,63.2 0.396,1.06074 -20.02402,1.33333 -99.88301,1.33333 H 0 Z m 188.48341,-0.73257 c 0.8166,-0.51906 1.10781,-2.54996 0.80062,-5.58367 -0.26553,-2.62234 -0.70312,-7.4079 -0.97243,-10.63457 -2.03962,-24.43781 -9.36799,-94.06175 -10.21688,-97.06667 -0.85561,-3.02867 -3.11273,-5.24332 -11.95832,-11.73333 -25.55112,-18.74685 -47.30393,-39.44997 -61.92136,-58.93333 -4.731589,-6.30667 -8.926282,-11.46667 -9.321542,-11.46667 -0.395258,0 -13.099387,27.96 -28.231396,62.13333 -27.481315,62.06236 -31.653955,71.51588 -33.780691,76.53334 -0.621671,1.46667 -1.558313,3.50657 -2.081426,4.53311 -3.630136,7.12367 -22.2666518,50.21688 -22.2666518,51.48717 0,1.38274 11.1393948,1.57768 89.3333318,1.56339 49.133335,-0.009 89.910865,-0.38344 90.616745,-0.8321 z M 288.53333,318.22059 C 259.764,314.68641 234.07659,305.5793 208.00562,289.67063 168.30873,265.44736 132.56445,226.30446 112.48394,185.06667 101.66115,162.84072 97.882302,149.11481 95.795975,124.45094 94.296307,106.72236 95.710574,86.2004 99.69509,67.872174 c 4.60991,-21.204976 9.09584,-30.53884 14.6772,-30.53884 1.50153,0 18.58546,16.257971 52.79219,50.239859 37.01795,36.774627 51.08275,50.106377 52.47688,49.741797 2.11038,-0.55188 129.22703,-93.16342 130.47564,-95.05875 0.43102,-0.654265 0.79102,-3.493409 0.8,-6.30921 0.0295,-9.249696 4.92835,-14.75171 13.24647,-14.877459 5.90378,-0.08925 9.71423,2.558168 11.8929,8.262929 1.45591,3.812266 1.54692,5.292135 0.51731,8.411902 -1.59187,4.823427 -6.45325,8.925907 -11.53842,9.737198 -2.18273,0.348235 -4.6886,1.016227 -5.5686,1.484428 -1.25997,0.670365 -90.02114,118.928722 -96.80808,128.979442 -1.6544,2.44997 -1.02071,3.13237 54.50044,58.69018 30.89588,30.91627 56.17431,56.93401 56.17431,57.8172 0,7.82295 -24.19179,19.2873 -48.1369,22.81181 -10.23369,1.5063 -28.33994,1.9784 -36.6631,0.95593 z m 47.75557,-13.49937 c 11.39339,-2.99854 21.37281,-7.75086 21.87994,-10.4195 0.30946,-1.62847 -206.53623,-209.201417 -212.19402,-212.940069 -1.37948,-0.911562 -8.57571,-7.651587 -15.9916,-14.977835 -7.4159,-7.326247 -13.9769,-13.015482 -14.58,-12.642744 -1.38107,0.853547 -5.07912,16.477509 -7.14655,30.193635 -0.86758,5.755913 -1.58026,17.363693 -1.58371,25.795063 -0.014,34.08847 6.58122,56.5798 26.20413,89.36265 10.44133,17.44374 17.15433,26.50348 30.22545,40.79166 26.78228,29.27602 67.28305,54.64302 101.63572,63.65787 14.61845,3.83618 22.46495,4.63656 41.9284,4.27696 16.47688,-0.30443 20.67818,-0.74377 29.62224,-3.09769 z M 257.15948,166.13334 c 1.90965,-2.49334 5.23696,-6.45334 7.39403,-8.8 4.37481,-4.75933 59.56021,-78.893632 60.44542,-81.200441 0.30945,-0.806427 0.21926,-1.466231 -0.20042,-1.466231 -1.15122,0 -42.03492,29.805662 -46.93185,34.214982 -2.34666,2.113 -13.38666,10.46378 -24.53333,18.55731 -11.14667,8.09351 -21.3615,15.70835 -22.69964,16.92184 l -2.43297,2.20636 12.01557,12.04975 c 6.60857,6.62737 12.34307,12.04976 12.74334,12.04976 0.40027,0 2.29021,-2.04 4.19985,-4.53333 z"
       id="path821"
       inkscape:connector-curvature="0" />
    <path
       style="fill:#0b0b0b;stroke-width:1.06666672"
       d="m 0,434.74287 c 0,-4.18191 0.53965292,-7.40705 1.3832319,-8.26667 0.7607775,-0.77524 21.1921971,-46.04952 45.4031561,-100.60953 24.210957,-54.56 44.671283,-99.86563 45.467389,-100.67919 2.380896,-2.43309 4.206679,-0.80253 11.414103,10.19361 16.10635,24.57297 34.46114,42.82885 69.93212,69.55525 11.98113,9.02745 13.06666,10.13154 13.06666,13.28999 0,4.33583 11.50276,117.71998 12.27272,120.97368 l 0.56792,2.4 H 99.753654 0 Z m 189.74062,0.55761 c 1.11526,-0.70635 1.25189,-1.93539 0.56147,-5.05033 -0.50187,-2.26424 -1.01606,-6.75681 -1.14263,-9.98347 -0.49732,-12.67803 -7.80948,-89.03884 -9.47405,-98.93758 -0.49477,-2.94222 -2.54853,-4.95464 -13.48301,-13.21164 -27.87239,-21.04737 -47.57188,-40.07572 -62.37342,-60.24836 -4.410555,-6.01103 -8.576535,-10.71528 -9.257732,-10.45387 -1.39076,0.53368 -56.620563,124.49004 -58.426472,131.13088 -0.636243,2.33964 -1.862416,5.04851 -2.724827,6.0197 -0.862411,0.97119 -2.238866,3.99485 -3.058788,6.71924 -0.819922,2.72439 -2.38102,6.24979 -3.469106,7.8342 -3.269794,4.76131 -20.6681656,44.93286 -19.9580995,46.08176 0.8319379,1.34611 180.6838245,1.44397 182.8066645,0.0995 z M 282.66666,316.25525 C 240.58276,310.47593 197.96388,287.6745 162.12765,251.76595 127.67058,217.23934 105.27098,177.91925 98.609532,140.26667 96.099821,126.08101 96.025889,94.364928 98.469046,80.000002 102.83382,54.336647 108.55226,39.272418 114.17128,38.635253 c 2.19826,-0.249271 10.8373,7.91635 52.75779,49.866668 28.42459,28.444809 50.94751,50.164749 52.01933,50.164749 1.50483,0 101.61152,-72.119332 126.79178,-91.343927 l 6.00683,-4.586099 0.45267,-7.108991 c 0.40662,-6.385756 0.80101,-7.420234 3.87666,-10.168322 6.67013,-5.959763 16.99601,-3.237854 19.29433,5.086 2.17208,7.866621 -2.82062,14.914046 -11.37897,16.061964 -3.01829,0.404835 -5.32719,1.609829 -7.51479,3.921881 -4.90833,5.187556 -96.20482,128.493004 -96.25312,129.999874 -0.0236,0.73569 25.18285,26.29762 56.01428,56.80429 30.8864,30.56104 56.05076,56.28545 56.04288,57.29017 -0.0233,2.96436 -5.25067,7.04385 -15.48096,12.08132 -19.97491,9.83581 -46.84679,13.29765 -74.13333,9.55042 z m 48.34657,-9.18804 c 15.61262,-3.08903 29.5201,-9.2202 29.5201,-13.01406 0,-1.1315 -70.40826,-71.69249 -198.60838,-199.039223 -37.85927,-37.607243 -45.80371,-45.021115 -47.09484,-43.949575 -1.82553,1.515053 -5.21249,13.604717 -7.80761,27.868983 -2.85266,15.679958 -2.57821,49.261255 0.52035,63.667635 7.85109,36.50272 30.98137,75.31119 63.79862,107.04266 48.54375,46.93765 106.79255,67.88596 159.67176,57.42358 z M 260.07698,165.6 c 44.85294,-59.7401 68.43607,-91.714824 68.44517,-92.799998 0.006,-0.733334 -0.42536,-1.333334 -0.95889,-1.333334 -1.21308,0 -18.51307,12.391949 -47.56326,34.069472 -12.32,9.1933 -29.48,21.89106 -38.13334,28.21727 -8.65333,6.3262 -15.73333,11.81274 -15.73333,12.19231 0,1.23384 26.06438,26.85428 27.31959,26.85428 0.67006,0 3.65088,-3.24 6.62406,-7.2 z"
       id="path819"
       inkscape:connector-curvature="0" />
  </g>
</svg>
