<?xml version="1.0" encoding="UTF-8" standalone="no"?>
<!-- Created with Inkscape (http://www.inkscape.org/) -->

<svg
   xmlns:dc="http://purl.org/dc/elements/1.1/"
   xmlns:cc="http://creativecommons.org/ns#"
   xmlns:rdf="http://www.w3.org/1999/02/22-rdf-syntax-ns#"
   xmlns:svg="http://www.w3.org/2000/svg"
   xmlns="http://www.w3.org/2000/svg"
   xmlns:sodipodi="http://sodipodi.sourceforge.net/DTD/sodipodi-0.dtd"
   xmlns:inkscape="http://www.inkscape.org/namespaces/inkscape"
   version="1.1"
   id="svg2"
   width="642.1333"
   height="625.06665"
   viewBox="0 0 642.1333 625.06665"
   sodipodi:docname="teleport.svg"
   inkscape:version="0.92.4 (unknown)">
  <metadata
     id="metadata8">
    <rdf:RDF>
      <cc:Work
         rdf:about="">
        <dc:format>image/svg+xml</dc:format>
        <dc:type
           rdf:resource="http://purl.org/dc/dcmitype/StillImage" />
        <dc:title></dc:title>
      </cc:Work>
    </rdf:RDF>
  </metadata>
  <defs
     id="defs6" />
  <sodipodi:namedview
     pagecolor="#ffffff"
     bordercolor="#666666"
     borderopacity="1"
     objecttolerance="10"
     gridtolerance="10"
     guidetolerance="10"
     inkscape:pageopacity="0"
     inkscape:pageshadow="2"
     inkscape:window-width="1209"
     inkscape:window-height="849"
     id="namedview4"
     showgrid="false"
     inkscape:zoom="0.37755974"
     inkscape:cx="321.06665"
     inkscape:cy="312.53333"
     inkscape:window-x="49"
     inkscape:window-y="27"
     inkscape:window-maximized="0"
     inkscape:current-layer="svg2" />
  <g
     id="g817"
     transform="translate(0.94916266,0.83140482)">
    <path
       style="fill:#a0d5e2;stroke-width:1.0666666"
       d="M 55.820079,622.43719 C 38.349792,614.49444 17.307895,595.1542 6.8846883,577.45922 -0.11597808,565.57451 -0.16429399,565.22843 0.20323444,529.59999 l 0.33009887,-32 3.86622489,-8 C 11.539669,474.82566 17.1512,469.14177 26.04395,467.67652 c 2.395827,-0.39475 4.996532,-1.23584 5.779344,-1.86908 1.236075,-0.99988 8.710037,-14.80845 8.710037,-16.09228 0,-0.25929 -4.035371,-3.62248 -8.967493,-7.47376 -19.6078,-15.31088 -28.5703935,-31.03584 -28.6355736,-50.24141 -0.052508,-15.47158 5.6514767,-28.18601 18.4030676,-41.0212 11.362307,-11.43682 23.656175,-16.70653 41.599998,-17.83168 12.04759,-0.75544 23.650626,1.70097 35.733332,7.56486 4.106668,1.99301 10.214808,4.8974 13.573638,6.45418 6.77214,3.13879 9.87642,6.68434 10.97375,12.53367 1.00332,5.3481 -1.01041,10.74916 -5.46638,14.66156 -2.04714,1.7974 -3.43397,3.73418 -3.08184,4.30393 1.93565,3.13194 16.43416,11.72839 35.73416,21.18746 23.28499,11.41216 44.31876,23.83562 52.39763,30.94835 5.6677,4.98991 15.41854,18.85381 17.59097,25.01113 3.99859,11.33321 -1.54747,22.66553 -12.92193,26.4035 -5.05942,1.66266 -31.89052,1.64459 -50.66667,-0.0341 -6.74666,-0.6032 -15.86666,-1.09891 -20.26666,-1.10158 l -8,-0.005 0.0535,16.26239 c 0.0294,8.94432 0.46039,20.25639 0.95759,25.13794 1.13286,11.12212 2.87889,13.09951 18.04555,20.43656 22.9475,11.10113 47.89556,18.00622 90.46314,25.03825 44.10148,7.28543 79.33265,11.05658 120.3468,12.88193 13.51397,0.60144 45.24742,3.6522 60.8,5.84513 3.81333,0.53768 12.69333,0.71835 19.73333,0.40149 11.05543,-0.49762 13.30593,-0.31054 16.51207,1.37249 5.32795,2.79684 8.55459,8.12471 8.55459,14.1254 0,9.50047 -7.28448,15.80053 -23.44869,20.27985 -7.9306,2.19769 -9.01066,2.20968 -193.59652,2.14857 l -185.6214,-0.061 z m 458.846561,-9.59863 c -3.52,-0.77171 -10.61596,-1.74051 -15.7688,-2.15288 -7.64584,-0.61189 -9.92473,-1.21757 -12.39175,-3.29343 -4.15916,-3.49969 -8.05849,-15.61677 -7.07243,-21.97737 1.80173,-11.62211 5.23298,-15.87554 14.39125,-17.83963 2.94463,-0.63151 11.15822,-4.05783 18.25241,-7.61404 7.09418,-3.5562 18.49895,-8.62881 25.34392,-11.27245 6.84497,-2.64363 14.40555,-5.95353 16.80128,-7.35533 9.48146,-5.5478 15.37764,-15.5607 13.71413,-23.28937 -0.98165,-4.56074 -2.97054,-8.27756 -9.65016,-18.0341 -6.26796,-9.15526 -7.68868,-13.97048 -5.89165,-19.96844 2.89786,-9.6722 9.96698,-14.05864 23.78522,-14.75893 19.53432,-0.98996 37.87033,6.01354 52.48948,20.04849 13.78159,13.23088 13.46376,12.17207 13.46376,44.85285 0,19.26226 -0.3902,28.48231 -1.29356,30.56587 -2.17999,5.02803 -10.43233,14.98277 -16.69368,20.13746 -16.28393,13.40582 -37.12023,21.62155 -73.74609,29.07798 -19.65687,4.00183 -27.65312,4.6448 -35.73333,2.87332 z M 244.92724,478.94327 c -7.2045,-2.26655 -11.32725,-8.8663 -11.32725,-18.13281 0,-4.39045 -0.69136,-7.85063 -2.13334,-10.67714 -4.58704,-8.99134 -1.73858,-19.54927 6.42126,-23.80073 7.21196,-3.7576 29.53534,-0.0172 34.76699,5.82547 1.10646,1.23568 4.27207,3.77587 7.03469,5.64486 9.91608,6.70855 13.16434,14.33176 10.37959,24.35955 -2.66527,9.59758 -11.60562,15.35249 -25.00253,16.09415 -4.69333,0.25982 -10.45333,0.73811 -12.8,1.06288 -2.34666,0.32475 -5.64939,0.15545 -7.33941,-0.37623 z m 123.60607,-1.14129 c -4.69333,-0.50284 -19.09333,-1.32194 -31.99999,-1.82022 -17.38649,-0.67123 -24.45666,-1.34003 -27.28758,-2.58128 -10.16045,-4.45495 -12.54526,-16.9632 -4.72517,-24.78331 5.83698,-5.83698 25.5172,-10.40333 66.90187,-15.52305 14.49569,-1.79327 26.97569,-3.47748 27.73334,-3.7427 0.75764,-0.2652 10.78869,-1.68919 22.29122,-3.1644 25.28444,-3.24278 39.04108,-5.83185 56.69576,-10.67046 42.97291,-11.77757 66.73308,-26.5268 72.83874,-45.21499 1.85252,-5.67019 1.84722,-5.74951 -1.07,-16.01044 -3.50927,-12.34338 -2.89445,-16.69394 3.19313,-22.59526 3.76732,-3.65204 3.92989,-3.69732 13.70456,-3.81754 7.45747,-0.0917 11.44647,-0.71272 16.20806,-2.52319 15.05947,-5.726 36.02381,-0.64228 50.30635,12.19894 8.74848,7.86563 8.8097,8.11101 8.8097,35.30899 0,27.9919 -0.0352,28.10692 -12.37965,40.51177 -22.87697,22.98881 -71.857,44.42986 -127.78285,55.93705 -5.38785,1.10859 -19.8554,3.32649 -32.15012,4.92866 -18.67695,2.43386 -26.74052,2.93723 -49.0207,3.06009 -14.66667,0.0808 -30.50667,0.43247 -35.2,0.78132 -4.69333,0.34885 -12.37333,0.22287 -17.06667,-0.27998 z M 234.13332,344.48642 C 197.76152,342.01604 152.7369,334.41939 116.26666,324.5997 82.172069,315.41965 55.989111,302.21555 28.652714,280.41588 16.259835,270.53305 8.8719737,262.26693 4.9434628,253.8881 2.0108682,247.63339 1.6978573,245.93616 1.6513708,236.03753 L 1.5999999,225.09885 9.4372795,209.88276 C 20.124588,189.13333 31.057228,173.25316 37.720546,168.8 c 8.860446,-5.92153 19.097437,-4.24367 24.570826,4.02717 2.135953,3.22764 3.619223,4.27821 6.756051,4.78517 2.210582,0.35726 6.17924,1.07036 8.81924,1.58468 2.639999,0.51431 7.380837,1.22999 10.535194,1.59039 6.050616,0.69131 16.781943,5.56003 24.217773,10.98743 8.3342,6.08312 9.95087,14.87378 5.12818,27.88467 -1.71472,4.62607 -2.53494,8.51325 -2.13369,10.11195 1.62667,6.48118 13.42538,13.80612 31.58587,19.60932 28.78304,9.19765 103.53586,19.3426 197.86666,26.85316 25.89283,2.06157 70.42691,7.98442 84.39854,11.22466 8.88102,2.05964 12.22689,3.84767 17.14332,9.16139 10.75276,11.62166 12.51104,21.27867 5.35769,29.4259 -5.82437,6.63358 -11.87978,8.50209 -40.76622,12.5792 -38.24286,5.3977 -49.04992,6.04309 -107.73333,6.43383 -30.50666,0.20313 -61.70666,-0.0545 -69.33333,-0.5725 z m 308.26665,-27.68408 c -15.07849,-1.41759 -33.2691,-5.83831 -42.66666,-10.36893 -6.7562,-3.25722 -19.53136,-12.47015 -21.19349,-15.28391 -3.00558,-5.08806 -1.48375,-13.05787 3.30778,-17.32283 4.41619,-3.93086 18.54482,-8.34093 31.75237,-9.91107 16.62343,-1.97624 24.26111,-3.83172 37.59093,-9.1323 13.68868,-5.44329 19.36759,-10.11682 20.22638,-16.64558 0.89522,-6.8057 -1.39994,-13.09585 -7.74249,-21.21904 -8.94839,-11.46061 -16.47482,-24.33097 -16.47482,-28.17231 0,-4.52906 2.77936,-10.09207 6.14339,-12.29627 2.29431,-1.50329 4.39202,-1.6999 12.44143,-1.16609 12.18539,0.80809 20.21878,2.9614 30.8978,8.28202 12.29247,6.1245 21.14934,12.86292 28.9994,22.06316 13.28213,15.56656 16.41863,23.69189 16.43865,42.58543 0.0123,11.5491 -1.49841,20.68422 -4.31765,26.1095 -3.51577,6.76564 -11.52195,16.52368 -17.89334,21.80861 -19.10649,15.84845 -47.69619,23.4725 -77.50968,20.66961 z M 302.39998,194.09672 c -11.14666,-0.49922 -28.18666,-0.86131 -37.86666,-0.80464 -49.7122,0.29103 -54.84814,-0.10645 -113.06666,-8.74956 C 114.60239,179.06965 84.109627,170.51798 59.79235,158.83255 33.01356,145.96427 17.48786,132.966 9.3996212,116.64325 4.8335959,107.42863 4.800413,107.27844 4.8565728,96.080415 4.9213427,83.165583 6.6828452,77.377481 13.988328,66.074479 31.846575,38.444297 68.037979,18.288012 115.73333,9.409057 c 10.91439,-2.0318193 16.57123,-2.3896861 38.4,-2.4292844 l 25.59999,-0.04644 8.53334,3.4063214 c 4.871,1.944398 11.54914,3.689598 15.56025,4.066365 3.86481,0.363025 8.46323,1.533511 10.21871,2.601081 4.2903,2.609094 7.16732,8.834906 6.36563,13.77513 -1.38187,8.515534 -7.5034,12.420253 -30.03007,19.155202 -15.14246,4.527242 -19.27587,6.354109 -25.26633,11.167108 -8.90438,7.154156 -11.50123,14.87272 -7.3141,21.739627 4.88017,8.003525 41.58184,24.814503 64.62811,29.602533 13.88771,2.88526 57.6562,10.10811 77.81352,12.84108 23.26944,3.15493 41.0381,3.45613 65.09093,1.10341 8.8,-0.86078 20.22182,-1.57094 25.38182,-1.57813 9.99975,-0.014 10.71143,0.31935 15.68485,7.34523 1.42712,2.01607 2.78077,2.28974 12.52798,2.53283 10.76282,0.26841 10.98046,0.32506 14.4,3.74832 3.11935,3.12274 3.45808,4.06517 3.33473,9.27816 -0.13263,5.60533 -0.024,5.83887 3.2,6.8778 1.83551,0.5915 5.31684,1.38118 7.73629,1.75487 18.11318,2.79757 22.452,22.25877 6.70613,30.07935 -5.31801,2.64132 -18.36775,4.67233 -42.5718,6.6257 -19.25258,1.55377 -84.10134,2.17146 -109.33333,1.0414 z m 186.85048,-12.1582 c -7.78178,-2.09168 -13.5878,-6.65359 -17.06939,-13.41179 -2.62661,-5.0986 -2.95409,-6.73057 -2.52021,-12.55927 0.79784,-10.718 7.57906,-18.91492 17.94086,-21.68628 8.48274,-2.26878 13.52235,-0.0758 23.48528,10.21959 l 8.39494,8.67509 13.48634,-13.38794 c 7.41748,-7.36336 14.65602,-15.15496 16.08562,-17.31468 1.44065,-2.1764 6.34803,-6.38788 11.00923,-9.44804 8.66966,-5.69179 16.12759,-12.86907 18.27918,-17.591286 1.56092,-3.425866 -0.49971,-6.424335 -9.33334,-13.581108 -18.92369,-15.33146 -65.39278,-29.822023 -117.00703,-36.48656 -27.49415,-3.550102 -54.04336,-4.991549 -109.06862,-5.921712 -33.40787,-0.564735 -58.45321,-1.42707 -61.22672,-2.108097 -9.08918,-2.231812 -13.97328,-7.825394 -13.97328,-16.003104 0,-7.467993 5.0235,-13.9072723 13.30624,-17.0563652 C 291.78646,0.19100275 297.19505,3.7110569e-4 402.38018,1.8280345e-4 474.07548,5.4454664e-5 506.80327,0.36509214 512.24684,1.2256086 c 24.31533,3.8437483 63.74076,16.2708964 83.89247,26.4434494 17.28172,8.723787 38.39441,26.638239 43.70978,37.088446 2.16067,4.24795 2.28421,5.989811 2.28421,32.205696 0,32.29573 0.20228,31.57034 -11.49416,41.21812 -12.21849,10.07838 -20.78184,13.56824 -55.1725,22.48471 -17.01334,4.41106 -34.3253,8.28834 -38.47105,8.61619 -7.3045,0.57767 -7.65587,0.49236 -11.35689,-2.75717 l -3.81916,-3.35327 -3.31882,5.88063 c -3.98638,7.06347 -10.04937,11.72139 -17.27393,13.27079 -6.25339,1.3411 -5.46118,1.36654 -11.97633,-0.38468 z"
       id="path831"
       inkscape:connector-curvature="0" />
    <path
       style="fill:#a8e29b;stroke-width:1.0666666"
       d="M 59.717534,623.06815 C 32.909972,608.65674 15.192501,591.27521 3.3442397,567.76374 L 0,561.12748 v -29.28184 -29.28185 l 4.4261919,-8.20587 C 10.001355,484.02193 14.672891,479.23551 19.98427,478.41721 c 7.004466,-1.07913 8.490315,-1.97241 17.16489,-10.31945 l 8.489445,-8.16889 -1.597499,-4.85248 C 42.702365,451.00991 41.122661,449.23042 34.28847,444.09035 12.612682,427.78776 3.0999577,411.91459 3.0709441,391.99999 3.0353641,367.57836 20.626242,344.422 45.333331,336.36642 c 6.924013,-2.25752 10.746147,-2.80588 20.266666,-2.90767 14.696897,-0.15711 20.327095,1.33706 38.440723,10.20155 10.61028,5.19249 14.32899,7.57173 16.19888,10.3641 4.11021,6.13791 2.91315,13.79077 -3.13858,20.06521 -3.93049,4.07515 -3.56377,4.7994 5.52266,10.9069 6.8802,4.62457 12.77722,7.7708 34.87638,18.60753 26.12316,12.80999 48.53561,27.89251 52.30281,35.19733 0.94509,1.83258 3.25124,5.34299 5.1248,7.80093 1.87356,2.45794 4.26199,7.18891 5.30764,10.51327 1.62435,5.16425 1.70856,6.68709 0.57841,10.45921 -1.71927,5.7384 -8.86231,12.88766 -14.41725,14.42979 -5.21609,1.44807 -32.2286,1.55557 -47.46314,0.18889 -6.16,-0.55261 -15.97325,-1.1522 -21.80723,-1.33244 l -10.60721,-0.3277 -0.72339,3.4601 c -0.39785,1.90305 -1.18413,4.06305 -1.74726,4.8 -1.56201,2.04409 0.15315,34.64558 2.06264,39.20657 3.62008,8.64688 19.64482,18.06525 45.08911,26.50065 40.2724,13.35127 111.59586,24.13788 184.53332,27.90792 24.40833,1.26163 33.85144,2.21393 53.33334,5.3785 7.04,1.14354 17.28745,2.07927 22.77212,2.07938 12.39708,2.6e-4 16.25209,1.57764 19.31406,7.90281 2.56752,5.30379 2.74177,8.95591 0.66451,13.92748 -1.73839,4.16055 -4.68583,5.91076 -17.33482,10.29357 l -8.87854,3.07635 H 244.51953 c -174.978162,0 -181.209817,-0.0674 -184.801996,-1.9985 z M 517.09562,612.74007 c -0.32628,-0.32628 -6.49096,-1.28217 -13.69928,-2.12418 -14.58319,-1.70348 -16.95278,-2.93041 -19.26047,-9.97276 -0.69265,-2.11373 -1.96731,-4.93156 -2.83257,-6.26186 -1.94444,-2.98949 -1.0523,-11.41746 1.92089,-18.14616 1.55309,-3.51485 3.07044,-5.04295 6.59642,-6.64324 2.51865,-1.14311 5.27587,-2.08891 6.12714,-2.10179 0.85127,-0.0129 7.27807,-2.94757 14.28176,-6.52152 7.00369,-3.57395 18.19942,-8.61043 24.87941,-11.19219 13.8807,-5.36477 19.71711,-8.18741 24.57225,-11.88379 3.89837,-2.96796 8.85213,-12.12764 8.85213,-16.36792 0,-4.97727 -3.00151,-11.62877 -9.28555,-20.57723 -5.49445,-7.82405 -6.13581,-9.3124 -6.4987,-15.08078 -0.33813,-5.37475 8.7e-4,-6.99399 2.11619,-10.10794 5.51844,-8.12366 13.78448,-11.23502 27.53473,-10.36414 19.59691,1.24117 33.24414,7.33209 47.03346,20.99159 5.04174,4.99427 9.96174,10.71424 10.93333,12.71104 1.50728,3.09772 1.76507,7.71582 1.75653,31.46667 l -0.01,27.83612 -3.09259,5.3917 c -1.70093,2.96543 -7.18334,9.26392 -12.18314,13.99664 -16.81882,15.92042 -38.16271,24.62526 -80.44455,32.80833 -12.94819,2.50594 -27.84499,3.5958 -29.29737,2.14341 z M 248.86677,473.52071 c -2.45661,-1.216 -5.62285,-3.73562 -7.03609,-5.59915 -3.71863,-4.90344 -6.53655,-14.14381 -6.58693,-21.59947 -0.0778,-11.5128 6.98408,-18.58877 18.5517,-18.58877 7.07357,0 10.92002,1.68067 20.70947,9.0488 8.90763,6.70442 10.64163,8.84896 12.38255,15.31429 2.23865,8.31367 -2.1765,17.19561 -10.7125,21.55035 -5.92835,3.02442 -21.0849,2.95446 -27.3082,-0.12605 z m 167.89154,1.58266 c -0.46292,-0.48159 -13.66292,-0.974 -29.33333,-1.09424 -15.67042,-0.12025 -36.77429,-0.64973 -46.89749,-1.17663 -19.8257,-1.0319 -22.48538,-1.8501 -25.57845,-7.86867 -2.35563,-4.58364 -1.68994,-12.12839 1.39342,-15.79275 5.37965,-6.39333 28.05135,-10.95087 104.45752,-20.99836 37.0999,-4.87867 67.25556,-12.27422 91.19999,-22.36643 19.90438,-8.38937 33.82162,-19.4078 39.11335,-30.96646 2.59962,-5.67835 2.70712,-6.60619 2.01053,-17.35386 -0.69821,-10.77298 -0.6077,-11.546 1.76679,-15.08704 3.11264,-4.64184 12.44421,-9.80903 19.50933,-10.80293 2.93333,-0.41265 9.79894,-2.01016 15.25692,-3.55001 11.07036,-3.12328 15.31101,-2.88219 27.13563,1.54268 5.61782,2.10223 18.91775,10.96642 18.95781,12.63506 0.01,0.39028 1.44938,2.33464 3.2,4.3208 l 3.18297,3.61122 v 22.67144 22.67144 l -4.62369,6.25068 c -5.90479,7.98256 -17.52577,18.90491 -26.35331,24.76898 -8.83345,5.86801 -35.92535,19.10692 -49.06953,23.97865 -27.8342,10.3164 -56.81809,17.36496 -88.76157,21.58582 -20.99637,2.77436 -55.05537,4.59307 -56.56689,3.02061 z M 250.66665,343.48497 c -43.0597,-1.7901 -78.6913,-7.00115 -124.42176,-18.19645 C 85.058005,315.20555 56.078223,301.02627 26.635779,276.55161 15.375983,267.19166 11.11748,262.32215 6.7017175,253.75742 4.0090024,248.53468 3.7333331,246.95987 3.7333331,236.79999 v -11.2 l 6.5546489,-13.49357 c 7.276905,-14.98043 13.32429,-24.45152 20.559745,-32.19957 5.891226,-6.30858 9.321981,-8.17352 15.036091,-8.17352 5.123416,0 7.58758,1.13411 13.022621,5.99353 4.251499,3.80123 5.407573,4.19691 15.084863,5.163 3.441884,0.34361 8.481884,1.54153 11.199999,2.66205 2.718115,1.12052 7.582028,2.77964 10.808694,3.68691 15.671735,4.40657 21.437995,14.58046 18.147555,32.01917 -1.19156,6.31496 -1.12321,7.3372 0.73436,10.98577 5.76724,11.32764 30.16176,20.68054 72.85141,27.93138 34.61044,5.87859 106.31936,13.93846 157.33333,17.68382 23.31233,1.71155 35.19396,3.24385 58.83522,7.58764 17.01062,3.12549 22.30374,4.90346 26.49413,8.89947 1.76219,1.68044 5.54757,4.14278 8.41197,5.47186 4.19406,1.94606 5.61058,3.32664 7.27583,7.0912 1.77483,4.01233 1.90593,5.42961 0.92517,10.00274 -1.75784,8.19646 -3.95749,11.57118 -8.99445,13.79927 -8.46653,3.74515 -47.60706,9.41546 -80.14787,11.61108 -22.71965,1.53296 -82.65697,2.18307 -107.2,1.16275 z m 293.86666,-26.71958 c -22.15018,-1.62994 -42.85713,-8.21773 -56.98908,-18.13073 -10.00791,-7.02015 -11.91582,-13.94837 -6.18355,-22.45449 3.63225,-5.38991 16.89757,-10.31961 32.77684,-12.18067 24.07636,-2.82176 45.92369,-10.44382 53.7333,-18.7464 4.0678,-4.32456 4.12858,-4.51006 3.60704,-11.00743 -0.6197,-7.72018 -2.21973,-11.16971 -9.07154,-19.55743 -6.7741,-8.2926 -14.13968,-21.40294 -14.13968,-25.16788 0,-4.53668 3.11764,-10.29197 6.84796,-12.64158 2.81972,-1.77605 4.46926,-1.97353 11.63823,-1.39325 14.48047,1.17211 25.72302,5.06537 40.43539,14.00266 13.37964,8.1277 28.95209,27.12597 32.91466,40.15564 2.92717,9.6251 2.83112,28.89809 -0.18987,38.1005 -8.38345,25.53727 -36.28566,44.70341 -71.35173,49.01179 -4.97127,0.61079 -10.01127,1.03936 -11.2,0.95236 -1.18871,-0.087 -6.96131,-0.51139 -12.82797,-0.94309 z M 306.13332,194.04103 c -24.79112,-0.98046 -48.71693,-1.33104 -72,-1.05503 -18.22548,0.21605 -37.91097,-1.82726 -81.59999,-8.46994 -25.1016,-3.81656 -34.82642,-5.85018 -52.984703,-11.08001 C 74.703755,166.2804 54.334625,157.44687 37.866665,146.68628 28.759168,140.73522 13.656725,125.40436 10.248367,118.65029 5.9294364,110.09181 3.9090255,100.86669 4.5868431,92.799998 6.6603494,68.12323 27.904895,43.245925 60.266664,27.599074 92.078691,12.218024 124.34105,5.5646641 162.00359,6.6182051 c 15.55876,0.4352279 17.19403,0.6819616 24.67491,3.7229819 4.40651,1.791275 11.12651,3.606302 14.93333,4.033393 9.92982,1.114037 13.71987,3.182482 16.23035,8.857813 2.70276,6.110042 1.82073,11.192376 -2.72632,15.709386 -3.61277,3.588905 -10.72225,6.54483 -30.58254,12.715384 -13.51502,4.199093 -20.25835,8.33819 -25.60171,15.71449 -5.18687,7.160265 -3.86749,14.944973 3.46726,20.457802 8.33079,6.261448 38.201,19.318125 52.57817,22.982625 11.48342,2.92695 52.20816,10.02902 80.44144,14.02835 27.03783,3.83001 44.27509,4.16831 74.96284,1.47125 10.98974,-0.96586 21.74196,-1.42581 23.89383,-1.02212 3.51519,0.65945 6.38827,2.90259 10.83355,8.45818 1.08167,1.35184 3.42784,1.71892 10.98631,1.71892 10.99907,0 14.95319,1.46541 17.56088,6.50812 0.9306,1.79961 1.55172,4.90047 1.38025,6.89081 -0.17148,1.99033 0.16201,4.09258 0.74111,4.67168 0.57909,0.57909 4.54476,1.78742 8.81261,2.68519 4.26786,0.89777 9.2023,2.37829 10.96543,3.29005 10.15663,5.25219 9.68807,21.65688 -0.7602,26.61492 -14.50889,6.88492 -82.77976,10.51912 -148.66177,7.9136 z m 178.64299,-13.63685 c -8.93275,-4.05786 -15.39615,-13.51926 -15.39615,-22.53752 0,-5.28111 3.05735,-13.01079 6.68602,-16.90381 5.85276,-6.27911 17.88378,-8.78093 24.86525,-5.17067 3.97509,2.0556 16.17654,14.94293 17.53802,18.52388 1.32893,3.49536 1.26406,10.17053 -0.1349,13.88116 -1.51456,4.01725 -7.02705,9.65527 -11.89208,12.16291 -5.21607,2.68858 -15.79729,2.71009 -21.66616,0.0441 z m 65.36648,-20.83217 c -8.17055,-1.75538 -11.47615,-4.88814 -11.47615,-10.87611 0,-5.02145 1.18328,-6.80537 12.31264,-18.56257 3.6097,-3.81333 7.32947,-8.37333 8.26615,-10.13333 0.93668,-1.76 5.12454,-6.50302 9.30634,-10.54003 4.1818,-4.03703 8.80328,-9.15338 10.26996,-11.369673 2.5233,-3.812968 2.57815,-4.200828 1.02016,-7.213657 C 573.0285,77.701008 542.56311,62.77421 502.08808,52.780444 461.11555,42.663841 422.24447,38.804193 346.13332,37.29514 297.69296,36.334716 289.83054,35.807332 285.00957,33.195171 279.00692,29.942735 276.39668,18.701362 280.01804,11.698418 281.9466,7.9690075 285.099,6.2154168 295.5999,3.0307026 303.46151,0.64643201 303.53118,0.64464304 402.30522,0.2908221 l 98.83857,-0.35405211 16.50152,3.69676321 C 580.26366,17.66165 618.24898,36.666698 637.45049,63.575211 l 4.68281,6.562367 v 27.184203 27.184199 l -8.91472,8.55849 c -13.67288,13.12651 -28.83103,19.73334 -57.75194,25.17174 -13.15695,2.47408 -18.67161,2.76497 -25.32385,1.3358 z"
       id="path829"
       inkscape:connector-curvature="0" />
    <path
       style="fill:#88d874;stroke-width:1.0666666"
       d="M 59.717534,623.06815 C 32.909972,608.65674 15.192501,591.27521 3.3442397,567.76374 L 0,561.12748 V 531.80046 502.47343 L 3.9347452,495.2367 C 11.208018,481.85983 15.70209,477.86665 23.483696,477.86665 c 2.807425,0 4.902216,-1.4159 11.572128,-7.82179 4.479296,-4.30197 9.96652,-8.91493 12.193833,-10.25102 2.227313,-1.33607 3.870136,-2.97627 3.650718,-3.64487 -0.219419,-0.66861 -5.401765,-4.96392 -11.516326,-9.54513 C 19.774365,431.91167 11.577522,422.30107 6.7040218,408.28733 -3.4073968,379.21195 15.851133,346.17109 48.589096,336.42731 c 9.145768,-2.72206 27.62311,-2.57791 36.270384,0.28295 9.911607,3.27916 27.98951,13.83355 30.47857,17.79426 2.89349,4.60421 2.34854,13.79464 -1.09405,18.45098 -1.98971,2.69123 -2.23448,3.73586 -1.28921,5.50213 2.02962,3.79238 16.44353,12.52461 38.09008,23.07571 29.30109,14.28215 48.13531,26.93397 52.38062,35.18649 0.92808,1.80408 3.41777,5.25229 5.53268,7.66266 4.34106,4.9476 7.58828,12.94085 7.58043,18.65976 -0.0108,7.8742 -8.99232,15.8999 -20.15087,18.00642 -7.93123,1.49726 -16.86782,1.37595 -46.23971,-0.62771 -24.21942,-1.65218 -29.37925,-1.56221 -28.11081,0.49016 0.31483,0.50942 1.0243,10.51019 1.57658,22.22395 0.65934,13.98439 1.52884,22.55119 2.53212,24.948 3.58352,8.56093 19.70476,18.01366 45.05408,26.41757 40.2724,13.35127 111.59586,24.13788 184.53332,27.90792 24.40833,1.26163 33.85144,2.21393 53.33334,5.3785 7.04,1.14354 17.28745,2.07927 22.77212,2.07938 12.39708,2.6e-4 16.25209,1.57764 19.31406,7.90281 2.56752,5.30379 2.74177,8.95591 0.66451,13.92748 -1.73839,4.16055 -4.68583,5.91076 -17.33482,10.29357 l -8.87854,3.07635 H 244.51953 c -174.978162,0 -181.209817,-0.0674 -184.801996,-1.9985 z M 516.38106,609.10602 c -7.37633,-1.31982 -12.01613,-2.73113 -13.86666,-4.21793 -1.5296,-1.22893 -5.18166,-4.07842 -8.11569,-6.33218 -8.3057,-6.38 -8.61951,-6.94613 -7.07945,-12.77184 2.77779,-10.50781 5.03034,-13.61015 12.73937,-17.54545 3.92773,-2.00504 11.22134,-5.84724 16.20801,-8.53824 4.98667,-2.691 14.71622,-7.06981 21.62125,-9.73071 14.97435,-5.77047 20.87144,-9.07504 25.40121,-14.23416 9.23304,-10.51584 8.09229,-20.57576 -4.62184,-40.75877 -3.08693,-4.90034 -3.0729,-12.88077 0.0332,-18.86433 3.44465,-6.63585 9.85976,-9.43005 21.56623,-9.39351 11.14501,0.0348 18.26379,1.68993 29.33333,6.82005 10.48252,4.85807 20.35739,12.93502 27.27134,22.30602 l 5.2298,7.08835 0.0161,27.25783 0.0161,27.25784 -3.2516,5.12724 c -14.41035,22.72276 -40.94915,36.80945 -85.28173,45.26719 -17.10852,3.26396 -24.61111,3.51847 -37.21891,1.2626 z M 248.86677,473.52071 c -2.45661,-1.216 -5.62285,-3.73562 -7.03609,-5.59915 -3.71863,-4.90344 -6.53655,-14.14381 -6.58693,-21.59947 -0.0778,-11.5128 6.98408,-18.58877 18.5517,-18.58877 7.07357,0 10.92002,1.68067 20.70947,9.0488 8.90763,6.70442 10.64163,8.84896 12.38255,15.31429 2.23865,8.31367 -2.1765,17.19561 -10.7125,21.55035 -5.92835,3.02442 -21.0849,2.95446 -27.3082,-0.12605 z m 167.89154,1.58266 c -0.46292,-0.48159 -13.66292,-0.974 -29.33333,-1.09424 -15.67042,-0.12025 -36.77429,-0.64973 -46.89749,-1.17663 -19.8257,-1.0319 -22.48538,-1.8501 -25.57845,-7.86867 -2.35563,-4.58364 -1.68994,-12.12839 1.39342,-15.79275 5.37965,-6.39333 28.05135,-10.95087 104.45752,-20.99836 37.0999,-4.87867 67.25556,-12.27422 91.19999,-22.36643 19.90438,-8.38937 33.82162,-19.4078 39.11335,-30.96646 2.59962,-5.67835 2.70712,-6.60619 2.01053,-17.35386 -0.69821,-10.77298 -0.6077,-11.546 1.76679,-15.08704 3.11264,-4.64184 12.44421,-9.80903 19.50933,-10.80293 2.93333,-0.41265 9.79894,-2.01016 15.25692,-3.55001 11.07036,-3.12328 15.31101,-2.88219 27.13563,1.54268 5.61782,2.10223 18.91775,10.96642 18.95781,12.63506 0.01,0.39028 1.44938,2.33464 3.2,4.3208 l 3.18297,3.61122 v 22.67144 22.67144 l -4.62369,6.25068 c -5.90479,7.98256 -17.52577,18.90491 -26.35331,24.76898 -8.83345,5.86801 -35.92535,19.10692 -49.06953,23.97865 -27.8342,10.3164 -56.81809,17.36496 -88.76157,21.58582 -20.99637,2.77436 -55.05537,4.59307 -56.56689,3.02061 z M 250.66665,343.48497 c -43.0597,-1.7901 -78.6913,-7.00115 -124.42176,-18.19645 C 85.058005,315.20555 56.078223,301.02627 26.635779,276.55161 15.375983,267.19166 11.11748,262.32215 6.7017175,253.75742 4.0090024,248.53468 3.7333331,246.95987 3.7333331,236.79999 v -11.2 l 6.5546489,-13.49357 c 7.276905,-14.98043 13.32429,-24.45152 20.559745,-32.19957 5.891226,-6.30858 9.321981,-8.17352 15.036091,-8.17352 5.123416,0 7.58758,1.13411 13.022621,5.99353 4.251499,3.80123 5.407573,4.19691 15.084863,5.163 3.441884,0.34361 8.481884,1.54153 11.199999,2.66205 2.718115,1.12052 7.582028,2.77964 10.808694,3.68691 15.671735,4.40657 21.437995,14.58046 18.147555,32.01917 -1.19156,6.31496 -1.12321,7.3372 0.73436,10.98577 5.76724,11.32764 30.16176,20.68054 72.85141,27.93138 34.61044,5.87859 106.31936,13.93846 157.33333,17.68382 23.31233,1.71155 35.19396,3.24385 58.83522,7.58764 17.01062,3.12549 22.30374,4.90346 26.49413,8.89947 1.76219,1.68044 5.54757,4.14278 8.41197,5.47186 4.19406,1.94606 5.61058,3.32664 7.27583,7.0912 1.77483,4.01233 1.90593,5.42961 0.92517,10.00274 -1.75784,8.19646 -3.95749,11.57118 -8.99445,13.79927 -8.46653,3.74515 -47.60706,9.41546 -80.14787,11.61108 -22.71965,1.53296 -82.65697,2.18307 -107.2,1.16275 z m 294.93332,-27.75051 c -23.52006,-1.82306 -42.12901,-8.25645 -53.40083,-18.46149 l -5.26583,-4.76747 v -6.94077 c 0,-5.22601 0.48168,-7.47303 1.94973,-9.09518 3.52224,-3.89204 18.64738,-9.48906 32.14258,-11.89427 14.83983,-2.64488 25.37698,-5.96315 37.56331,-11.82914 11.32766,-5.45267 13.6795,-8.56247 13.67291,-18.07948 -0.005,-7.45898 -1.93334,-11.88245 -9.06663,-20.8 -4.90533,-6.1323 -9.59524,-15.90105 -9.59524,-19.98623 0,-4.73139 3.18471,-10.42465 7.46612,-13.3471 10.51437,-7.17699 38.76813,2.12323 56.59748,18.63007 8.81809,8.164 15.22593,16.7243 19.96399,26.67011 3.69917,7.76504 3.97897,9.06802 4.34251,20.22258 0.32718,10.03901 0.027,13.00939 -1.90014,18.80034 -8.8415,26.56874 -34.05452,45.15877 -68.33663,50.38591 -10.7519,1.63939 -11.21846,1.64818 -26.13333,0.49212 z M 308.79998,193.06292 c -9.97333,-0.45999 -35.65333,-1.16031 -57.06666,-1.55627 -42.19694,-0.78028 -56.41882,-1.90826 -95.25778,-7.55513 -36.0034,-5.23463 -55.23715,-9.84874 -80.742211,-19.36979 C 36.797723,150.04708 11.148682,127.94095 6.3390123,104.77289 0.86117468,78.386286 22.497643,47.39786 59.199997,29.063733 88.36221,14.496172 116.88654,8.1481724 153.59999,8.0553093 c 20.29391,-0.051331 22.32699,0.1204575 28.26667,2.3884517 3.52,1.344068 10,3.681755 14.4,5.194862 10.85773,3.733842 13.06676,6.024629 13.65527,14.16072 0.44463,6.146991 0.30826,6.582528 -3.12852,9.991541 -2.27927,2.260846 -6.51912,4.603117 -11.59342,6.404679 -4.4,1.562161 -12.21819,4.3392 -17.37375,6.1712 -15.15024,5.383549 -25.5575,16.799261 -23.62776,25.917255 1.67757,7.926508 8.61479,13.022924 31.49336,23.136522 20.92508,9.25006 28.85604,11.42618 65.86475,18.07221 59.35878,10.65966 59.19069,10.64058 93.74389,10.64058 33.25036,0 37.18636,0.51292 39.67918,5.17079 1.51891,2.83812 3.41451,3.34765 16.11352,4.33133 9.7038,0.75166 10.99867,1.10892 13.82168,3.81353 1.71314,1.6413 3.42302,4.38745 3.79972,6.10258 0.84275,3.83703 2.23624,4.43643 17.01873,7.32039 13.67678,2.66825 14.89131,3.20004 17.65309,7.72945 4.78928,7.85458 1.32168,18.88568 -6.815,21.67986 -5.51396,1.89354 -23.57477,4.38191 -41.77142,5.75517 -19.84731,1.49783 -73.37179,2.07015 -96,1.02649 z m 178.54407,-13.20119 c -10.03321,-3.58547 -16.40223,-12.15561 -16.33485,-21.98014 0.11199,-16.33124 15.62578,-26.57571 29.58783,-19.53822 4.68432,2.36111 11.25562,8.75867 14.25692,13.88001 2.28555,3.90002 2.65631,5.62835 2.25234,10.49971 -1.12224,13.53277 -15.95346,22.07336 -29.76224,17.13864 z m 62.79874,-20.28972 c -8.17055,-1.75538 -11.47615,-4.88814 -11.47615,-10.87611 0,-5.02145 1.18328,-6.80537 12.31264,-18.56257 3.6097,-3.81333 7.32947,-8.37333 8.26615,-10.13333 0.93668,-1.76 5.12454,-6.50302 9.30634,-10.54003 4.1818,-4.03703 8.80328,-9.15338 10.26996,-11.369673 2.5233,-3.812968 2.57815,-4.200828 1.02016,-7.213657 C 573.0285,77.701008 542.56311,62.77421 502.08808,52.780444 461.11555,42.663841 422.24447,38.804193 346.13332,37.29514 297.69296,36.334716 289.83054,35.807332 285.00957,33.195171 279.00692,29.942735 276.39668,18.701362 280.01804,11.698418 281.9466,7.9690075 285.099,6.2154168 295.5999,3.0307026 303.46151,0.64643201 303.53118,0.64464304 402.30522,0.2908221 l 98.83857,-0.35405211 16.50152,3.69676321 C 580.26366,17.66165 618.24898,36.666698 637.45049,63.575211 l 4.68281,6.562367 v 27.184203 27.184199 l -8.91472,8.55849 c -13.67288,13.12651 -28.83103,19.73334 -57.75194,25.17174 -13.15695,2.47408 -18.67161,2.76497 -25.32385,1.3358 z"
       id="path827"
       inkscape:connector-curvature="0" />
    <path
       style="fill:#2aa2c3;stroke-width:1.0666666"
       d="M 59.717534,623.06815 C 32.909972,608.65674 15.192501,591.27521 3.3442397,567.76374 L 0,561.12748 v -29.32702 -29.32703 l 3.9347452,-7.23673 c 7.2613318,-13.35492 11.7698678,-17.37005 19.5045958,-17.37005 2.775857,0 4.984036,-1.53271 12.29399,-8.53333 10.331429,-9.89424 12.229078,-10.37202 23.070912,-5.80876 12.70575,5.34778 13.901955,0.9567 1.462421,-5.36832 -11.272447,-5.73158 -27.124552,-16.65045 -35.41756,-24.39546 -26.631603,-24.87182 -26.6980621,-59.23219 -0.161015,-83.24685 7.831363,-7.08697 17.056478,-11.69875 27.800273,-13.89779 16.341887,-3.34485 29.776827,-1.08894 44.668242,7.50042 14.971776,8.63572 18.930846,14.66916 15.993716,24.37376 -2.93717,9.70477 -2.97862,9.54231 3.80983,14.93282 3.56109,2.82775 16.90518,10.31151 31.08351,17.43253 29.67917,14.90627 42.81128,23.74197 47.97235,32.27728 1.91548,3.1678 5.5899,7.9288 8.16537,10.58 5.548,5.71113 8.75701,13.7178 7.71305,19.24448 -1.38089,7.31041 -4.1367,10.16986 -13.14569,13.64007 -11.5144,4.43529 -20.64203,4.9832 -48.88208,2.9343 -36.2931,-2.63318 -38.01741,-2.82729 -44.2297,-4.97915 -7.011817,-2.4288 -9.636965,-2.54973 -9.636965,-0.44392 0,2.50775 4.589075,4.83839 9.173175,4.65878 4.31223,-0.16897 8.96016,1.58225 8.96016,3.37594 0,0.55097 1.42577,1.73904 3.16838,2.64019 5.03522,2.60381 5.75123,5.12143 6.52688,22.94968 0.46097,10.5956 1.28063,17.87411 2.28229,20.26667 3.62008,8.64688 19.64482,18.06525 45.08911,26.50065 40.2724,13.35127 111.59586,24.13788 184.53332,27.90792 24.40833,1.26163 33.85144,2.21393 53.33334,5.3785 7.04,1.14354 17.28745,2.07927 22.77212,2.07938 12.39708,2.6e-4 16.25209,1.57764 19.31406,7.90281 2.56752,5.30379 2.74177,8.95591 0.66451,13.92748 -1.73839,4.16055 -4.68583,5.91076 -17.33482,10.29357 l -8.87854,3.07635 H 244.51953 c -174.978162,0 -181.209817,-0.0674 -184.801996,-1.9985 z M 522.66664,606.87143 c -7.08236,-1.04837 -7.94887,-1.38808 -18.2449,-7.15256 -9.56484,-5.35511 -11.97928,-7.74135 -11.85414,-11.71568 0.13521,-4.29384 5.06882,-14.74634 7.91248,-16.7636 10.88772,-7.72362 24.40086,-15.11595 35.38232,-19.35583 17.21044,-6.64484 20.32543,-8.29237 26.37189,-13.94812 10.17547,-9.51796 10.8508,-19.19083 2.52722,-36.198 -5.3328,-10.89626 -5.89359,-15.46595 -2.73309,-22.27099 4.20317,-9.05007 8.08397,-11.2 20.21688,-11.2 19.76217,0 40.338,10.32816 52.53555,26.37054 2.57719,3.38954 5.28578,6.79708 6.01912,7.57232 0.99285,1.04958 1.33333,8.15702 1.33333,27.83272 v 26.42318 l -5.23711,7.45739 c -12.63329,17.98914 -32.88514,30.44562 -62.01695,38.14527 -21.06843,5.56848 -37.08784,7.0422 -52.2126,4.80336 z M 248.86677,473.52071 c -2.45661,-1.216 -5.62285,-3.73562 -7.03609,-5.59915 -3.71863,-4.90344 -6.53655,-14.14381 -6.58693,-21.59947 -0.0778,-11.5128 6.98408,-18.58877 18.5517,-18.58877 7.07357,0 10.92002,1.68067 20.70947,9.0488 8.90763,6.70442 10.64163,8.84896 12.38255,15.31429 2.23865,8.31367 -2.1765,17.19561 -10.7125,21.55035 -5.92835,3.02442 -21.0849,2.95446 -27.3082,-0.12605 z m 167.89154,1.58266 c -0.46292,-0.48159 -13.66292,-0.974 -29.33333,-1.09424 -15.67042,-0.12025 -36.77429,-0.64973 -46.89749,-1.17663 -19.8257,-1.0319 -22.48538,-1.8501 -25.57845,-7.86867 -2.35563,-4.58364 -1.68994,-12.12839 1.39342,-15.79275 5.37965,-6.39333 28.05135,-10.95087 104.45752,-20.99836 37.0999,-4.87867 67.25556,-12.27422 91.19999,-22.36643 19.90438,-8.38937 33.82162,-19.4078 39.11335,-30.96646 2.59962,-5.67835 2.70712,-6.60619 2.01053,-17.35386 -0.69821,-10.77298 -0.6077,-11.546 1.76679,-15.08704 3.11264,-4.64184 12.44421,-9.80903 19.50933,-10.80293 2.93333,-0.41265 9.79894,-2.01016 15.25692,-3.55001 11.07036,-3.12328 15.31101,-2.88219 27.13563,1.54268 5.61782,2.10223 18.91775,10.96642 18.95781,12.63506 0.01,0.39028 1.44938,2.33464 3.2,4.3208 l 3.18297,3.61122 v 22.67144 22.67144 l -4.62369,6.25068 c -5.90479,7.98256 -17.52577,18.90491 -26.35331,24.76898 -8.83345,5.86801 -35.92535,19.10692 -49.06953,23.97865 -27.8342,10.3164 -56.81809,17.36496 -88.76157,21.58582 -20.99637,2.77436 -55.05537,4.59307 -56.56689,3.02061 z M 250.66665,343.48497 c -43.0597,-1.7901 -78.6913,-7.00115 -124.42176,-18.19645 C 85.058005,315.20555 56.078223,301.02627 26.635779,276.55161 15.375983,267.19166 11.11748,262.32215 6.7017175,253.75742 4.0090024,248.53468 3.7333331,246.95987 3.7333331,236.79999 v -11.2 l 6.5546489,-13.49357 c 7.276905,-14.98043 13.32429,-24.45152 20.559745,-32.19957 5.891226,-6.30858 9.321981,-8.17352 15.036091,-8.17352 5.123416,0 7.58758,1.13411 13.022621,5.99353 4.251499,3.80123 5.407573,4.19691 15.084863,5.163 3.441884,0.34361 8.481884,1.54153 11.199999,2.66205 2.718115,1.12052 7.582028,2.77964 10.808694,3.68691 15.671735,4.40657 21.437995,14.58046 18.147555,32.01917 -1.19156,6.31496 -1.12321,7.3372 0.73436,10.98577 5.76724,11.32764 30.16176,20.68054 72.85141,27.93138 34.61044,5.87859 106.31936,13.93846 157.33333,17.68382 23.31233,1.71155 35.19396,3.24385 58.83522,7.58764 17.01062,3.12549 22.30374,4.90346 26.49413,8.89947 1.76219,1.68044 5.54757,4.14278 8.41197,5.47186 4.19406,1.94606 5.61058,3.32664 7.27583,7.0912 1.77483,4.01233 1.90593,5.42961 0.92517,10.00274 -1.75784,8.19646 -3.95749,11.57118 -8.99445,13.79927 -8.46653,3.74515 -47.60706,9.41546 -80.14787,11.61108 -22.71965,1.53296 -82.65697,2.18307 -107.2,1.16275 z M 542.54468,314.6372 c -21.06407,-2.40521 -39.67537,-10.43929 -47.64051,-20.56531 -5.13168,-6.52388 -3.30806,-15.99502 3.7156,-19.29734 10.79919,-5.07744 16.62036,-7.13921 28.67733,-10.15712 15.1622,-3.79513 33.58208,-11.00538 39.34542,-15.40129 10.15471,-7.74537 9.53784,-18.09328 -2.12695,-35.68007 -7.42276,-11.19116 -9.27638,-15.90113 -8.30199,-21.09507 0.90382,-4.81777 6.10765,-10.65222 10.91634,-12.23923 8.06254,-2.66088 23.27565,1.52437 37.28898,10.2585 15.13162,9.43112 25.21134,20.69256 32.66617,36.49582 3.93544,8.34265 4.43932,10.33506 4.84684,19.16523 0.50508,10.94406 -0.69143,16.02888 -6.55223,27.84523 -13.96665,28.15902 -52.92727,45.22752 -92.835,40.67065 z M 303.99998,191.97513 c -10.85333,-0.39563 -36.53333,-1.28446 -57.06666,-1.97517 -47.76642,-1.60678 -60.44081,-2.58492 -91.73333,-7.07951 C 92.383241,173.89801 47.47234,156.54965 22.900908,131.81543 3.2186601,112.00279 1.124065,88.543186 16.955808,65.229911 22.700397,56.770629 34.950567,44.773176 43.959011,38.783776 61.511519,27.113726 91.167198,15.89863 115.73333,11.640379 126.91896,9.7014814 133.82778,9.2231943 151.46666,9.1666144 l 21.86666,-0.070141 10.50608,4.0043396 c 13.53615,5.159235 14.27925,5.58671 16.74701,9.63393 2.63131,4.315427 2.65438,10.977303 0.0528,15.243681 -2.60077,4.265057 -6.9808,6.918139 -18.98262,11.498211 -14.2164,5.425177 -17.62164,7.414567 -23.07628,13.481436 -7.64711,8.505424 -8.05636,17.094784 -1.14386,24.007284 6.29898,6.298981 38.0141,21.027515 55.89686,25.958565 4.4,1.21327 26.24,5.87303 48.53333,10.35502 l 40.53333,8.14909 28.26667,0.78875 c 29.49146,0.82292 31.51992,1.14797 37.99814,6.08915 3.28538,2.50587 5.298,2.98294 17.26044,4.09134 15.61315,1.44665 17.27475,1.97089 17.27475,5.45018 0,3.67666 3.34237,6.48678 8.68718,7.3038 18.16281,2.77643 24.43654,4.13736 28.64615,6.21409 4.01534,1.9809 5.04482,3.14201 6.29765,7.10291 1.28577,4.06502 1.28577,5.33412 0,8.97004 -0.82371,2.32931 -2.69765,5.12073 -4.16432,6.20316 -9.73279,7.18295 -70.32958,10.82474 -138.66666,8.33368 z m 183.69668,-13.72512 c -9.48748,-3.27716 -15.16335,-10.66542 -15.16335,-19.73808 0,-11.65775 8.06087,-19.88016 19.4324,-19.82184 11.68681,0.0599 23.19985,11.56432 23.22831,23.21083 0.0164,6.74406 -7.11848,15.14854 -14.63156,17.23494 -5.29972,1.47174 -6.22491,1.40804 -12.8658,-0.88585 z m 62.44613,-18.678 c -8.17055,-1.75538 -11.47615,-4.88814 -11.47615,-10.87611 0,-5.02145 1.18328,-6.80537 12.31264,-18.56257 3.6097,-3.81333 7.32947,-8.37333 8.26615,-10.13333 0.93668,-1.76 5.12454,-6.50302 9.30634,-10.54003 4.1818,-4.03703 8.80328,-9.15338 10.26996,-11.369673 2.5233,-3.812968 2.57815,-4.200828 1.02016,-7.213657 C 573.0285,77.701008 542.56311,62.77421 502.08808,52.780444 461.11555,42.663841 422.24447,38.804193 346.13332,37.29514 297.69296,36.334716 289.83054,35.807332 285.00957,33.195171 279.00692,29.942735 276.39668,18.701362 280.01804,11.698418 281.9466,7.9690075 285.099,6.2154168 295.5999,3.0307026 303.46151,0.64643201 303.53118,0.64464304 402.30522,0.2908221 l 98.83857,-0.35405211 16.50152,3.69676321 C 580.26366,17.66165 618.24898,36.666698 637.45049,63.575211 l 4.68281,6.562367 v 27.184203 27.184199 l -8.91472,8.55849 c -13.67288,13.12651 -28.83103,19.73334 -57.75194,25.17174 -13.15695,2.47408 -18.67161,2.76497 -25.32385,1.3358 z"
       id="path825"
       inkscape:connector-curvature="0" />
    <path
       style="fill:#0493b8;stroke-width:1.0666666"
       d="m 62.93333,623.99998 c -0.88,-0.5687 -1.12,-1.04809 -0.533333,-1.06533 0.586666,-0.0173 -2.533333,-1.99104 -6.933333,-4.38623 -11.359638,-6.18374 -20.554641,-13.28188 -30.47566,-23.52585 -9.54333,-9.854 -13.434423,-15.16729 -18.5578701,-25.34078 -1.8977655,-3.76834 -4.1446921,-7.54574 -4.9931702,-8.39422 -1.28039503,-1.2804 -1.48861539,-6.01595 -1.224659,-27.85237 l 0.31802861,-26.30969 3.73333309,-5.1857 c 5.0763288,-7.05117 8.4796186,-9.34533 14.7584426,-9.94864 4.979138,-0.47844 5.645705,-0.9137 10.479458,-6.84313 5.551178,-6.80947 15.471783,-13.49794 21.462669,-14.47012 1.957653,-0.31769 5.390882,0.0269 7.629398,0.76562 5.839874,1.92734 13.88075,-0.72448 11.003362,-3.62882 -0.44,-0.44412 -0.8,-1.81993 -0.8,-3.05734 0,-1.7391 -1.93717,-3.23622 -8.533332,-6.59492 -11.286261,-5.74683 -27.13392,-16.66542 -35.41756,-24.40168 -26.631603,-24.87182 -26.6980621,-59.23219 -0.161015,-83.24685 7.831363,-7.08697 17.056478,-11.69875 27.800273,-13.89779 16.341887,-3.34485 29.776827,-1.08894 44.668242,7.50042 14.971776,8.63572 18.930846,14.66916 15.993716,24.37376 -2.93717,9.70477 -2.97862,9.54231 3.80983,14.93282 3.56109,2.82775 16.90518,10.31151 31.08351,17.43253 29.67917,14.90627 42.81128,23.74197 47.97235,32.27728 1.91548,3.1678 5.5899,7.9288 8.16537,10.58 5.548,5.71113 8.75701,13.7178 7.71305,19.24448 -1.38089,7.31041 -4.1367,10.16986 -13.14569,13.64007 -11.5144,4.43529 -20.64203,4.9832 -48.88208,2.9343 -36.2931,-2.63318 -38.01741,-2.82729 -44.2297,-4.97915 -7.829103,-2.71189 -10.053186,-2.6595 -9.300406,0.21913 0.533328,2.03946 0.259882,2.17741 -3.075594,1.55167 -2.01353,-0.37773 -3.660965,-0.4481 -3.660965,-0.15637 0,1.33322 9.637135,6.96068 13.874105,8.10158 10.27588,2.76701 15.06743,11.38018 17.08506,30.71169 1.11123,10.64706 2.49226,14.2654 8.07739,21.16303 6.51965,8.05175 28.59852,17.65359 58.56344,25.46854 39.20359,10.22443 109.7395,19.8329 164.26666,22.37657 22.09237,1.0306 36.57609,2.65921 47.46666,5.33735 5.57334,1.37056 14.44611,2.78439 19.71729,3.14186 11.59841,0.78653 16.29423,2.87863 19.087,8.50371 1.72065,3.46566 1.82711,4.62834 0.75225,8.21589 -1.81542,6.05934 -7.19668,9.16733 -22.21613,12.83114 l -12.49593,3.04821 -169.62223,-0.0163 c -107.66853,-0.0104 -170.206623,-0.394 -171.22223,-1.05034 z m 459.73331,-17.12855 c -7.08236,-1.04837 -7.94887,-1.38808 -18.2449,-7.15256 -9.56484,-5.35511 -11.97928,-7.74135 -11.85414,-11.71568 0.13521,-4.29384 5.06882,-14.74634 7.91248,-16.7636 10.88772,-7.72362 24.40086,-15.11595 35.38232,-19.35583 17.21044,-6.64484 20.32543,-8.29237 26.37189,-13.94812 10.17547,-9.51796 10.8508,-19.19083 2.52722,-36.198 -5.3328,-10.89626 -5.89359,-15.46595 -2.73309,-22.27099 4.20317,-9.05007 8.08397,-11.2 20.21688,-11.2 19.76217,0 40.338,10.32816 52.53555,26.37054 2.57719,3.38954 5.28578,6.79708 6.01912,7.57232 0.99285,1.04958 1.33333,8.15702 1.33333,27.83272 v 26.42318 l -5.23711,7.45739 c -12.63329,17.98914 -32.88514,30.44562 -62.01695,38.14527 -21.06843,5.56848 -37.08784,7.0422 -52.2126,4.80336 z M 108.29933,481.24259 c -2.94406,-1.32215 -3.73946,-2.09121 -2.6108,-2.52432 1.98215,-0.76062 8.4448,1.81344 8.4448,3.36356 0,1.51224 -0.87973,1.38569 -5.834,-0.83924 z m 143.76744,-9.79155 c -5.00551,-2.54905 -9.05279,-7.32233 -12.15501,-14.33538 -2.35605,-5.32627 -1.77009,-10.5367 1.88968,-16.8031 2.46797,-4.22573 8.23203,-8.31257 11.72403,-8.31257 4.73569,0 19.32379,6.36701 22.07239,9.63354 7.95473,9.45366 5.69017,25.2649 -4.21108,29.4019 -6.62898,2.76977 -14.37019,2.9363 -19.32001,0.41561 z m 171.06274,1.45625 c -0.38098,-0.38098 -15.94098,-1.04003 -34.57778,-1.46455 -32.68917,-0.74463 -34.19374,-0.8718 -42.63064,-3.60319 -9.76961,-3.16285 -13.12111,-6.187 -13.12111,-11.83956 0,-6.73648 6.21674,-11.52779 19.2,-14.79767 9.31868,-2.34694 48.06087,-8.70269 72.46757,-11.8885 69.89671,-9.12359 117.12912,-29.02709 128.66159,-54.21732 1.41898,-3.09945 2.98889,-8.62552 3.48869,-12.28017 0.74512,-5.44845 1.57725,-7.3564 4.6218,-10.59724 2.0422,-2.17383 4.4942,-5.21814 5.44891,-6.7651 2.65864,-4.30798 8.76211,-7.64879 12.82264,-7.01865 2.30527,0.35775 4.58286,-0.17358 6.9787,-1.62803 3.37551,-2.0492 13.0447,-3.29641 24.82823,-3.20255 8.48401,0.0675 20.56423,7.94494 27.12593,17.68852 l 3.68926,5.47823 v 17.80471 c 0,12.77706 -0.3765,18.20478 -1.33333,19.22149 -0.73334,0.77922 -3.19638,4.18017 -5.47343,7.55767 -10.77547,15.98298 -33.43947,31.08154 -67.32657,44.85237 -20.46797,8.31766 -47.53583,16.22716 -69.86666,20.41576 -25.74563,4.82911 -72.53822,8.74937 -75.0038,6.28378 z M 245.3058,341.35332 C 206.04109,339.38072 176.73593,335.14337 133.33333,325.16281 92.344689,315.73734 66.584114,304.66929 40.56379,285.30431 3.5132396,257.73037 -1.9119791,242.32697 13.823412,209.38248 c 2.859256,-5.98629 7.452888,-14.04321 10.20807,-17.90426 9.53681,-13.36464 16.150518,-15.91435 26.802063,-10.33274 3.428215,1.79645 11.513118,4.67973 17.966451,6.4073 15.316361,4.10022 29.343583,9.2792 31.515404,11.6358 2.78927,3.02657 7.41793,14.63149 7.41793,18.59813 0,2.00931 0.421,4.10928 0.93555,4.66662 0.51455,0.55733 1.72375,3.4449 2.68712,6.41683 5.95735,18.37808 36.80286,28.72072 115.84399,38.84305 30.23871,3.87249 78.16357,8.74241 115.35261,11.72165 43.79741,3.50865 59.41711,7.09434 67.79606,15.56339 3.37345,3.40973 5.61597,4.70871 9.06667,5.25186 9.77051,1.53792 12.52793,2.67948 14.17752,5.86944 2.67126,5.16564 1.98015,7.91413 -3.69898,14.71077 -3.64461,4.36178 -6.91571,7.04264 -10.44649,8.56154 -9.817,4.22316 -35.26836,8.32085 -67.4474,10.85907 -19.34336,1.52579 -84.80398,2.20214 -106.69418,1.10239 z M 542.54468,314.6372 c -21.06407,-2.40521 -39.67537,-10.43929 -47.64051,-20.56531 -5.13168,-6.52388 -3.30806,-15.99502 3.7156,-19.29734 10.79919,-5.07744 16.62036,-7.13921 28.67733,-10.15712 15.1622,-3.79513 33.58208,-11.00538 39.34542,-15.40129 10.15471,-7.74537 9.53784,-18.09328 -2.12695,-35.68007 -7.42276,-11.19116 -9.27638,-15.90113 -8.30199,-21.09507 0.90382,-4.81777 6.10765,-10.65222 10.91634,-12.23923 8.06254,-2.66088 23.27565,1.52437 37.28898,10.2585 15.13162,9.43112 25.21134,20.69256 32.66617,36.49582 3.93544,8.34265 4.43932,10.33506 4.84684,19.16523 0.50508,10.94406 -0.69143,16.02888 -6.55223,27.84523 -13.96665,28.15902 -52.92727,45.22752 -92.835,40.67065 z M 303.99998,191.97513 c -10.85333,-0.39563 -36.53333,-1.28446 -57.06666,-1.97517 -47.76642,-1.60678 -60.44081,-2.58492 -91.73333,-7.07951 C 92.383241,173.89801 47.47234,156.54965 22.900908,131.81543 3.2186601,112.00279 1.124065,88.543186 16.955808,65.229911 22.700397,56.770629 34.950567,44.773176 43.959011,38.783776 61.511519,27.113726 91.167198,15.89863 115.73333,11.640379 126.91896,9.7014814 133.82778,9.2231943 151.46666,9.1666144 l 21.86666,-0.070141 10.50608,4.0043396 c 13.53615,5.159235 14.27925,5.58671 16.74701,9.63393 2.63131,4.315427 2.65438,10.977303 0.0528,15.243681 -2.60077,4.265057 -6.9808,6.918139 -18.98262,11.498211 -14.2164,5.425177 -17.62164,7.414567 -23.07628,13.481436 -7.64711,8.505424 -8.05636,17.094784 -1.14386,24.007284 6.29898,6.298981 38.0141,21.027515 55.89686,25.958565 4.4,1.21327 26.24,5.87303 48.53333,10.35502 l 40.53333,8.14909 28.26667,0.78875 c 29.49146,0.82292 31.51992,1.14797 37.99814,6.08915 3.28538,2.50587 5.298,2.98294 17.26044,4.09134 15.61315,1.44665 17.27475,1.97089 17.27475,5.45018 0,3.67666 3.34237,6.48678 8.68718,7.3038 18.16281,2.77643 24.43654,4.13736 28.64615,6.21409 4.01534,1.9809 5.04482,3.14201 6.29765,7.10291 1.28577,4.06502 1.28577,5.33412 0,8.97004 -0.82371,2.32931 -2.69765,5.12073 -4.16432,6.20316 -9.73279,7.18295 -70.32958,10.82474 -138.66666,8.33368 z m 183.69668,-13.72512 c -9.48748,-3.27716 -15.16335,-10.66542 -15.16335,-19.73808 0,-11.65775 8.06087,-19.88016 19.4324,-19.82184 11.68681,0.0599 23.19985,11.56432 23.22831,23.21083 0.0164,6.74406 -7.11848,15.14854 -14.63156,17.23494 -5.29972,1.47174 -6.22491,1.40804 -12.8658,-0.88585 z m 75.20596,-24.03157 c -6.26078,-1.6838 -10.12159,-5.14659 -11.00837,-9.87348 -0.9836,-5.24305 1.02873,-8.95224 9.227,-17.00749 4.57564,-4.4958 8.15609,-9.14437 9.56397,-12.41707 1.23767,-2.87707 4.37982,-8.34149 6.98254,-12.14314 2.60272,-3.801659 4.73221,-8.004473 4.73221,-9.339587 0,-6.228316 -13.34347,-17.529709 -30.34328,-25.699566 C 525.87978,55.15788 488.75229,45.779278 442.66664,40.105597 410.80576,36.18315 393.89323,35.174378 345.06665,34.284106 296.97,33.407143 296.2301,33.299764 292.81804,26.701581 c -1.92879,-3.729857 -2.09368,-9.557311 -0.37705,-13.3249 1.95265,-4.285601 10.50265,-7.717363 25.95899,-10.4193018 13.63743,-2.38397235 15.26479,-2.42404588 98.43884,-2.42404588 56.86276,0 84.82155,0.3602494 85.33332,1.09952078 0.41865,0.6047365 6.51269,2.2033989 13.54232,3.5525832 23.82455,4.5726038 56.89042,15.1697837 76.42477,24.4931447 18.24367,8.707349 35.35336,22.476204 43.95683,35.373845 2.14715,3.218835 3.91126,5.378835 3.92024,4.8 0.009,-0.578836 0.48163,-0.332429 1.05033,0.547571 0.59016,0.9132 1.04102,12.162788 1.05034,26.207552 l 0.0163,24.60755 -6.56136,7.15115 c -13.22067,14.40901 -27.60702,21.46074 -52.51169,25.73954 -11.16976,1.91905 -13.39478,1.93148 -20.15763,0.11265 z"
       id="path823"
       inkscape:connector-curvature="0" />
    <path
       style="fill:#4bc52e;stroke-width:1.0666666"
       d="m 522.66664,606.87143 c -7.08236,-1.04837 -7.94887,-1.38808 -18.2449,-7.15256 -9.56484,-5.35511 -11.97928,-7.74135 -11.85414,-11.71568 0.13521,-4.29384 5.06882,-14.74634 7.91248,-16.7636 10.88772,-7.72362 24.40086,-15.11595 35.38232,-19.35583 17.21044,-6.64484 20.32543,-8.29237 26.37189,-13.94812 10.17547,-9.51796 10.8508,-19.19083 2.52722,-36.198 -5.3328,-10.89626 -5.89359,-15.46595 -2.73309,-22.27099 4.20317,-9.05007 8.08397,-11.2 20.21688,-11.2 19.76217,0 40.338,10.32816 52.53555,26.37054 2.57719,3.38954 5.28578,6.79708 6.01912,7.57232 0.99285,1.04958 1.33333,8.15702 1.33333,27.83272 v 26.42318 l -5.23711,7.45739 c -12.63329,17.98914 -32.88514,30.44562 -62.01695,38.14527 -21.06843,5.56848 -37.08784,7.0422 -52.2126,4.80336 z M 108.29933,481.24259 c -2.94406,-1.32215 -3.73946,-2.09121 -2.6108,-2.52432 1.98215,-0.76062 8.4448,1.81344 8.4448,3.36356 0,1.51224 -0.87973,1.38569 -5.834,-0.83924 z m 39.434,-1.72139 c -33.88826,-2.65985 -36.26514,-2.94015 -42.09637,-4.96428 -7.802505,-2.7084 -10.052834,-2.66242 -9.306864,0.19017 0.537322,2.05472 0.265351,2.1608 -3.785432,1.47643 -5.701751,-0.96331 -18.648745,-5.38428 -21.783824,-7.43847 -1.51918,-0.9954 -2.367409,-2.4977 -2.212339,-3.91827 0.206463,-1.89137 -1.276481,-3.08689 -8.281837,-6.67665 -11.348851,-5.8155 -27.175713,-16.73212 -35.41756,-24.42935 -26.631603,-24.87182 -26.6980621,-59.23219 -0.161015,-83.24685 7.831363,-7.08697 17.056478,-11.69875 27.800273,-13.89779 16.341887,-3.34485 29.776827,-1.08894 44.668242,7.50042 14.971776,8.63572 18.930846,14.66916 15.993716,24.37376 -2.93717,9.70477 -2.97862,9.54231 3.80983,14.93282 3.56109,2.82775 16.90518,10.31151 31.08351,17.43253 29.67917,14.90627 42.81128,23.74197 47.97235,32.27728 1.91548,3.1678 5.5899,7.9288 8.16537,10.58 5.548,5.71113 8.75701,13.7178 7.71305,19.24448 -1.39491,7.38466 -4.11296,10.16041 -13.49021,13.77666 -7.42933,2.86505 -10.42663,3.41485 -20.61541,3.78143 -6.55718,0.23591 -20.08215,-0.21152 -30.05548,-0.99432 z m 394.81135,-164.884 c -21.06407,-2.40521 -39.67537,-10.43929 -47.64051,-20.56531 -5.13168,-6.52388 -3.30806,-15.99502 3.7156,-19.29734 10.79919,-5.07744 16.62036,-7.13921 28.67733,-10.15712 15.1622,-3.79513 33.58208,-11.00538 39.34542,-15.40129 10.15471,-7.74537 9.53784,-18.09328 -2.12695,-35.68007 -7.42276,-11.19116 -9.27638,-15.90113 -8.30199,-21.09507 0.90382,-4.81777 6.10765,-10.65222 10.91634,-12.23923 8.06254,-2.66088 23.27565,1.52437 37.28898,10.2585 15.13162,9.43112 25.21134,20.69256 32.66617,36.49582 3.93544,8.34265 4.43932,10.33506 4.84684,19.16523 0.50508,10.94406 -0.69143,16.02888 -6.55223,27.84523 -13.96665,28.15902 -52.92727,45.22752 -92.835,40.67065 z M 303.99998,191.97513 c -10.85333,-0.39563 -36.53333,-1.28446 -57.06666,-1.97517 -47.76642,-1.60678 -60.44081,-2.58492 -91.73333,-7.07951 C 92.383241,173.89801 47.47234,156.54965 22.900908,131.81543 3.2186601,112.00279 1.124065,88.543186 16.955808,65.229911 22.700397,56.770629 34.950567,44.773176 43.959011,38.783776 61.511519,27.113726 91.167198,15.89863 115.73333,11.640379 126.91896,9.7014814 133.82778,9.2231943 151.46666,9.1666144 l 21.86666,-0.070141 10.50608,4.0043396 c 13.53615,5.159235 14.27925,5.58671 16.74701,9.63393 2.63131,4.315427 2.65438,10.977303 0.0528,15.243681 -2.60077,4.265057 -6.9808,6.918139 -18.98262,11.498211 -14.2164,5.425177 -17.62164,7.414567 -23.07628,13.481436 -7.64711,8.505424 -8.05636,17.094784 -1.14386,24.007284 6.29898,6.298981 38.0141,21.027515 55.89686,25.958565 4.4,1.21327 26.24,5.87303 48.53333,10.35502 l 40.53333,8.14909 28.26667,0.78875 c 29.49146,0.82292 31.51992,1.14797 37.99814,6.08915 3.28538,2.50587 5.298,2.98294 17.26044,4.09134 15.61315,1.44665 17.27475,1.97089 17.27475,5.45018 0,3.67666 3.34237,6.48678 8.68718,7.3038 18.16281,2.77643 24.43654,4.13736 28.64615,6.21409 4.01534,1.9809 5.04482,3.14201 6.29765,7.10291 1.28577,4.06502 1.28577,5.33412 0,8.97004 -0.82371,2.32931 -2.69765,5.12073 -4.16432,6.20316 -9.73279,7.18295 -70.32958,10.82474 -138.66666,8.33368 z m 183.69668,-13.72512 c -9.48748,-3.27716 -15.16335,-10.66542 -15.16335,-19.73808 0,-11.65775 8.06087,-19.88016 19.4324,-19.82184 11.68681,0.0599 23.19985,11.56432 23.22831,23.21083 0.0164,6.74406 -7.11848,15.14854 -14.63156,17.23494 -5.29972,1.47174 -6.22491,1.40804 -12.8658,-0.88585 z"
       id="path821"
       inkscape:connector-curvature="0" />
    <path
       style="fill:#28ba05;stroke-width:1.0666666"
       d="m 534.39997,602.68836 c -11.79822,-0.60501 -14.13903,-1.0572 -20.3312,-3.9275 -8.00069,-3.70863 -11.69626,-7.6898 -11.60764,-12.50473 0.0872,-4.74144 5.23357,-13.59888 9.36277,-16.1145 1.93343,-1.17791 5.76399,-4.02089 8.51236,-6.31774 4.64139,-3.87886 8.15488,-5.72318 30.26189,-15.88521 9.2688,-4.26063 17.07416,-10.86933 20.29574,-17.18416 2.87623,-5.63787 2.08458,-16.39143 -1.93035,-26.2212 -5.3722,-13.15279 -3.52856,-21.62075 6.16066,-28.29643 6.38042,-4.39596 12.35565,-5.29636 21.91744,-3.30266 14.51209,3.02585 30.86434,14.04417 39.32018,26.49431 1.70765,2.51429 3.70481,5.20573 4.43815,5.98097 1.90897,2.01805 1.90724,48.49891 -0.002,50.51428 -0.73436,0.77525 -2.70367,3.51374 -4.37623,6.08556 -12.76325,19.62543 -37.70501,34.13718 -68.80639,40.03334 -9.23853,1.75143 -10.98858,1.78544 -33.21549,0.64567 z M 143.46666,477.87783 C 127.60478,476.79734 119.92569,475.54581 103.82775,471.4175 85.397132,466.69097 78.848822,464.38383 64.058112,457.40557 33.06913,442.78497 14.429025,425.72481 8.4974921,406.55429 -2.2444523,371.8367 28.693206,335.09085 66.754036,337.36075 c 9.094317,0.54238 10.067064,0.90003 27.581697,10.14125 11.622487,6.13236 13.321167,8.74844 14.170137,21.82309 0.57131,8.79845 0.57742,8.81358 5.4997,13.61982 3.7039,3.61658 11.40596,8.11128 31.01162,18.0975 21.32216,10.86051 27.22362,14.36343 32.32729,19.18841 5.03507,4.76013 6.50247,6.93472 7.58189,11.23584 1.18843,4.73547 2.04852,5.83059 7.6727,9.76926 8.20022,5.74269 12.92048,13.79403 11.74877,20.03981 -1.10186,5.87336 -5.39071,9.70257 -12.5264,11.18394 -3.25043,0.67478 -8.48507,2.20538 -11.63254,3.40133 -6.86595,2.60885 -18.58369,3.25241 -36.72224,2.01683 z M 539.19997,312.00806 c -7.56078,-1.68031 -9.82022,-2.64272 -22.08451,-9.40688 -13.00589,-7.17319 -15.78215,-9.97192 -15.78215,-15.90988 0,-5.89803 2.31927,-8.28369 11.7914,-12.12895 3.7814,-1.53507 8.79526,-3.91262 11.14193,-5.28343 2.34667,-1.37082 8.58667,-4.00111 13.86667,-5.84508 15.51877,-5.41976 28.39943,-11.93297 32.21405,-16.28933 6.76744,-7.72852 6.04747,-15.84136 -2.94034,-33.13264 -7.15949,-13.77386 -7.9582,-18.60906 -4.10407,-24.84517 2.89068,-4.67722 7.06692,-6.77223 13.44405,-6.74421 16.10219,0.0707 43.62687,18.62532 54.67236,36.85499 5.54099,9.14492 9.63141,22.03388 9.64004,30.37585 0.004,3.84266 -0.39185,7.44266 -0.87961,8 -0.48777,0.55733 -1.50228,3.17333 -2.25445,5.81333 -2.77343,9.73426 -7.60595,17.41988 -16.45672,26.17277 -15.79139,15.6167 -37.99429,24.03936 -62.93875,23.87576 -7.11145,-0.0466 -15.8099,-0.72485 -19.3299,-1.50713 z M 296.53332,190.28462 C 225.49567,187.10664 172.31924,183.78465 153.59999,181.35543 94.418365,173.67536 46.268854,154.71325 22.813695,129.84955 3.0566247,108.90601 2.8873972,84.907251 22.324308,60.447947 36.622576,42.455085 60.093374,28.426943 92.086355,18.752226 117.34876,11.11284 147.95383,9.1001269 167.46666,13.794908 c 18.92363,4.553021 21.11393,5.323017 23.39668,8.225059 2.62743,3.340245 2.95877,10.758421 0.67756,15.169794 -1.79309,3.467467 -11.11415,9.678183 -24.80215,16.52593 -8.75906,4.38193 -10.29578,5.607486 -14.5354,11.592139 -6.54927,9.244993 -6.70472,10.168202 -2.72408,16.177861 3.61641,5.459795 10.72277,11.26444 20.12072,16.435095 8.13738,4.477094 33.48748,14.305504 46.93333,18.196364 22.9162,6.63133 73.69066,16.92384 90.66666,18.37908 19.46005,1.66819 32.34751,3.71518 43.18414,6.85917 11.85122,3.43836 16.54919,6.17036 16.54919,9.62382 0,3.47966 4.43032,4.54086 24.21629,5.80059 22.31115,1.42051 26.54808,2.48147 31.53382,7.89633 11.59224,12.58999 2.854,19.46548 -30.68344,24.14259 -8.14086,1.13531 -78.65384,2.21804 -95.46666,1.46589 z m 189.2315,-16.31543 c -11.76512,-5.34314 -12.67638,-22.83491 -1.52879,-29.34546 4.40803,-2.57442 13.09651,-2.87823 17.59079,-0.61508 1.7381,0.87524 4.30058,3.27135 5.6944,5.32468 2.12218,3.12632 2.46428,4.73288 2.10405,9.881 -0.47744,6.82321 -2.60821,10.52472 -8.28111,14.38567 -4.30429,2.92947 -9.66227,3.05643 -15.57934,0.36919 z"
       id="path819"
       inkscape:connector-curvature="0" />
  </g>
</svg>
